<mxfile host="app.diagrams.net" agent="Mozilla/5.0 (Windows NT 10.0; Win64; x64; rv:134.0) Gecko/20100101 Firefox/134.0" version="26.0.10">
  <diagram name="Page-1" id="qvhUyN_mbAbUhAH3BEej">
    <mxGraphModel grid="1" page="1" gridSize="10" guides="1" tooltips="1" connect="1" arrows="1" fold="1" pageScale="1" pageWidth="827" pageHeight="1169" math="0" shadow="0">
      <root>
        <mxCell id="0" />
        <mxCell id="1" parent="0" />
        <mxCell id="YQgL9-uihPEgKgkD_BW4-11" value="" style="shape=image;verticalLabelPosition=bottom;labelBackgroundColor=default;verticalAlign=top;aspect=fixed;imageAspect=0;image=data:image/png,iVBORw0KGgoAAAANSUhEUgAABJcAAAOYCAYAAABo+BKzAAAgAElEQVR4Xuy9v48dR5bvGfTWHGDVlrAPS0ClBgQ6Dw2JeEW0wfVIAno0iBq0GiC9KsiqkkE5rDUWKDqioapxCBYwBgU89XSBBkcAq7yV0SAH1IOwDtFAqwoQsFha3cb8B7WR9968N2/ezIwfmXEy4saHY0x3V2bEOZ84ee6Jb0ZEXrnU/xT/IAABCEAAAhCAAAQgAAEIQAACEIAABCDgQeAK4pIHNW6BAAQgAAEIQAACEIAABCAAAQhAAAIQmBBAXCIQIAABCEAAAhCAAAQgAAEIQAACEIAABLwJIC55o+NGCEAAAhCAAAQgAAEIQAACEIAABCAAAcQlYgACEIAABCAAAQhAAAIQgAAEIAABCEDAmwDikjc6boQABCAAAQhAAAIQgAAEIAABCEAAAhBAXCIGIAABCEAAAhCAAAQgAAEIQAACEIAABLwJIC55o+NGCEAAAhCAAAQgAAEIQAACEIAABCAAAcQlYgACEIAABCAAAQhAAAIQgAAEIAABCEDAmwDikjc6boQABCAAAQhAAAIQgAAEIAABCEAAAhBAXCIGIAABCEAAAhCAAAQgAAEIQAACEIAABLwJIC55o+NGCEAAAhCAAAQgAAEIQAACEIAABCAAAcQlYgACEIAABCAAAQhAAAIQgAAEIAABCEDAmwDikjc6boQABCAAAQhAAAIQgAAEIAABCEAAAhBAXCIGIAABCEAAAhCAAAQgAAEIQAACEIAABLwJIC55o+NGCEAAAhCAAAQgAAEIQAACEIAABCAAAcQlYgACEIAABCAAAQhAAAIQgAAEIAABCEDAmwDikjc6boQABCAAAQhAAAIQgAAEIAABCEAAAhBAXCIGIAABCEAAAhCAAAQgAAEIQAACEIAABLwJIC55o+NGCEAAAhCAAAQgAAEIQAACEIAABCAAAcQlYgACEIAABCAAAQhAAAIQgAAEIAABCEDAmwDikjc6boQABCAAAQhAAAIQgAAEIAABCEAAAhBAXCIGIAABCEAAAhCAAAQgAAEIQAACEIAABLwJIC55o+NGCEAAAhCAAAQgAAEIQAACEIAABCAAAcQlYgACEIAABCAAAQhAAAIQgAAEIAABCEDAmwDikjc6boQABCAAAQhAAAIQgAAEIAABCEAAAhBAXCIGIAABCEAAAhCAAAQgAAEIQAACEIAABLwJIC55o+NGCEAAAhCAAAQgAAEIQAACEIAABCAAAcQlYgACEIAABCAAAQhAAAIQgAAEIAABCEDAmwDikjc6boQABCAAAQhAAAIQgAAEIAABCEAAAhBAXCIGIAABCEAAAhCAAAQgAAEIQAACEIAABLwJIC55o+NGCEAAAhCAAAQgAAEIQAACEIAABCAAAcQlYgACEIAABCAAAQhAAAIQgAAEIAABCEDAmwDikjc6boQABCAAAQhAAAIQgAAEIAABCEAAAhBAXCIGIAABCEAAAhCAAAQgAAEIQAACEIAABLwJIC55o+NGCEAAAhCAAAQgAAEIQAACEIAABCAAAcQlYgACEIAABCAAAQhAAAIQgAAEIAABCEDAmwDikjc6boQABCAAAQhAAAIQgAAEIAABCEAAAhBAXCIGIAABCEAAAhCAAAQgAAEIQAACEIAABLwJIC55o+NGCEAAAhCAAAQgAAEIQAACEIAABCAAAcQlYgACEIAABCAAAQhAAAIQgAAEIAABCEDAmwDikjc6boQABCAAAQhAAAIQgAAEIAABCEAAAhBAXCIGIAABCEAAAhCAAAQgAAEIQAACEIAABLwJIC55o+NGCEAAAhCAAAQgAAEIQAACEIAABCAAAcQlYgACEIAABCAAAQhAAAIQgAAEIAABCEDAmwDikjc6boQABCAAAQhAAAIQgAAEIAABCEAAAhBAXCIGIAABCEAAAhCAAAQgAAEIQAACEIAABLwJIC55o+NGCEAAAhCAAAQgAAEIQAACEIAABCAAAcQlYgACEIAABCAAAQhAAAIQgAAEIAABCEDAmwDikjc6boQABCAAAQhAAAIQgAAEIAABCEAAAhBAXCIGIAABCEAAAhCAAAQgAAEIQAACEIAABLwJIC55o+NGCEAAAhCAAAQgAAEIQAACEIAABCAAAcQlYgACEIAABCAAAQhAAAIQgAAEIAABCEDAmwDikjc6boQABCAAAQhAAAIQgAAEIAABCEAAAhBAXCIGIAABCEAAAhCAAAQgAAEIQAACEIAABLwJIC55o+NGCEAAAhCAAAQgAAEIQAACEIAABCAAAcQlYgACEIAABCAAAQhAAAIQgAAEIAABCEDAmwDikjc6boQABCAAAQhAAAIQgAAEIAABCEAAAhBAXCIGIAABCEAAAhCAAAQgAAEIQAACEIAABLwJIC55o+NGCEAAAhCAAAQgAAEIQAACEIAABCAAAcQlYgACEIAABCAAAQhAAAIQgAAEIAABCEDAmwDikjc6boQABCAAAQhAAAIQgAAEIAABCEAAAhBAXCIGIAABCEAAAhCAAAQgAAEIQAACEIAABLwJIC55o+NGCEAAAhCAAAQgAAEIQAACEIAABCAAAcQlYgACEIAABCAAAQhAAAIQgAAEIAABCEDAmwDikjc6boQABCAAAQhAAAIQgAAEIAABCEAAAhBAXCIGIAABCEAAAhCAAAQgAAEIQAACEIAABLwJIC55o+NGCEAAAhCAAAQgAAEIQAACEIAABCAAAcQlYgACEIAABCAAAQhAAAIQgAAEIAABCEDAmwDikjc6boQABCAAAQhAAAIQgAAEIAABCEAAAhBAXCIGIAABCEAAAhCAAAQgAAEIQAACEIAABLwJIC55o+NGCEAAAhCAAAQgAAEIQAACEIAABCAAAcQlYgACEIAABCAAAQhAAAIQgAAEIAABCEDAmwDikjc6boQABCAAAQhAAAIQgAAEIAABCEAAAhBAXCIGIAABCEAAAhCAAAQgAAEIQAACEIAABLwJIC55o+NGCEAAAhCAAAQgAAEIQAACEIAABCAAAcQlYgACEIAABCAAAQhAAAIQgAAEIAABCEDAmwDikjc6boQABCAAAQhAAAIQgAAEIAABCEAAAhBAXCIGIAABCEAAAhCAAAQgAAEIQAACEIAABLwJIC55o+NGCEAAAhCAAAQgAAEIQAACEIAABCAAAcQlYgACEIAABCAAAQhAAAIQgAAEIAABCEDAmwDikjc6boQABCAAAQhAAAIQgAAEIAABCEAAAhBAXCIGIAABCEAAAhCAAAQgAAEIQAACEIAABLwJIC55o+NGCEAAAhCAAAQgAAEIQAACEIAABCAAAcQlYgACEIAABCAAAQhAAAIQgAAEIAABCEDAmwDikjc6boQABCAAAQhAAAIQgAAEIAABCEAAAhBAXCIGIAABCEAAAhCAAAQgAAEIQAACEIAABLwJIC55o+NGCEAAAhCAAAQgAAEIQAACEIAABCAAAcQlYgACEIAABCAAAQhAAAIQgAAEIAABCEDAmwDikjc6boQABCAAAQhAAAIQgAAEIAABCEAAAhBAXCIGIAABCEAAAhCAAAQgAAEIQAACEIAABLwJIC55o+PGtSJwcaRubOypN7ZObW6qzWtbav/hrrr1UdNNZ2rnym11PP/Ttjq9fKZu2bbvfN2FOjt6og5OjtWbihOb2s5rW8/Vs91zgz3S9jo7yA2DEzCNuenvgxtEg1kRMMWX6e8pw7pQF2dP1IOXd9XrZ/VfhVT8TsXOoeIkN3+H4tbVTtdzINF/0UfM4+pi2zrklHLMXfyWipOY+6nzcrB1+1RdrvwGOdy/dOmFOrqxofaqEynb9s921JXbixmT2jxU5693VeP0ytm8Gp9B23Y2JosbEJeyGGacNBJwFZcqDW4enqvXu/UUKPvjeLZzRVXzctXfqX2IS8YYyO4CU4ya/p4dMBwelIApvkx/H9QYocZmE0CdrCf1d2PhnYrfqdg51NDm5u9Q3JrasXkOQvZfbTvmcbWxzYalTTtSvG36Sc1eG59CXhOLuKTUxdENtbGsLlm9WK/PYZrnVX4MV+ZHiEt+IB3uQlxygMWla0ygh7g0nSNcqmXxX/DH0WD71DaTPaa/r/HYZ+uaacxNf88WHI4PQsAUX6a/D2KEbCP1t7OIS7L8e/W2hvHYi0ePm62egx7tO90a87ha2GbF0qIdJ2ahL07N3tA8TO3HIy5pdWllF8jq/KjuT93+TXV4/lqtvLM3YWj6e9P8CHHJh6TTPYhLTri4eG0J9BSXhl3C6Ui5YTnpqV5O6rYFjx9zR+prcLlpzE1/XwMEuDAigQzja60mgrmNX27+BkwNVs9BwP6Xmk58XK1YpuZjavZKxWpbPxGJS2p1a5xxFZJVDPswbtimVzSDuOQD0+kexCUnXFy8tgTq4lJn8tHnG+080NvQljYWWy39DMJvkMTMj3mQsYm6UdOYm/4etXMYFz2BDOPLKlenwiUVO4d6EHLzdyhuDe1YPQcB+0dcGq9etRpWnjUrTPOL4uK1sjXOIObUt62ZVzrZ0Vndoje7D3HJDmCPqxCXesDj1jUi4CQuFX6blnG6JfuLizP16smBOtGC1UKy0oeGbxeHht/Rh4avHmvXmjirwzLfdmGyx/D3WjE4Tf6zvf4HlUPE9QHi25MDxBf2Xuh7H9Sv2dfXNJ+E7hRUPtymHdT8LX9s9Dgc1ceh8MnD3uUfzJZlvvUiWzUf/G788W2xe/Pavnr+8JZqCJ+GGK73bYqZ2VCVfb/TsVvVW+eH3jfHr/VAe7dvab/pQNd6biieqYe/qJ0He6rUlzc3t9X+8+LA/tqS8K5ra4/0YLHcEkPmg2uHfyYKn548ONCcKllt+3D2IQTT+Dj+fYhnWNu702pv/S2o/UcabHL14u1um9/TlxoH1d8IHXeH+w/VrimXeuUH0xPaYmdDX9Pn42Hj79hSL73sLD9q8U7noeVPcxT9b2lOdzSnrgNi+8WrUD4surnQvr5q+4DHvnp4py3nL2j755uyDXfebs9BJTJ6xUWBq08ean8Owv/Gt+dAN5YBckojlubfEP21GfXk4GT5d6D8zXT6II5vDnSP1RX3hvpt6BnLzdFo+q005fLy7wON38pOkK5tbkPZXvOxazcK4pJtQHhfh7jkjY4b14pAb3HJf2K+80B/Vc70mbqGZGhTXCwOjDUlcEdx6fBUqZMOuyei1sbqlyMahS+PSJr80PtxaxOXTrdO1O2lgwhrdtl+9WL+O7389YumpcFNB7G7nt91caTFu73ZAcGNKLU4drgs+DUyWBElTDHTdHhj81huanarX8Uyj7tVjOtmmts322/FYUVc2lbbx8eVL0EWrcyef5dr53O0gWN5QHGpzzNxtnOjtrqzOt46Jk+3lH7gOr6oaRq/1UK4j73dsVbYu68+Obhd+RKOoLh0/ok66Piaadfz5Z8fTM/n6vhMfxbac1EwO223tXdMKvrHa/h8WIzI5GVNB+PpqBXx2vICp/dvZ2GE5dd1a7xt8nn9d7Jv/A4xrq1PQu3l0PC/8QHFpR45pT0zrObkw2snaq+jwLX+II6vvZ6xWvVxqN+GvrFszb21BnDM6fr59Rs/h61xgVYxVmvrze1tpXTNNp9mIS6ZAqH33xGXeiOkgbUg4CIuFW8etLBR1SFWfyBNE6OCWv0aA0n9puf0dbE6YvrPplALJS4NNeZ+y1/7cWsWFOw8crO3ZSXIvKvm/eArsdS0cqY8PX5l5VO7H66ilXGli0Pfk+lO41cVO7j3bt/mGWx6DmuigUVxOvfN5dqJ6yFiuU30MPFwtGU2dE3PhFVuWhl6V4E+NnvbY9mGR/vKpR65yeEZcsttHrE7c6MxD/Sy0zEOGl4S2IzP6ijU4tXBB698OEFe+1x3Z2g0rRZwZFWrObx+Oyu8bTgvxYeDv+HyUBfk0L/xocSlHjml81bH+GrNCX7tmGscg9+hcoPjs9s/F9u/+Fgm4se9Kafbbo0zrsq3C9WaG9U8qVnUhUnEJR+qTvcgLjnh4uK1JWAxKWz1vTFRmSZyRZ14Rb/Zr7aqi0H9trHc4nAxWUq82HozubJp9YyV8m+yx23l0tTqir0NgpvVNa6rgSb19RDcmn9Eizfrz7VwM1mpXbzh3dCro6pD5GSvYRtNW8wZ3va2T0Lr8VN/w9138r58/8qWgErsanh6Jbw+l8zjk7Ql7v7tm2J+3pPauVIdZxtxqWWZd+OYti8JDxPLw4pLzs9Ey9dZTp/rjwxMH6yGM+smya12Dohp/IZ6hhva0c/g3N7W3OZRwHvl6lkmreem+srNldxU98s1P5h+7dv4H+qtuLvTrbiN7OrPQz87myYxy7G2sfw7W/+9Hihe++crd96beqnY893K71U9Jmq+DpFvevMu3PR6Dhzjd6Bx7R4V6d/4hpzjxdI3p7jH6LRUNOVTU+73s7d/rA7129Avx5moO7+kmjVoLcY5j1+R++urGy3E7kFEn2XWEx83arYM0o95VHK+AnEp59HH9wUBT3Fpqbhb4ukq1thOCAt9qTjvqNKZV3Fh+jE3v5U12lFMF022uiZ5yzOKmn5sl21pKBpshDtHe+vFTdWG9re4Vfb14nXxA93V9jw6Opftu07eO+xq5DK1/USLBlv7d/V5J7NJkFXeqfnt1b7JP39xqXUVVkMeab02WCzb5hJTDpg8wHp7a+27kw1fpzzXX6csj87wfWM5iLgUzN6mVYaC4tIAfjW+DbfY1tP+uFrmUMPXg/rnsemZOq+evNRnFr5TW/VPWK88k8vjNky8DpGvDDLG0Q21URXrm2Ji4uuJfpS21NbdO8tnTA2Wb/rxnnhpUbP0jYthxtX8YxXyN964etiSZaP44JFTzDSaxZjq78O0DdO2KcvcYvgtmvQUPDeYfxv6xrIXd/NNq/V500rqjtqre/eGaYxX84Dz6vYGH5cE9DLGXXamWHDjEjMBxCUzI67IgYCnuFSgWXqzv5jVd66GqL9B7EqqK0VSvSiwKNTMRcoAYpihiJ/WFP3eIAzHbbV4aZx82fjU9Xx0bGlrOm+pbGphS9uye9vDhWv3L8WOSXzp+ntTQVWc7bSv7t7ZMB/ca8wpQ7Rv8q80wnCd1Ru4WVsO14aL5eHEJZ9nwnqZu3Gyaxq/YZ7h4ew1BrXVpNosjLfFWpcobRkTTiszLfk3TYDnE5Yh8piJe3ccDTP+Q+Srzh+S2vmFXQfkNrczXL7px3tyt7Fm6R8Xw4yrydeGmqbyDPX7jZ+A6l5Va8WyqZ2GF39N9Znz2T1D5IQx7e1and3CrGkMlrj1j2VzFDavIjXdZ7NyqXWLno2wVxfEO1dSuue0Ff+W6q9Kez3nHSaO/H2VAOISUQGBxh9VRywr6r7LxNyQVE2J0Vio2RQpjuJS09sMk51NnJ1WArWv4mkcrU57GpYp1994T6tgc3HXGSptb7Tros/yIdFzsbF1ZYFfMVEsT1+8RTT51v134/kZky8H2n25qAlh//ZN/pW9uopLHStWrMXIkLFsKSQYt6G15aWhcptpfFz/Pra9Fr8ZXrnax68h8oPJH9P4VO5vfS7C2TlZsfBKr2Y6qXzNdGKS3crQVe/HzIcOrJt/DN3EKZvf8lo/drxnNxmfg75x4ZJfB2Y7/43t+xtvWX8YWTa145NTTPnA0t6ymRHrM7tYHSqG+sayD3ebe5rEModnwSZHdNZDtb5a5gLGOnAu5i6P19ILextb7ZBxlSUBxCVLUFy25gQcks+F/gzw+RN9nkztCxjLq4+6krRDArcROLyKC9OWGMO2uNYl+XvdX2Rw4Oxa3LtdLyUu1Q9enxV1tU/WF2+H7r6snCU1+6E9XzpfqloQehYsSxMrUxya/t58IHlTptjUn59//myxdcoum/Rt32T/mOKSrW02Ntq2ZbpuiGfC1Ed15E3Xuv7dZ8Jk6sPFXouoHiRX+8SEhW0rwovpniHYDZHHpnZOt78c6K1xbxa/QY0uVH/bhvBhPlvu/jpqxRb3fOhiZ5PTrvebr/fjPbPN+Bz0jQuz/QtKLtc2PxPLE+ChfuOLvixsM7K0bMem1jSlBBt7520MUSNb8Bk9N/SNZSN0uzixaWaw8WvPifOVUJZbsm3FpaXrTOfqOb3UtgLHRTUCiEuEBAQmlan7dq2VJc/Wq0LsfhCti59BiguDTTZ92DC0uaY1IofkZtuW7XUdj1HN50KEfK4eVM7PmBWj57UvXFw+VL/oM4vm+9o748v2MXaZWNn4Xhzc/UQd7LV/fnxhmccZNZODwX3bt7HfovC2Xo3UkEdatxXY2lbSkyjEbW0awhYL7sZCNzZ7LZ5Bmzxq9NsnJixsm1zi8oza8u8a6yEmXlqE3nmw8rnzTf2ls60tfdbbrlJPWg/sH8KHKts++aprjFzsbGrH9f6u6/vwntlmfA76xoWLvy7XtoxRkN94mxxZ6Aq1Lwg2bm219dH2urZYdbl/iN8RU399YtXUdpWBiy9j5+Kh8owdn7ZjPVY+gNC4c8Diq9hFvD/8RZ81t3ixvbKVr9e8w3a8uK5KAHGJeIBAQcAn+XTuOTYUZ1XRoPjqWktinQyOybZBiosUxCWXZcombnY/jFZvDo1PUK0vvYrn8N3eqmhUG+ftw0P1bm/xg2m/Ms5oUFnhG7b82TKaNadX9J29eqJenrxTx2/eNBrh/ondSjPO7dftt/3Cm+FrcV1vvUzP6tydkLHs6ecgooaLX6b46vv3EvZQudhkj8VzN0iutvFrAFuN7lg+X52/Yf3trE9eVj+yMdL4O+crl0mf6/kkLs9l929nP97lT49JEOkbFy7+9u2rQQQa5De+od0m8VcspxgTgr5giJxg6ffEnO6x6xerQ8XQEPFlYj9UH0ONX7Vuq381rqiv7qqXVcG/46w/m5VL558cLH/swISr8vdeNalDP7ldiriU24jjbzMB60nh4vbur5F0J/tBD9ccpLhIQVwqXtJVto7pofA/CN32x9j2uu4Hq+tgz4UP3dvAln8EXQqfNttMvpn+bkgmepvKTu3T2EN8DWShz5jatyyUTCuTXHKDw7XhYnlMcWn1GbU+ENR4BpTjVt55oLjlYn97LX5cB8nVNuLSEPnB5E+dq8OBty3nZOiM3v2iZcUkixxleL7lDn425asu3qu/Da6TomHyTX/eU03AJC71j1+xcZ0N2/C/8WbxxI6lZTsWYo0pI1h/jMAYAxZxZrTXog2R3NA/lt25u6xArbY+RE6vW9uQu7a31fHx8fxC11y20kP94HAzsMH6dugqq0sRl7IabpxtJeAwKSw+o3p2pM9cqn6Hs2jY5Utcxi8ltU0gGgp4Y6FmU1ykIS6tFKXW247q3CwKD2Px4vA8rYz34t7qD2t7gbpaLKy+lTtXr3fLD8Lb2GZiYPj75M38K71S6UQdq63KQeGVvi331Tda27t9uwnZKnOJlUsNEyzvWB7Iz0FWLjUsY7f8lPHqlqye8TkPKre328uH3peNNAm/HgX8ILm67bdh2Z7++cGUQ1YnIrbsqiJzPztNMdK0raKbk60PK/HaO1918zZ+NXZy+zROT3QumWwJvHNLfVT+JAxSc/TnPf1ZNYlLq+Pm+mKi++XfwM91k0+V4fT9jTetzLFladXOIPXOMDlhGHv7x+pQMdQvx5nysE19b9NGUzv6f7P8/XZ60btkjsfvaM0d4+qmDvf7Clu2ZHO7DnEptxHH32YCK28w3EEtJynTD1vzp4sPT5+r3VvTavDi7Eg9OdjTW4yWqhR1+ezWsnEWhZr5xzoRcWlWPC/revpttzM30/iUiG2vM8VLQ9E1ucVwcHrZrM0B6pM64FQ939UTikkA6RjTB8/vvdO9bG2pu3fuqFvzmYZNQdLhe8PzsqltfK5jcy5vFSuXNm5r4Wnxz/qHfKD2G4Wj82eawwSQnuOsHsy/Oml0OI/NUaQuJoL9Y3l1tdDEB1c/BxKXmt5eFwXq6fPdKXcdF0d6RVtdmx9LXBrOXlMO0H9v3Up9oR/Xj2ZCgG3OMYm/9e0IrvnB5E9LTtNnHZ0+73rGDOKtUx5rsEHnofNJHtJM9XltD1bOgzOtgJsY4BavA+WrbuKrvi7n3CKfbegPjVRbqa4EG6LmGIK35XPQxLTX75vHuJoegaW/B/iNt8nJkjnFyGOgnGDj98SWrhw4RKw2i2XOv2W9Y9kE3vY3w7Wd2fWuOb3eTdf8qmNLnMla67871WXWrXJhBwHEJcIDApN55moh7gRmRd23SPYNk+/OPosE/1oX7fWLshKXppPTumjhzs1ifIzFi1OErGzpm9xtjJtpH22ijOsbG7dzm7oZdW0DaCTj+IWOQdrvWDHWPnpCK5cmeWeIWC5q7NpKAKvQNE2y294oWjw7IvZY2GH5DLs+R7OnUp8d0ZCPu9hbFdnj+eW2OqRtMt0dfE19uPKvtuGcJ5q23g0Qr852OObDaSi7PecrrAfIN85+NvG2eg4sDvOthdqKv468vJ/rmR2NbHr9xlvkAiuWFu1Y5srup9svJ6zWN8PYO0SsuuamthhybadfLvZdDTTU+NWjpP3IB+sXjlY1TctFiEt96Hndi7jkhY2b1o5AH3GpUfSx/HFsOJemiW3np4tzE5fKSXntPB83bpbjY/0GzfxENBUXqwWE+/Yb26JltS8TA9Pfi7nODf2mvPnw7iUiPhOpyVyqf/umNoq3//vqduWNv6C4NEgsT0n39tM61s1xMXHLcA6CkbvRHjs7zKs2p/y67S1WgOyrvy6txPMp4DvOVZu/wZX0a/GUuk1mJhG3/EEA/YwfXjtZ+WpbNQ/4b53ostMwISp+n7eU3sbefcZH/3g1P4NzLzzz4TRd7KgHenmSKesWz9fr+irnQfLNELxtngOb59Icv0OMq/nXvd3Wfr/xNrnAhqVNOw3PtNPXI1vuP/9EHVS+5FVn2ZwThrJ3iFgd7rfBFIslm9652Hncyp4buHuN3+oT0+h7jzxo+0zOftyXvibXvP3AFnMAACAASURBVNXPqUUuNhBAXCJEIDCdWSwnHxOVzU39Pu6a2tp/qO7ovR6rJ93Y/jjOihItMr16cqBO9ER9UTTqPra31P7D+nammnE5ikszBBfe3GzHx/Y6U8A0xVjz4bV2Z2vU+iu2Gq3Ej14YpeP02ta+elg9e2N+q8k309/LQdB9v3qpTk70hGdpxqPjd3P6jJRbPS0oNVQl/dtf3WK6/Gwtv+EUFpd6x/ICWS8/jWJORwHatoJnFpd7FQFy8on4WUx0cjfaYxmfxnbq/PQZYvNALuJkXz1/WJxdY9ufKcqn2zEPqrleP6fb+jl9pre02oph9tcVuccnP5j8WBWXzl/varOK7dxVhkUe2lb7861yHe1629nCdP+5elj8Ptu+ue4Vr0L5cFKvTL/MeVDPuUUcXdNboB/OtqB2ofb+7ZwY0BzDTrxNz0HFeO+4qIyJ/n30y0Om56BqZ72O7Psbb5tzTCxt27G9ro1Jy/0N49edE2ztsLluiFgtj6kY4Lehbyw3orfhYBPHQ41fQ1+NWwNdzwm18cGibylRy9PcdbgNcWkdRhEfIAABCEAAAhAISKBZTHE5Qj+gcTQNAQhAYGQCQ4kcI7vh3P26/DbkOn7OA84NBgKIS4QIBCAAAQhAAAJZEpisFDzR55oVKz7u3lEbjStRNZr6m1eJg0izHBGchgAE0iSwXuJEfr8N6zV+aT5D62E14tJ6jCNeQAACEIAABCDgSqDh0N/tw3O9RW2xJqnYfvukdsabyEGkrr5wPQQgAIHRCKyZOJHdb8Oajd9ozwEdIy6NGgPv1dsXJ+r7v/yofv11ZsjVq+rm779QW/euqw89bHv77efq8Y+ON958pH746rrjTVwOAQhAAAIQSJ1Ax4G4ra75HOadOifshwAEINBFYN3Eidx+G9Zt/HhaxyKAuDQW+fdv1bdfPlbtOtBN9ejpV+q6o8KEuDTWgNIvBCAAAQgkScDyq50T34qvj9kcTp0kCIyGAAQg4EtgDcWJrH4b1nD8fEOZ+3oRQFzqhc/35vfqxe6X6rtytVJbM1fvq6dH95xWMCEu+Y4J90EAAhCAQL4ELvRH1V5NvnT2Tn8tbvlT74svHzZ/HTRfangOAQhAYEpgXcWJXH4b1nX8eD6lCSAuSRPX/b1/sau+LJWlqzfV/a+31L0Pp0uU3r99ob55/J2a75K7/1Qd3XNcvmT0Sa+a+ny2aspDwDI2zwUQgAAEIAABCEAAAhCAAAQgAAEIZEMAcUl8qKurlvTWtx/01rcVG8KKP4vVTVfV/adHWtgSh0CHEIAABCAAAQhAAAIQgAAEIAABCKwJAcQl6YF8/0LtfjldmXS1Y1XSYnXTwALQ22/V57MTv7v6l8ZCfxCAAAQgAAEIQAACEIAABCAAAQikSQBxSXrc5uKOQTSyFKHczA+7IsrNFq6GAAQgAAEIQAACEIAABCAAAQhAYB0IIC4Jj+JiRVLblrjSoIUQNNQKI7bDCQ823UEAAhCAAAQgAAEIQAACEIAABDIggLgkPMgLgcdeXFI3H6kfvlo9mcnJ9MpKqEHac+qciyEAAQhAAAIQgAAEIAABCEAAAhBYVwKIS8IjOxeXjF9pqxz8PYC41GfV0pUrV4Qp0R0EIAABCEAAAhCAAAQgAAEIQAACfQhcXl72ud3pXsQlJ1z9Lx5HXKqcteQhVBXikmRQ9qdMCxDoT+Af//iH+uCDD/o3RAsQgAAEIiZArot4cDANAhAYjAC5bjCUNJQQAel5POKScHCMIS4tznlSekfcD8p1h510UAoPCd1BoJEARQiBAQEI5ECAXJfDKOMjBCBAriMGciQgPY9HXBKOMvkzlyrb64xb8ZphSAel8JDQHQQQl4gBCEAgWwJMuLIdehyHQFYEyHVZDTfOzghIz+MRl4RDT/xrcZWDvH2/OicdlMJDQncQQFwiBiAAgWwJMOHKduhxHAJZESDXZTXcOIu4lEkMvP1Wff74R+3sVXX/6ZG692GL3xVRyGcrW9nqQswy9NeBH3Epk9jEzSUCFCEEBAQgkAMBcl0Oo4yPEIAAuY4YyJGA9DyelUvSUWa5kmgIUahwzf6Mp3YQ0kEpPST0B4EmAhQhxAUEIJADAXJdDqOMjxCAALmOGMiRgPQ8HnFJPMoqZyCpm+rRD1+p6ys2VL7u5nlO0rTJfl+JK82SDkrxIaFDCDQQoAghLCAAgRwIkOtyGGV8hAAEyHXEQI4EpOfxiEsjRFn1622T7XGPvlb3rk/3x71/+0J98/g79evMLt9zkqaNvVC7X07b6tOOdFCOMCR0CYEVAhQhBAUEIJADAXJdDqOMjxCAALmOGMiRgPQ8HnFplCirrCjq6r9l1VJVnOo8j2l+vpNSfc5tkg7KUYaETiFQI0ARQkhAAAI5ECDX5TDK+AgBCJDriIEcCUjP4xGXxoqyyqqiZhP0lrmnestcw4HftuLSUOc2SQflWENCvxCoEqAIIR4gAIEcCJDrchhlfIQABMh1xECOBKTn8YhLo0bZe/X2xYn6/i8/ql/n++Cuqpu//0Jt3buu2j8kt6u+/G56Q9eKpIW41Ha2k53z0kFpZxVXQSAsAYqQsHxpHQIQiIMAuS6OccAKCEAgLAFyXVi+tB4nAel5POJSnHEQlVXSQRmV8xiTLQGKkGyHHschkBUBcl1Ww42zEMiWALku26HP2nHpeTziUtbhZue8dFDaWcVVEAhLgCIkLF9ahwAE4iBArotjHLACAhAIS4BcF5YvrcdJQHoej7gUZxxEZZV0UEblPMZkS4AiJNuhx3EIZEWAXJfVcOMsBLIlQK7Lduizdlx6Ho+4lHW42TkvHZR2VnEVBMISoAgJy5fWIQCBOAiQ6+IYB6yAAATCEiDXheVL63ESkJ7HIy7FGQdRWSUdlFE5jzHZEqAIyXbocRwCWREg12U13DgLgWwJkOuyHfqsHZeexyMuZR1uds5LB6WdVVwFgbAEKELC8qV1CEAgDgLkujjGASsgAIGwBMh1YfnSepwEpOfxiEtxxkFUVkkHZVTOY0y2BChCsh16HIdAVgTIdVkNN85CIFsC5Lpshz5rx6Xn8YhLWYebnfPSQWlnFVdBICwBipCwfGkdAhCIgwC5Lo5xwAoIQCAsAXJdWL60HicB6Xk84lKccRCVVdJBGZXzGJMtAYqQbIcexyGQFQFyXVbDjbMQyJYAuS7boc/acel5POJS1uFm57x0UNpZxVUQCEuAIiQsX1qHAATiIECui2McsAICEAhLgFwXli+tx0lAeh6PuBRnHERllXRQRuU8xmRLgCIk26HHcQhkRYBcl9Vw4ywEsiVArst26LN2XHoej7iUdbjZOS8dlHZWcRUEwhKgCAnLl9YhAIE4CJDr4hgHrIAABMISINeF5UvrcRKQnscjLsUZB1FZJR2UUTmPMdkSoAjJduhxHAJZESDXZTXcOAuBbAmQ67Id+qwdl57HIy5lHW52zksHpZ1VXAWBsAQoQsLypXUIQCAOAuS6OMYBKyAAgbAEyHVh+dJ6nASk5/GIS3HGQVRWSQdlVM5jTLYEKEKyHXoch0BWBMh1WQ03zkIgWwLkumyHPmvHpefxiEtZh5ud89JBaWcVV0EgLAGKkLB8aR0CEIiDALkujnHACghAICwBcl1YvrQeJwHpeTziUpxxEJVV0kEZlfMYky0BipBshx7HIZAVAXJdVsONsxDIlgC5Ltuhz9px6Xk84lLW4WbnvHRQ2lnFVRAIS4AiJCxfWocABOIgQK6LYxywAgIQCEuAXBeWL63HSUB6Ho+4FGccRGWVdFBG5TzGZEuAIiTbocdxCGRFgFyX1XDjLASyJUCuy3bos3Zceh6PuJR1uNk5Lx2UdlZxFQTCEqAICcuX1iEAgTgIkOviGAesgAAEwhIg14XlS+txEpCexyMuxRkHUVklHZRROY8x2RKgCMl26HEcAlkRINdlNdw4C4FsCZDrsh36rB2XnscjLmUdbnbOSwelnVVcBYGwBChCwvKldQhAIA4C5Lo4xgErIACBsATIdWH50nqcBKTn8YhLccZBVFZJB2VUzmNMtgQoQrIdehyHQFYEyHVZDTfOQiBbAuS6bIc+a8el5/GIS1mHm53z0kFpZxVXQSAsAYqQsHxpHQIQiIMAuS6OccAKCEAgLAFyXVi+tB4nAel5POJSnHEQlVXSQRmV8xiTLQGKkGyHHschkBUBcl1Ww42zEMiWALku26HP2nHpeTziUtbhZue8dFDaWcVVEAhLgCIkLF9ahwAE4iBArotjHLACAhAIS4BcF5YvrcdJQHoej7gUZxxEZZV0UEblPMZkS4AiJNuhx3EIZEWAXJfVcOMsBLIlQK7Lduizdlx6Ho+4lHW42TkvHZR2VnEVBMISoAgJy5fWIQCBOAiQ6+IYB6yAAATCEiDXheVL63ESkJ7HIy7FGQdRWSUdlFE5jzHZEqAIyXbocRwCWREg12U13DgLgWwJkOuyHfqsHZeexyMuZR1uds5LB6WdVVwFgbAEKELC8qV1CEAgDgLkujjGASsgAIGwBMh1YfnSepwEpOfxiEtxxkFUVokH5ZUrvfy/vLzsdT83Q6AgQBGSZhwU+arPP/JHH3rcmyIBct1i1MgfKUYwNkPAjgC5zo4TV60XAfF5vC6kmYmvVwwN7o14UOrJ4d/+9jcvP377298qQtoLHTfVCFCEpBkSRb569uyZl/E7OzvkDy9y3JQyAXLdsrj0hz/8wWs4//SnP5E/vMhxEwRkCJDrZDjTS1wExOfxiEtxBUCM1ogHJeJSjGGQnU0UIWkOOeJSmuOG1eMRINchLo0XffQMATkC5Do51vQUDwHxeTziUjyDH6sl4kHpKS598cUX6ueff17DN4cX6kJ9pP+Pf5IEKEIkaQ/Xl6+4dHx8TP4YbhhoKSEC5Lr+4tIvv/xC/kgo5jE1TwLkujzHPXevxefxiEu5h5zZf/Gg9BCXSmGp8MZlW9zFxZl69eRAnRy/UW/mKDbV5vaW2n+4q26NrOhcnB2pJwd7Su1fqme3zGPV94qznSvq9rFS26cy/TXbe6Z2rtxW2gzLf9vq9PKZmuKxu3dzc1tt7T9Uu60DfKF++vOf1b/+y6k6frOIDLWpY+Naj9i4OFI3NvYqsbbq4qbu49rWvnq4e6tTUJzGxknFPnPclvGkw332b1NtH5r7shyIKC7zEZdKYYn80W8IyR8lP/1C4OxV7fnUf4sof1RHejLh+s//Mc1Nm4fq/PVuY+7JJX+4bosrhSXyB/nDpnaxqT+izx+6dj7StfPeopjQdfOhoW6+UGc7D9RBtd7WtdhhZy3WL6bqdyMuDcuT1tIgID6PR1xKIzDGtFI8KB3FpaqwZF3c6R/GnQdawKjoBk2MNw/P1evdsRSmC3V0Y0PtaRulxJ5cJofzsd4+VZcrqp2OjRsWsaHvfe2q+FmIS4s43FSH569VU/id7dzQImBb8GrB6PT1ihh5cXRDbRTB1BjoWqB7XQp0Y2ab/n27iktVYYn80Y8/+WMmcEeeP1YnXD+p//Hfr09+a1SLuJRT/nARl6rCEvmD/GEjLqVef6jOOqalbjHUPlK1NuJSv2eUu9MkID6PR1xKM1AkrRYPSgdxqSos/e53v7Ncll5Z3TJ7a3JHr2CZS0i1NzJSP3qrY5q7uNQurrTHfzm21dVM9av1qoKjJ+rB3vFkBdHy+C6Yq0/vq9Pv/0+9eq0iLl7oN2+vHqjbM5HGOTbmBVabfdq2i3P1ZC58NjA421FXiuVlqhCRnmsRaWZfEbf6vqlptfbn/a7es7MxWyXWKLRJZpph+nIRl6rCEvmjP/+4xKWR84f+bTl9/jC+/NEwzD89/kxd3/+f0780iUuZ5Q9bcakqLJE/yB+LldMD1B/R5o9KjaRzxenz2Qr/av2xkkOWa+7T5/pF1qRs0fXUUVlP+eRr95hDXHJnxh3pExCfxyMupR80oT0QD0pLcakuLH3//ffK/LW45R/GtuX/k5+9+UqPrkIhJP0UxaWyiOhTKPRpw0Zcmo7ZfHyrhVBF/Pm3vz9W//zBB80DPBd4HGPDKC6V3VXidEn0WfzvzcLWooirrnYrJ/2N91jbFDLWh2vbVlyqC0vb29vK/LU48kfXSPUXl/o8+6VlfdoYLn8stuo2EBstfzTYop//z/R2uJm01Cgu5ZY/bMSlurD08ccfK/PX4sgf5A+7+iPa/NFZLzTXH421ViUQOvPLcKXBpCXEpYGB0lwSBMTn8YhLScTFqEaKB6WFuNQkLBWQjOKSU1FvmMg37TnXb5v2529lVodt9ZwcfY0+h2O7dsZO2xaEle1xMxuqZ0YV+/m7bNBLY9TZk+V975tawHiut3id9z5zqc/ETnZyuFjaXRGIyvjQgtPbf/+j+qxNXJqf7eQoorkIOZXVAovtcWa+7oWa/YR61ERk2bmNuNQkLBXNG8Ul8odWZckfM3V6dn5ac/7oenGxWOEgnT/qD1H57H+qDk//qE5ud5+51KK0z87IcxTaLZ9n6cuK/GESl5qEpcJOo7hE/iB/lAHdVAtU6o9o80enjU0vROVfknblDMQl6YxKfzEQEJ/HIy7FMOxx2yAelAZxqU1YshGXnCfeeiJ1obdFrZy6pH9gb+itSc0n2DSfedN9Tk4hMi0OUrUSlzptaDmnqWvfuxaltq8dK/3RrB5nPJnFD3O092nDQSjpKu70trJ/e6tXLn3WsnLJ7ETzFS7ikm7BOV597rEuaH2dlr3PJC61CUs24pLzeJA/HAe/z7MfkThdbEs9L7d+OCLounzg/FHG86cHb9VP//wfxgO9G01bw/zRJS61CUs24hL5o+ODFtQfxQ/+bMt7xPnDauVSVTR3qMkGTJVtTSEuCUCmi+gIiM/jEZeii4HoDBIPyg5xqUtYMotLA71BqQo0S3vOdft6RdD06xm1N9Jt5+QUe8711zPKw5mXVyZ12btYflyuOpoKYF172G32vU/Dz/8A8XQmh81LtSvbFtSn+usnf9RfP7mzfG5KnyfUcXI4t9H6PCQ3/hc6Lh/MRFL/Me8DZPh7u8SlLmHJLC6RP+aH1U7OA2k6N4P8UX6EofgNmH51NNL8UV+lafG1uPrTuq75o01c6hKWzOIS+YP8sXiCzPVHvPmjFEmLF6LGM5fKmmf28lQfsjT5AvL8eyR8LW74IogWIVAjID6PR1wiBk0ExIPSQlwqDs8szliq/+veFuc28W7jUv1hbVq6PP97RRDofmPZtv2uvRg1iQ6Nfze9YZ4LYLGIS6bInKhgta+9Wbwlqx3KvSqqtHwtbvYZ8a27d9RueYi2hYlLlziKS/M3mR2fB6+2bzrboLx2HqOT/0ELofrrcru3XJ2J83obcanIH8UZS/V/3dviyB+Tg+TbYpH8MQunFPLHciz/8Z/+oT5wEJfWPX+YxKUifxRnLNX/dW+LI3+QP3TErEX9sfxStPocbG4f6iMWdher/St15+G1k9nL19XawfnjKJ7lByuXPMFxW9IExOfxiEtJx4uI8eJB2SIulauW2oSlAkZ4ccni7aNJxFkZNVdxqby+47yO2tuiYlWTeUl+82GMXUG2PMkwhKOlQLI4j8QivFvFJYt7C1lF3/9anzXV9O+nn/6s/uNf/6WlGNJvFQ/31XOtyKxsmezqOqS4VFkdtzijqckYHT96tdzJO/23N29mWztrX5GzwxflVW3iUrlqqU1YKpwJLy6RP6pBs87540Kfh/fqyUGU+aP+WzCZcFmLS+ufP5rEpXLVUpuwVMR1eHGJ/EH+KAiMXH/oOmbnQWX10bK6pA71qtbdsjCqvHSYWD4733O+0r515X6Y8gJxKQxXWo2bgPg8HnEp7oCIwTrxoGwQl2yEpYJVeHHJ4u2jUUCYfm7+/FypX16+1JN8fXbT7PCm5bc3bYVkZXubMUDKQ1YtilLdluvXnsJODh0Pu52wsGAzW4Fk2q6yVIQUZ+ecv1KvXp6o6uHpras42sbFGBu1G8vCzLQtbn7+VvN5X516l16m/qA4yFdftA5b45rEJRthSUZcIn/ITQ7HzR9Lz1xE+aNpVaubuLScTYqPVKxb/qiLSzbCkoy4RP4gf5QvhAqlZnFOp7EULC4Yov6oHAvRLhRVcm9FXGpbndS02t/KH4+LEJc8oHFL8gTE5/GIS8nHTHAHxIOyJi7ZCktmcclOYOkGarHtai5wLH89Z3I+xcFCSGrqJ7y41D3hchWXVn2wKH6NEdunDZvxMRowuaCrCGk8a6T2hq7ay1y0cSzuTNsfp/XiDbWx13DOl52bk6tst9M5NDnapXVxyVZYKgzuXrlE/th7Q/4YIrBHyx8t+aePuLSO+aMqLtkKSwWH7pVL5A/yxxDZQ/9eN52VKFR/mFbAr9QsNiuqHeuiPhQRl/rQ495UCYjP4xGXUg0VObvFg7IiLrkIS2ZxyWZrWI3r7IdxsY/cQvjo/ApZ0b5e0rx5TV279on65O7H6s7Ghnr1YEMV+oCbuOTyZt6usM1bXGo4h+SD9q/FtRdRq8+mr7hkOqtrcRi8Syw05A7B4i505qqKSy7CkllcIn8UOaprdRv547Y6rn/MoSXgx8gfbV8hbTTRZVXEmuWPUlxyEZbM4hL5g/zR9etnUVtWbh8jfxQfjJl+sMDiSIbii5mX+qMPNrnB5pqBCgfEpYFA0kxSBMTn8YhLScXHKMaKB+VMXHIVlmzEJddlwavLdS1EmpUzl9rOVCqH0/fMJbdtTKY3TovCwa3d5aB0K5CaA7pPG31WLi2Pw7//8Z/UBy7iks3T6VJEza9tKuQqX7Urvtz1Whdxrf1bxKyLXTZ+jnhNKS65Cks24hL5oy6AVwfaIs6McdHn2S8b79PGcPnj9fzQkWanbVYlrtzp8pw25A8/ccliXF3sMsbAuBcU+aMQl1yFJRtxifxB/miPblOduHznGPljceyAg7hUOaqg9cWE8zml/jkCccmfHXemS0B8Ho+4lG6wSFkuHpS6uCsOzfz5558n/7/pq3BtvnefuVTcVZ2Ud+9XL5YebxRfR6q9ie7+Wlyl/fk5OYYJy/y8HNuVS4s3oMYvN1XfPs+XJy9v15uzjO5rTz6rcfpMDpe3mB28/Xf16LO2lUuLs52cvnJiPQlriqOFGHm2s6GmoWl35oLpTAPT36VyzRD9FPmqmj+avgrX1k/3tjjyx+RrT+Ub6TpE8ofDFtUx88dq9Ju2xZnyg+nvQzzXUm3U80fTV+HabOneFkf+IH90R7H9Fvfx8ofpWW/aYm+6x/T3IZ99xKUhadJWKgTE5/GIS6mExnh2igelnhwW/1yFpeIes7hU6EtH6sbG9ABjvT9Nbe8/Vw/1p+XnX/3SX/k5qnzlZ0U8WLr/UJ0+31WTL9PrQ1uPnjyYfR2oKoxUDpnWgtO5/jrZ/EsZR0/UwZ4+h2k2vK3b4g7P1bPqm/A2GwozKvvx29rTn+zQduvVLhND9GHV2o4HFTv8D3bus2qgjPE+bfQTl5bER/WpxvR/qecP9XgtgkPzfaWeHJRfSmkR6toeV6O4pMfC0L7X+Uiuh3COl25691zkqzJ/uAhLxT1mcYn8MT3ei/zRHKgVUbjY/rytvygZWf5ostskLlV/M60O8e39FI/XQDV/uAhLhcVmcYn8Qf7oiu0E8kf1gG7bL78t1R+Hav/hrGbWtedgW/stUwbikiUoLlsrAuLzeMSltYqfIM6IB+Vs5YHLiqXScStxaaKndHxKtUKx9VP1ldVGq9BXv9jVuR1Brz453TpRt6cHEqhLLT7NZZadK9MVKrN/S2JRpw3TT76+rrQ1aUILZzsbxbkgDf+0HYfX9rQ41mdb3BAhOKa4NIE0O1fA4MvSBNvS76ooaLylaeWWxdfwynZrsbRYidc4+Dr0nqtnU7Ux6X/lygNXYalw2kpcIn+QPzqfkJjzR7PhRnFp8tNRruTNI3+4CksFFStxifxB/kg8f5i21zau5jbUq/4vNN3KFcQlN15cvR4ExOfxiEvrETghvRAPytrX4lx8sxaXJo2Wq0RO1PGbcu1Q8b8Xb5y3Km9XWiwohJoHB0v3Fgd/L97KLN+38rW42aqpyYS+dc+5nqjslKuhdHv1T9LPVlmdHFc/T7utDvcfqt1WoWD6tuigck/5Nvp8JmZJ/dA3kx1bXJpa9dNPf1b/8a//opbYFtGhRaUtzfdOdbWbbZBaiEud7Xd8EWbFhHqsTEK+HrOWsW7rXwTX1b8W52KStbhE/iB/GALrQj9rr/QK2KjyR4vNNuLSNOTzyB/Vr8W55A9rcYn8Qf5IPH8U+e1Jvf6d1UattWdDvVrUO/vzVfQuT5vftYhLfty4K20C4vN4xKW0A0bCevGgFBOXJOjRR6oEKELSHDk5cSlNPlgNgToBct2CSHmgt0+UuIlLPj1wDwQg0IcAua4PPe5NlYD4PB5xKdVQkbNbPCgRl+QGl55aCVCEpBkciEtpjhtWj0eAXIe4NF700TME5AiQ6+RY01M8BMTn8YhL8Qx+rJaIB+XsQF5fHjqmfW/lPgjMCVCEpBkM5YG8vtaTP3zJcV+qBMh1y+JSn3Ekf/Shx70QCEuAXBeWL63HSUB8Ho+4FGcgxGSVeFCycimm4c/WFoqQNIeelUtpjhtWj0eAXLcsLsmcuTTeeNMzBHIlQK7LdeTz9lt8Ho+4lHfA2XgvHpSISzbDwjWBCVCEBAYcqHnEpUBgaXZtCZDrEJfWNrhxDAIVAuQ6wiFHAuLzeMSlHMPMzWfxoERcchugUa/WX9xTH+n/W79/FCFpjiniUkrjtr75I6VRINchLqUUrwtbyR9pjtt4VpPrxmNPz+MREJ/HIy6NN9ip9CwelCHFpcqn4DcPz9Xr3S5ZRH92+cptdaw21eH5a9V5aSqDOaCdF2dH6snBnlL7l+rZrQEbbmnqbOeKun2s1PapTH/NRUgZE7b+bqvTy2dqisfu3uLTvFv7D1Xr2AVehgAAIABJREFU53y1nHdx9kqzP1HHb94sDNncVJvXttT+w111y0ftqzwbbd5t6j6ube2rh7u3OgXFaWxU7dO2bXfbVsbT8dylTbV9aO6rbmtQcYn8YRv4xuvWPX80A7DLAYt788wfK+zK527zUJ2/3m3MPUPmj2Db4sgfxrxgewH5w4ZUpvnj4kwdPTlQe4tiQtcfh5Pa6NN/+of64IMPGuBdqLOdB+pA37MoQbbVYWctZjMGXAOB8QmIz+MRl8Yf9NgtEA9KIXFJGUUjxKX22LxQRzc21J7+FZYSe3IRl+bMt0/V5Ypqp2PyhhY8K5pS0xht6ntfuyp+FuJSRclqFVzPdm5oEbDNQC0Ynb5eESMvjm6ojSKYmp1Rp69Lgc6cLaXEJfKHeSxyzh9jiUup549VbovfGtUiLg2dPyTEJfIH+cOdQHhxOvn80VnHbKqDt/+uHn1WE5cMtY/5RbT7SHIHBCQJiM/jEZckhzfNvsSDUkxc0uPR8SZ0sdKElUtdBX+e4pJPTJSFYfVtYp2sXpV09EQ92DuevD1bLmqqkyzdxvOHeoVSZYnShX7z9uqBuj0TaZwLonmB1Waftu3iXD15UIpbDQzOdtSVYnmZFm63T59rEWlmX/EmUd83Na3W/rzf1Xt2NoqVg8UtTUJbcz6VE5fIH/6/aOsvTneLS3Hlj8kqzf/8z/HzRwO0JeGo6fc6QP6QEZfIH+QPVwJ9XnhmUH/oVd3lS8+itj99PlvFXa0/Pj1Q5z89qqx+rAh2etX46XP9ImtStuh66qisp3zytevYcj0EwhEQn8cjLoUbzHVpWTwoJcWllQl8ddT6/JCvy+i3+ZHi5NBtPLu3xfkUGzbF3ZT3fEJVnUwZxZ/ZWM0Fni4Rq3EWp25s7GlRy3RfpYBbEn0W/3uzsLUo4qqCZLkirfEeW58r7oiKS+QPz0S3/vljHHHJL38s5brR8kdXTpr9rUFcCpE/xMQl8gf5w4mAWw2z3PS61x+TwqmjhmmuPxprrQq4zvziNHZcDIHxCIjP4xGXxhvsVHoWD0oRcUnvpT58p/YmSynahALDD3nTvm795mN//uajMsJLZ0bcUed6dcrBbHXK5Cp9X9fe7pXzJPTZN9v7lZUh9WBysW127+o5OYVdup/aGTttWxBWVjDNbDip7GEvzhNq5FPaX6y+ebK8773Y4vVcb/E6733mklthNqa41FgklZO+ztV2BUg3P+eh4yLkVFYLLM4jM/frXqjZF8SlHzLiEvljNeXUz9nKO3+MKS655o/lXGd+jht9650/6q1W7DjdUie3tfBtzH1tbZgE88V9Rf4ILy6RP8gfPjMAz2dz0pXDb2nTsxx9/VG4OFs53Zgnml5oyL/k8Bl17oFAXwLi83jEpb5Dtv73iwelkLh0evlQ/TI7N6h5e1zHD7n+Ebuht/80nxLTcK7MXFza1utCjlvPzGlavdF1nkTjag9X2ya/yV3n5BSTxMVBqlbiUqcNLec0de1716LU9jXNrdeB3m6FWbTiUrGy6Lxcuj1g/nGZHE5iZnrAusv2O+d7rAva5cnhs2fPvMDs7Owo/ZvYfu8SI/JHCYr8YRtubjloudWBJocN+WOQLygNnD+WcsWdV9MVCa7ikmf+kBCXqD8W0U3+SDt/2Frfed0Q+cNq5dKn+rzIn2Yf6HHIqYM4SSMQGIeA+DwecWmcgU6pV/GgFBOX9AS98+stLROBqgiytK9bvwXRq26mX6iorYaqCSebh3o1TvnFLavzaIpJfHlPdS942/k1U0Fosee8w7a2c3KKPef66xnl4czLK5O63vgslh+Xq46mJ+907WG32fc+fWr8z3hym9iNKS41L9WubEfT8TX9+tqd5XOX+iQWx+JubqP1eUhu/C90XD6YCbguYy61cmnyFUDyx+Jtcf2crczzR/Oj6PYM+IpLrvljDHGpM3/URSGLr8XVeffJHzLiEvljMmbUHw6/2nHmDwcHLF/cmD/g0ZY/SlHa6sylWl7RhyxNvoA8/x6JYUfBIH7TCAQECIjP4xGXBEY18S7Eg1JSXCokj/mXqurb45p/yKs/Xk2fRZ7/vTrpNn2CuHGbUcW2lQl8s7jjY1v3apK2c3TaxSWT6ND4d9Mb5nkBGou4ZPFQr4yZxVuy2qHcq6KKbqPpa3F6++LmtS21dfeO2i0P0bYwcekSR3Gpewn6auemsw3KO+YxPPkf9DOpvy6ndVjrf6LiEvnDsIIt3/zRLS5ZhLNk/vj0U7X5X/8YSf5o+N11EJeGyB9i4hL5g/xhkQoWl1Rewpnuk8wfUdUfyy9Fq5g2tw/Vt4//qD77YPa1uErdeXjtZPZieBWsy+ps07DwdwiMQUB8Ho+4NMYwp9WneFAKi0vFiprqFyYWglGTuGSxR7tJKGkRj1aLhqrAZdHXsjow96N1pYdJxFkJTdfJYXl9x4HXDRMF83ap5sMYu56k5UmG4Zlr2G7RvXLJ4hluLe4s7i1kFX3/a33WVNO/C73a7dWTg5ZiSAtNh/uLlXF23RkOw2xoxCWWKm+nF2c0NXqmjvRquZN3+m9v3sy2nda+ImfwR1pcIn90DUi++SOcuGT3QKeaPxp/C6zFJR1vA+QPSXGJ/EH+6P5qcZXPEOLSeueP4ry5nQeV1UfL6pI6+PaxevRZTVyaXbOy0r515b4dQ66CQCwExOfxiEtjDv179fbFifr+Lz+qX3+d2XH1qrr5+y/U1r3r6sMBTHv/9oU6+f4v6sd5B0pdvXpT/f6LLXXvul0P4kEpLi5p0I0ri5rEJYtlyU0rQIyrQjz7WooRT9tqAlXxufnzc6V+eflST/L1uVKzg6WW3960CV8Oxc/8q2R2Ilo56bDdIhVWXOrztbiOB3v2BtBpu5te7XRx/kq9enmiqoen2xesM3uMMVqzuxSMTNvi5udvNZxFZshxxSHzD4qDfPV1tuMuLy6RPxbDqGOR/NER1RY5uvVui9zqmT9++vnP6j/+79PR80frqldrcWkZnm/+kBWXyB/kj8WZlt0/iXHmj2jqj2odP/sQzPxIhrlQVDlzqbIivm11UuNOhAHmZjQBAUkC4vN4xCXJ4a309f6t+vbLx+rH1u5vqkdPv1KW+k9DK+/Vi90v1XelaNVwxdWbj9TRV9eNAMSDcgxxaVLf3VAbS1+P6xJ8ur4+07D9yThxH1JccrSt8L043+ZgISQ1BUV4calbsHEVl1Z9cCvMxjxzyfhQdlzQeNZIpYiq3zoXbYwxWpu4lc9Lh7jUvuXU3kPb7XRli6OIS+QP8odVSLvloOUmLbbVWtmwelE1142WP7ryj6e4VHjqkz/ExSXyB/nD6tmNM39UTR8tf2gjTCvgV8RrmxXVjnWR1TByEQSECYjP4xGXhEd40p1Z+JlcdvW+enp0z2MFk2X7ky6eqqN73SuYxINyJHFpdXn6x+rJldv6225V0cPixz21lUtLwoPeUrV5TV279on65O7H6s7Ghnr1YEMVmpubuOSysifMyqX1Epcs4q7icHsRtUrFV1wyndW1OAzeJRYa8rFjcTeWuET+KMaO/NFdUbg9x8OJS9391oX0MfJH11dRV5i6fDXOI3+MIS6RP8gf5tlInPmjbvcY+WPx/HQfyfCZ/urk/yxXzdvkBptrzAPHFRAYlYD4PB5xSX6837/YVV+WS4r0FrX7X+stah9OBZ5iG9s3j79T811yFuJP3YOl9pXeZvfoa/XVfAnUbCved3or3uRGvULqB71CqgODeFCOJi5pCEvb4w7VtT29d3tJXLIQQjrPXGpbVeR5vtPSuPnY1nYmStmw75kp9tuYip5Mb5yqhbft9qj1EpdM47TsrelQ9cbH3aWI6jxDrHqGmY73111ffrGIWRe7tGPjiUvkj9e7000Ii3/55o/mn9SxJofd+cMoLtmUSS7PaUP+8BOXwuSPccQl8gf5w/SgxZk/6laPU39YsNF5Z0lcUhZnebqcLWkaPv4OgZEIiM/jEZekR7q6qqhN2NFb5j6fbZlzXr1Ua79la91CgLqq7j890uJWOwfxoBxTXJrUd+X2uJLJ8puQ7i+yVSbWjV+LcxGXFqKLPnBGXdYOd276AXe3zbDVYn5eju3KpYrNbW+Xm36s56unWvhE97U4n9U4/ba12G8xWxRMTl85sZ4ctsT45HEpvtSyoW4f6/9oubrAdKaB6e/1zDWquET+WB6OjPNHXOJS11dRlVoWl8bMHy11SMe2OFN+MP29KX+MJi6RP8gfnVMSCwGl9f71rz9Mz3rTFlnTPaa/S88g6Q8CPgTE5/GISz7D1OOe9y/U7pfTlUldW9JcxJ8layrt33z0g16x1MPW2a3iQTmyuLS0PH3CoCYkVFY3FRPo0+e7avL1d32w8tGTB7MveLXd4yYuLa+kOp1/Aaz1oFJn2yqHxGoB61wLWPMDEI+eqIM9fQ7TLA5at8Udnqtn1RULbTYUiIqznbTyULTZ1p7+TJpmqle7TAzRBwRrOx5U7Mhz5dKUxfyrhsX2o239RbiHerzmi0U0q7NX6slB+aWUrrO3GvKCUVwyt+96vsnECqtDOO3FvLHFJfLHNFbPMs8fzb+8400Ou/LHVFz6z9HzR2u10nXmUoD8Maa4RP4gf7RX7XHmj6m95vqgczYyQP2h32ypK5M3W9Ov7T6v1rNtX35byh+Hav/hrJ6fvCh7oF+UTapV1f2V2/7zLFqAQEgC4vN4xKWQw9nQ9ttv1eePi2O8DSuGLEWoeg8LUcq83c3Wc/GgHF1cWp7wNv6wVN7Ir3Js+CqW8YezvWjo3C7QdJiyo22d7Rfi2daJul0culTrq/41tiWxqNOG6Q//69pKLD2zUTsbxRlXDf+0HYfX9rRw57bdzjbGm66L80DvqsDU4d2SQGdJoSoKGm9pKrYsvmZVtluLpUJ03JgVhc3P03P1bKo2Gv+NLy6RP+aDlHH+aA7UMSeHhUUx54+OR9twoPfQ+WNccYn8Qf5oexbIH1My7WKPaXvtpwdv1U+PPlsGbKhX/V9oGssVLoCACAHxeTziksi4zjuxF38WW+NsDt0uO3j77edqql3NDgN/r89YOvlGff/jr4tznPQ5T1/oc56uz855MhEQD8oYxKVJfVf/elyNVCGGPDhQx2/KtT2FaFJ981G5voe4NJkS6E+yL1akFL+tWsDa75hwu9g2ab/2tbhq+617zvVERb/Z2Zu82dH/6kKXtuHoyUHt89bb6nD/odptFQqmb4sOdJvzFVOzN1DnO1cm262kfujjFJemqC8021d1tpOw2FZbmu8dzddOimmK0faM0Nl+xxfpVlpsEkVXYrZYnbVVeZNoylTTv0chLpE/Fvkp0/zRHK1jTw4jzh9dj7fN1+IGzB+ji0vkD/JH4/NA/rCpb4r66Em9Np/VRn/89J/0Ks0PVuk21KtFvbM/X0VvV39wFQRiJCA+j0dckg2DufhjPEi7cu7SzUfqB6v9bZXzlop7Nt+oXa00lYeD1z21Fa3EgzKkuCQ73PSWMIFmcSlhhzIxPai4lAlD3MyLALluMd5F/ggmLuUVVngLgegIkOuiGxIMEiAgPo9HXBIY1UoXKyuLWruvCUWu4tLVq+rqr4vVSm3d2AhMRVD+/e9/FwP1m9/8Rv3tb3/z6u+3v/2tqK1eRnITBCAQjECRP549e+bV/s7ODvnDixw3QWA9CBT5o4+4JFkrrQdxvIAABCAAgZAEit81rfeE7GKp7SuIS2KsJx2JiUulW3oL3KPqFrj3b9WLk+/Vd3qb3PSf+WwmccVTi1l9/kk+QH3s5N64CfCGK+7xabOuyFd9/pE/+tDj3hQJkOsWo0b+SDGCsRkCdgTIdXacuGq9CIjP4xGXZANIVFwqz11qcHFx9pOWlwxflZMOStkRoTcINBOgCCEyIACBHAiQ63IYZXyEAATIdcRAjgSk5/GsXBKOMrEzl7Rf3aKR/ZlO0kEpPCR0B4FGAhQhBAYEIJADAXJdDqOMjxCAALmOGMiRgPQ8HnFJOMrCfi2uck6Tcbub/ZlO0kEpPCR0BwHEJWIAAhDIlgATrmyHHschkBUBcl1Ww42zMwLS83jEJenQe/ut+lx/wU2pq+r+0yN178MWA96/ULtffjf50ptp21q1hcXKKEP7CnFJeujpLy0CFCFpjRfWQgACfgTIdX7cuAsCEEiLALkurfHC2mEIIC4NwzHeViqiUdeX2hYrnEwiUc3VuXhlEKUs7Shalw7KeAcPy3IiQBGS02jjKwTyJUCuy3fs8RwCOREg1+U02vhaEpCex7NySTz2bLauVc5D6jiUu9H0imjU9SW4xQon88oo6aAUHxI6hEADAYoQwgICEMiBALkuh1HGRwhAgFxHDORIQHoej7g0QpRVv9Q22R736Gt17/p0f9z7ty/UN4+n2+GKf12rm9pMrwpH9fZ1B+rFyffqux9nPViIV9JBOcKQ0CUEVghQhBAUEIBADgTIdTmMMj5CAALkOmIgRwLS83jEpVGirLIyqav/FuGnKk41n8dk2b7u2+Y8J+mgHGVI6BQCNQIUIYQEBCCQAwFyXQ6jjI8QgAC5jhjIkYD0PB5xaawoW9q+1mTETfXo6VdqtqBp6QKzuKQv1yuUvv3msSoXKK32cFULS1+rr5o6qF0sHZRjDQn9QqBKgCKEeIAABHIgQK7LYZTxEQIQINcRAzkSkJ7HIy6NGmXv1dsXJ+r7v/yofp3vg9Oiz++/UFv3rqv2D8ntqi+/m97QvfKooX29De/qzd+rL7buNQpXTTikg3LUIaFzCMwIUIQQChCAQA4EyHU5jDI+QgAC5DpiIEcC0vN4xKUco8zRZ+mgdDSPyyEQhABFSBCsNAoBCERGgFwX2YBgDgQgEIQAuS4IVhqNnID0PB5xKfKAiME86aCMwWdsgABFCDEAAQjkQIBcl8Mo4yMEIECuIwZyJCA9j0dcyjHKHH2WDkpH87gcAkEIUIQEwUqjEIBAZATIdZENCOZAAAJBCJDrgmCl0cgJSM/jEZciD4gYzJMOyhh8xgYIUIQQAxAQInC2o668vKsun90S6pBuqgTIdcQDBCCQAwFyXQ6jjI91AtLzeMQlYtBIQDoojQZxAQQECFCECECmi7wJFKLS7WO1vb2t3n3yibq2t6feHZ6r17sf5c1F2HtynTBwuoMABEYhQK4bBTudjkxAeh6PuDTygKfQvXRQpsAEG9efAEXI+o8xHsZB4Gznirp9vK1OL58p1i7Jjwm5Tp45PUIAAvIEyHXyzOlxfALS83jEpfHHPHoLpIMyeiAYmAUBipAshhknxyZQrF46+EQdXttTe+qUrXEjjAe5bgTodAkBCIgTINeJI6fDCAhIz+MRlyIY9NhNkA7K2HlgXx4EKELyGGe8HJdAsWrp5d1L9WzjSN3Y+KvaZ/WS+ICQ68SR0yEEIDACAXLdCNDpcnQC0vN4xKXRhzx+A6SDMn4iWJgDAYqQHEYZHyEAAXIdMQABCORAgFyXwyjjY52A9DwecYkYNBKQDkqjQVwAAQECFCECkOkCAhAYnQC5bvQhwAAIQECAALlOADJdREdAeh6PuBRdCMRnkHRQxkcAi3IkQBGS46jjMwTyI0Cuy2/M8RgCORIg1+U46vgsPY9HXCLmjASkg9JoEBdAQIAARYgAZLqAAARGJ0CuG30IMAACEBAgQK4TgEwX0RGQnscjLkUXAvEZJB2U8RHAohwJUITkOOr4DIH8CJDr8htzPIZAjgTIdTmOOj5Lz+MRl4g5IwHpoDQaxAUQECBAESIAmS4gAIHRCZDrRh8CDIAABAQIkOsEINNFdASk5/GIS9GFQHwGSQdlfASwKEcCFCE5jjo+QyA/AuS6/MYcjyGQIwFyXY6jjs/S83jEJWLOSEA6KI0GcQEEBAhQhAhApgsIQGB0AuS60YcAAyAAAQEC5DoByHQRHQHpeTziUnQhEJ9B0kEZHwEsypEARUiOo47PEMiPALkuvzHHYwjkSIBcl+Oo47P0PB5xiZgzEpAOSqNBXAABAQIUIQKQ6QICEBidALlu9CHAAAhAQIAAuU4AMl1ER0B6Ho+4FF0IxGeQdFDGRwCLciRAEZLjqOMzBPIjQK7Lb8zxGAI5EiDX5Tjq+Cw9j0dcIuaMBKSD0mgQF0BAgABFiABkuoiKQJHrc/53eXmZpfvkuiyHHachkB0Bcl12Q47DmoD0PB5xibAzEpAOSqNBXAABAQIUIQKQ6SIqAjnn+px9J9dF9RhiDAQgEIgAuS4QWJqNmoB0fYO4FHU4xGGcdFDG4TVW5E6AIiT3CMjP/5xzfc6+k+vye9bxGAI5EiDX5Tjq+Cxd3yAuEXNGAtJBaTSICyAgQIAiRAAyXURFIOdcn7Pv5LqoHkOMgQAEAhEg1wUCS7NRE5CubxCXog6HOIyTDso4vMaK3AlQhOQeAfgPgTwIkOvyGGe8hEDuBMh1uUdAnv5Lz+MRl/KMMyevpYPSyTguhkAgAhQhgcDSLAQgEBUBcl1Uw4ExEIBAIALkukBgaTZqAtLzeMSlqMMhDuOkgzIOr7EidwIUIblHAP5DIA8C5Lo8xhkvIZA7AXJd7hGQp//S83jEpTzjzMlr6aB0Mo6LIRCIAEVIILA0CwEIREWAXBfVcGAMBCAQiAC5LhBYmo2agPQ8HnEp6nCIwzjpoIzDa6zInQBFSO4RgP8QyIMAuS6PccZLCOROgFyXewTk6b/0PB5xKc84c/JaOiidjONiCAQiQBESCCzNQgACUREg10U1HBgDAQgEIkCuCwSWZqMmID2PR1yKOhziME46KOPwGityJ0ARknsE4D8E8iBArstjnPESArkTINflHgF5+i89j0dcyjPOnLyWDkon47gYAoEIUIQEAkuzEIBAVATIdVENB8ZAAAKBCJDrAoGl2agJSM/jEZeiDoc4jJMOyji8xorcCVCE5B4B+A+BPAiQ6/IYZ7yEQO4EyHW5R0Ce/kvP4xGX8owzJ6+lg9LJOC6GQCACFCGBwNIsBCAQFQFyXVTDgTEQgEAgAuS6QGBpNmoC0vN4xKWowyEO46SDMg6vsSJ3AhQhuUcA/kMgDwLkujzGGS8hkDsBcl3uEZCn/9LzeMSlPOPMyWvpoHQyjoshEIgARUggsDQLAQhERYBcF9VwYAwEIBCIALkuEFiajZqA9DwecSnqcIjDOOmgjMNrrMidAEVI7hGA/xDIgwC5Lo9xxksI5E6AXJd7BOTpv/Q8HnEpzzhz8lo6KJ2M42IIBCJAERIILM1CAAJRESDXRTUcGAMBCAQiQK4LBJZmoyYgPY9HXIo6HOIwTjoo4/AaK3InQBGSewTgPwTyIECuy2Oc8RICuRMg1+UeAXn6Lz2PR1zKM86cvJYOSifjuBgCgQhQhAQCS7MQgEBUBMh1UQ0HxkAAAoEIkOsCgaXZqAlIz+MRl6IOhziMkw7KOLzGitwJUITkHgH4D4E8CJDr8hhnvIRA7gTIdblHQJ7+S8/jEZfyjDMnr6WD0sk4LoZAIAIUIYHA0iwEIBAVAXJdVMOBMRCAQCAC5LpAYGk2agLS83jEpajDIQ7jpIMyDq+xIncCFCG5RwD+QyAPAuS6PMYZLyGQOwFyXe4RkKf/0vN4xKU848zJa+mgdDKOiyEQiABFSCCwNAsBCERFgFwX1XBgDAQgEIgAuS4QWJqNmoD0PB5xKepwiMM46aCMw2usyJ0ARUjuEYD/EMiDALkuj3HGSwjkToBcl3sE5Om/9DwecSnPOHPyWjoonYzjYggEIkAREggszUIAAlERINdFNRwYAwEIBCJArgsElmajJiA9j0dcijoc4jBOOijj8BorcidAEZJ7BOA/BPIgQK7LY5zxEgK5EyDX5R4BefovPY9HXMozzpy8lg5KJ+O4GAKBCFCEBAJLsxCAQFQEyHVRDQfGQAACgQiQ6wKBpdmoCUjP4xGXog6HOIyTDso4vMaK3AlQhOQeAfgPgTwIkOvyGGe8hEDuBMh1uUdAnv5Lz+MRl/KMMyevpYPSyTguhkAgAhQhgcDSLAQgEBUBcl1Uw4ExEIBAIALkukBgaTZqAtLzeMSlqMMhDuOkgzIOr7EidwIUIblHAP5DIA8C5Lo8xhkvIZA7AXJd7hGQp//S83jEpTzjzMlr6aB0Mo6LIRCIAEVIILA0CwEIREWAXBfVcGAMBCAQiAC5LhBYmo2agPQ8HnEp6nCIwzjpoIzDa6zInQBFSO4RgP8QyIMAuS6PccZLCOROgFyXewTk6b/0PB5xKc84c/JaOiidjONiCAQiQBESCCzNQgACUREg10U1HBgDAQgEIkCuCwSWZqMmID2PR1yKOhziME46KOPwGityJ0ARknsE4D8E8iBArstjnPESArkTINflHgF5+i89j0dcyjPOnLyWDkon47gYAoEIUIQEAkuzEIBAVATIdVENB8ZAAAKBCJDrAoGl2agJSM/jEZeiDoc4jJMOyji8xorcCVCE5B4B+A+BPAiQ6/IYZ7yEQO4EyHW5R0Ce/kvP4xGX8owzJ6+lg9LJOC6GQCACFCGBwNIsBCAQFQFyXVTDgTEQgEAgAuS6QGBpNmoC0vN4xKWowyEO46SDMg6vsSJ3AhQhuUcA/kMgDwLkujzGGS8hkDsBcl3uEZCn/9LzeMSlPOPMyWvpoHQyjoshEIgARUggsDQLAQhERYBcF9VwYAwEIBCIALkuEFiajZqA9DwecSnqcIjDOOmgjMNrrMidAEVI7hGA/xDIgwC5Lo9xxksI5E6AXJd7BOTpv/Q8HnEpzzhz8lo6KJ2M42IIBCJAERIILM1CAAJRESDXRTUcGAMBCAQiQK4LBJZmoyYgPY9HXIo6HOIwTjoo4/AaK3InQBGSewTgPwTyIECuy2Oc8RICuRMg1+UeAXn6Lz2PR1zKM86cvJYOSifjuBgCgQhQhAQCS7MQgEBUBMh1UQ2H0ZiiJhv63+Xl5dBN0h4EoiNArotuSDBIgIB2ITdgAAAgAElEQVT0PB5xSWBQU+9COihT54X960GAImQ9xhEvIACBbgLkurQiBHEprfHC2ngIkOviGQsskSMgPY9HXJIb22R7kg7KZEFh+FoRoAhZq+HEGQhAoIUAuW79QqMUoFiRtH5ji0f+BMh1/uy4M10C0vN4xKV0Y0XMcumgFHOMjiDQQYAihPCAAARyIECuW79RRlxavzHFo/4EyHX9GdJCegSk5/GIS6PGyHv19sWJ+v4vP6pff50ZcvWquvn7L9TWvevqwz62vf1Wff74R2MLV+8/VUf3unuSDkqj0VwAAQECFCECkOkCAhAYnQC5bvQhGNwAxKXBkdLgGhAg163BIOKCMwHpeTzikvMQDXTD+7fq2y8fq3b556Z69PQrdd1TYXr/Yld9+V2pWLXbjLg00HjSzNoRoAhZuyHFIQhAoIEAuW79wgJxaf3GFI/6EyDX9WdIC+kRQFxKb8w8LH6vXux+qYzaz9X76unRPa8VTG+//VxZLFxSiEsew8ctWRCgCMlimHESAtkTINetXwggLq3fmOJRTwJnO+rKv/0f6vL5P/dsiNshkBYBxKW0xsvL2qVVRVdvqvtfb6l7H06XKL1/+0J98/g7Nd8lZ7FtbdWIinh185H64avrXnaWN0kHZS9juRkCAxFgwjUQSJqBAASiJkCui3p4vIxDXPLCxk3rSKAQlW4fq+3tbfX//Jf/ov7r/r56d3iuXu9+tI7e4hMEVghIz+PZFicehNVVS3rr2w9669uKDXrL3OezLXNeq5cW99989IPqqS0p6aAUHxI6hEADASZchAUEIJADAXLd+o0y4tL6jSke9SNwtnNF3T6+r04vn6tb/ZribggkRUB6Ho+4JB0e71+o3S+nK5O6tqQtVjddVfefHumVTQ6Gzg/z9ri3oRvpoHTwlEshEIwAE65gaGkYAhCIiAC5LqLBGMgUxKWBQNLMehAoVi8dfKIOPtpT+//Lqbp8hry0HgOLFzYEpOfxiEs2ozLkNbbCj6UI1WTaQphqWxnl5pB0ULpZx9UQCEOACVcYrrQKAQjERSC3XFcKL0OOwuXl5ZDN9W4Lcak3QhpYIwLFqqWXdy/V4//1sfrv1/9ftX/5jNVLazS+uNJNQHoej7gkHJH2ws9ia5vNodtVN+aHeU+21P039f99+436/sdfF+c43byvvti6Z/0lOumgFB4SuoNAI4HcJlyEAQQgkCeB3HId4lKecY7XEMgt1zHiECgISM/jEZeE427xFTfTqqLKuUtOh3JXznS6elVd/XUhKtVdtRWtpINSeEjoDgKIS8QABCCQLQEmXM1Dn/Lqn5Rtz/ZBxPHgBMh1wRHTQYQEpOfxiEvCQbC8quieaj9KyfeLbxVRysI3G4GpCMq///3vFq1xCQQgAAEIQAACEEifwG9+85uJEynWPynbnn7k4AEEIACBeAgUvweSW7cRl4THPri4VDmrSV29qe5/saX+2/UPFyLW+7fqxcn36ju9TW76z7SCSn45nfCQ0B0EGgnwhovAgAAEciBArmse5ZRX/6Rsew7PHD6OQ4BcNw53eh2XACuXxuUfvPfg4pKlB4vteVpeevSD+up6+43SQWnpApdBICgBipCgeGkcAhCIhAC5DnEpklDEDAgEJUCuC4qXxiMlID2PZ+WScCCEP3PJ1iH7M52kg9LWA66DQEgCFCEh6dI2BCAQCwFyHeJSLLGIHRAISYBcF5IubcdKQHoej7gkHAkSX4uzc8n+TCfpoLSzn6sgEJZAskXI2Y668vKuunx2KywgWocABNaCQLK5LjD9lLeWpWx74GGl+YwJkOsyHvyMXZeexyMuSQfb22/V549/1L1eVfefHql7bSd6V85OMm1b83MBccmPG3flQiC5IqQQlW4fq+3tbfXuk0/Utb099e7wXL3e/SiXIcNPCEDAg0Byuc7DR59bUhZoUrbdZ6y4BwI2BMh1NpS4Zt0IIC6t24jW/amIRl1faluscDKIULX2rbfdWdpRNC8dlOseAviXBoFUi5CznSvq9vG2Or18pli7lEasYSUExiSQaq4LzSxlgSZl20OPK+3nS4Bcl+/Y5+y59DyelUvi0VZZMdT6pbbKeUhX76unR/cWX3sz2LsQpfTaqPtP1VHj0qiqDWbxSjooxYeEDiHQQCDJIqRYvXTwiTq8tqf21Clb44hsCEDASCDJXGf0qv8FKQs0Kdvef+RoAQLNBMh1REaOBKTn8YhLI0RZVQCabI979LW6d326P+792xfqm8ffqV9ndnWtbmo2vSJM6Quu3nykvt66rj6cbb97//6tOvnmsfpx0YFRvJIOyhGGhC4hsEIgxSKkWLX08u6lerZxpG5s/FXts3qJyIYABAwEUsx1EoOaskCTsu0SY0sfeRIg1+U57rl7LT2PR1waJeKWBaBWE1pWLVXFqabzmJbFqy4HzauWirulg3KUIaFTCNQIUIQQEhCAQA4EyHXNo5yyQJOy7RLPXMlHoq8Y+7i8vBzNLNiPwz537kXAjxn3oz1wI8zjEZfGGu3KmUfNJtxUj55+pWYLmpYuMYlLxcVmgclOWEJcGitA6HdsAky4xh4B+ocABCQIkOsQlyTiLKY+cn5pOrbvY/Y/dq4b0/cx+47h2c/Zf2nfEZdGjfj36u2LE/X9X35Uv863qV1VN3//hdq6p7eytdhmIy5NbtVb4F6cfK/+ovfAlc2rq+b2691KB+WoQ0LnEJgRGLsIYSAgAAEISBAg1yEuScRZTH3kXNeO7fuY/Y+d68b0fcy+Y3j2c/Zf2nfEpRgiPnIbpIMychyYlwmBsYuQTDDjJgQgMDIBch3i0sghSPcQECFArhPBTCeREZCexyMuRRYAMZojHZQxMsCm/AhQhOQ35ngMgRwJkOsQl3KMe3zOjwC5Lr8xx2P5s5MRl4g6IwHEJSMiLlhDAhQhaziouAQBCKwQINchLvFYQCAHAuS6HEYZH+sEpOfxiEvEoJGAdFAaDeICCAgQoAgRgEwXEIDA6ATIdYhLowchBkBAgAC5TgAyXURHQHoej7gUXQjEZ5B0UMZHAItyJEARkuOo4zME8iNArkNcyi/q8ThHAuS6HEcdn6Xn8YhLxJyRgHRQGg3iAggIEKAIEYBMFxCAwOgEyHWIS6MHIQZAQIAAuU4AMl1ER0B6Ho+4FF0IxGeQdFDGRwCLciRAEZLjqOMzBPIjQK5DXMov6vE4RwLkuhxHHZ+l5/GIS8SckYB0UBoN4gIICBCgCBGATBcQgMDoBMh1iEujByEGQECAALlOADJdREdAeh6PuBRdCMRnkHRQxkcAi3IkQBGS46jjMwTyI0CuQ1zKL+rxOEcC5LocRx2fpefxiEvEnJGAdFAaDeKCLAgUcZfzv8vLy9Hch/147EcbdDrOlgATLsSlbIMfx7MiQK7LarhxdkZAeh6PuEToGQlIB6XRIC7IgsDYcTdmETK272P3P2aA5+z7mNzpezwCY+a68bw291yK7GMK/WYr108Y8/WZ+yBgIkCuMxHi7+tIQLquRVxaxyga2CfpoBzYfJpLlMDYcTdmETK272P3P2bI5uz7mNzpezwCY+a68bw294y4ZGbEFRBIiQC5LqXRwtahCEjXtYhLQ43cGrcjHZRrjBLXEiJAEZLQYGEqBCDgTYBc14xOQlxKfQtyiqu6vB8UbkyeALku+SHEAQ8C0vN4xCWPQcrtFumgzI0v/sZJgCIkznHBKghAYFgC5LpxxKXUhaWCGuLSsM8irYUlQK4Ly5fW4yQgPY9HXIozDqKySjooo3IeY7IlQBGS7dDjOASyIkCuG1dc+sMf/jB4vP3pT3+atBmi7aLdsn3EpcGHjgYDEiDXBYRL09ESkJ7HIy5FGwrxGCYdlPF4jiU5E6AIyXn08R0C+RAg1yEuuUY74pIrMa6PgQC5LoZRwAZpAtLzeMQl6RFOsD/poEwQESavIQGKkDUcVFyCAARWCKSc69Zha1mI1UWsXOJBh8AqgZRzHeMJAV8C0vN4xCXfkcroPumgzAgtrkZMgCIk4sHBNAhAYDACqea6dRCWikFEXBoslGkIAp0EUs11DCsE+hCQnscjLvUZrUzulQ7KTLDiZuQEKEIiHyDMgwAEBiGQaq4rxSWTOPPLL7+on3/+Wf3ud79TH3/8sTWzrtU/vm1WOw+5uihk24UPbIuzDiMujIhAqrkuIoSYkiAB6Xk84lKCQSJtsnRQSvtHfxBoIkARQlxAAAI5EEg119mIS31EoDaBpk+biEs5PFH4GCuBVHNdrDyxKw0C0vN4xKU04mJUK6WDclRn6RwCMwIUIYQCBCCQA4FUc51JXOorAjWJS33bRFzK4YnCx1gJpJrrYuWJXWkQkJ7HIy6lERejWikdlKM6S+cQQFwiBiAAgYwIpDrh6hKXhhCB6uLSEG0iLmX0YOFqdARSzXXRgcSgpAhIz+MRl5IKj3GMlQ7KcbykVwgsE6AIISIgAIEcCKSa69rEpaFEoKq4NFSbiEs5PFH4GCuBVHNdrDyxKw0C0vN4xKU04mJUK6WDclRn6RwCMwIUIYQCBCCQA4FUc12TuDSkCFSKS8VB4D4HgptiJ+Sh2yHbLvziQG/T6PL3GAmkmutiZIlN6RCQnscjLqUTG6NZKh2UozlKxxCoEKAIIRwgAIEcCKSa6+ri0pDCUlVAKf6z65fmTHFT2lpcZ/ranamtpr8jLvlQ4551J5Bqrlv3ccG/sASk5/GIS2HHcy1alw7KtYCGE8kToAhJfghxAAIQsCCQaq6riktDC0tVcSmksIS4ZBGgXAKBgQikmusGcp9mMiUgPY9HXMo00Fzclg5KF9u4FgKhCFCEhCJLuxCAQEwEUs11pbgUYttaqJVF1XbLGGDlUkxPA7asM4FUc906jwm+hScgPY+PT1y6uFBnr56ol391gf2JevhsV33kcgvXWhOQDkprw7gQAgEJUIQEhEvTEIBANARSzXWluFSAHHJ1UV0AGkr8qbZbCmKF7UO1Xw0otsVF83hhSEQEUs11ESHElAQJSM/joxKXLo5uqI29Nx7Dtq1OL5+pWx53couZgHRQmi3iCgiEJ0AREp4xPUAAAuMTSDXXVVcuffzxx4OArG6vKw7xHkr8qQtLhb0hBaCQbRdMONB7kHCjEWECqeY6YUx0t2YEpOfx8YhLZzvqyu1jz+FEXPIEZ3WbdFBaGcVFEAhMgCIkMGCahwAEoiCQaq5r+lpcH6D1c5uGEmiahKWqQMPKpT6jxr0QsCeQaq6z95ArIbBKQHoeH4m4dKGObmwor0VLE4aISyEfJumgDOkLbUPAlgBFiC0proMABFImkGquG1JcajoQfAhxqU1YQlxK+YnB9lQJpJrrUuWN3XEQkJ7HRyIunamdK7fVYt3Spto+3Fd3rVc5b6iNWx9x5lKgGJYOykBu0CwEnAhQhDjh4mIIQCBRAqnmuqHEpbYvzfUVl7qEJcSlRB8WzE6aQKq5LmnoGD86Ael5fITi0qY6PH+tdjmde/RgLA2QDspoHMeQrAlQhGQ9/DgPgWwIpJrrhhCX2oSlvuKPSVjq274pOPsKY7btX15emi7l7xCIhkCquS4agBiSJAHpeXwk4lJ1Wxxb3GKLXOmgjM1/7MmTAEVInuOO1xDIjUCqua6vuNQlLPURf2yEpT7t28Qn4pINJa7JjUCquS63ccLfYQlIz+MjEZeUqn4pbvv0Uj3j02/DRlaP1qSDsoep3AqBwQhQhAyGkoYgAIGICaSa6/qISyZhyVf8sRWWfNu3DSPEJVtSXJcTgVRzXU5jhK/DE5Cex0cjLml5qXKot94ad/pc7epzlPg3PgHpoBzfYyyAgFIUIUQBBCCQA4FUc52vuGQjLPmIPy7Ckk/7LrGIuORCi2tzIZBqrstlfPAzDAHpeXxE4lIBVB/sfUMf7P2mhLupNjeL/3xNXbvWBfwT9fDZLgd6h4lJJR2UgdygWQg4EaAIccLFxRCAQKIEUs11PuKSrbDkKv64Ckuu7buGFuKSKzGuz4FAqrkuh7HBx3AEpOfxUYlLZzs31O2FsuRAmXOaHGA5XyodlM4GcgMEAhCgCAkAlSYhAIHoCKSa61zFJRdhyUX88RGWXNr3CRjEJR9q3LPuBFLNdes+LvgXloD0PD4ecelsR125fexJF3HJE5zVbdJBaWUUF0EgMAGKkMCAaR4CEIiCQKq5zkVcchWWbMUfX2HJtn3fAEFc8iXHfetMINVct85jgm/hCUjP4yMRl6rnLflARlzyoWZ7j3RQ2trFdRAISYAiJCRd2oYABGIhkGqusxWXfIQlG/Gnj7Bk036f+EBc6kOPe9eVQKq5rs94lHmyTxv1ey8vL4dsjrYCE5Cex0ciLumzlq7os5bmcDfV9uG+uvuxLe0NtaEP/+b4b1tebtdJB6WbdVwNgTAEcixCwpCkVQhAIGYCqeY6G3HJV1gyiT99hSVT+33jBXGpL0HuX0cCqea6PmOBuNSH3nrcKz2Pj1Bc0l+KO3+tdlGKoolo6aCMxnEMyZpAjkVI1gOO8xDIlECquc4kLvURlrrEnyGEJcSlTB823B6VQKq5roQWQiiSHBBWPEnSXvQlPY+PRFyqbotji9s4odfeq3RQxuY/9uRJIPUiJM9Rw2sIQMCVQKq5rktc6isstYk/QwlLiEuuUcr1EOhPINVcV3ieurBU+IC41D+GfVqQnsdHIi4pdXF0Q23svdHMWLnkEzgh75EOypC+0DYEbAmkXITY+sh1EIAABFLNdW3i0hDCUpP4M6SwhLjEcwcBeQKp5rqquPSHP/zBGpxtLnTZRmvbZtXIsn3EJeuhG/RC6Xl8NOKSUtVzl/TqpfNnSh+jxL8ICEgHZQQuYwIEVMpFCMMHAQhAwJZAqrmuSVzymfi0capOuIYWlhCXbKOT6yAwHIFUc52PuFTNWcMRnLb0u9/9Tn38sfXByApxaegRcGtPeh4fibh0oS7OztX5Ly/Vwd6xKtYvTf9tqs3N4v9fU9eudYH8RD18tsuB3m6xZn21dFBaG8aFEAhIIOUiJCAWmoYABNaMQKq5ri4uDSksFUNcToiKidTPP//sNanqChWX1QKuIRey7SobViK4jgzXj0kg1VxXMDOdMVflWs2FZe4akrvL6inyxZDk/dqSnsdHIi7VvxbnCo9zmlyJuVwvHZQutnEtBEIRSLkICcWEdiEAgfUjkGquq062hhaWqhOicsRd39Z3RUp1VYHrRM0mAhGXbChxTW4EUs11LuJSiFzYt01WLo37pEnP4xGXxh3vJHqXDsokoGDk2hNIuQhZ+8HBQQhAYDACqea6UlwqVxYNKf7UxaUh265vV0FcGiyUaQgCnQRSzXW24lJfEagJ3hBtIi6N+2BKz+MRl8Yd7yR6lw7KJKBg5NoTSLkIWfvBwUEIQGAwAqnmuurXk1zEn3KiMxhA3ZCtQNS0XcX2Xhd7WbnkQotrcyGQaq6zEZeGEIHqcTBUm4hL4z5h0vP4SMSl2ZlL3uw31IY+/Zvzv70Bdt4oHZRhvKBVCLgRSLkIcfOUqyEAgZwJpJrrqiuXfA6XHXLMbQSi+kQtpAAUsu2CG5PFIaOHtqQIpJrrTOLSUCJQdRyGbJN8IRXhzf1Iz+MjEZfGhU7v3QSkg5LxgEAMBFIuQmLghw0QgEAaBFLNdS4H3NqOxJATKtNEzVcAGnPlVekTk0XbiOK6mAikmuu6xKUQOWvoNskX4z4F0vN4xKVxxzuJ3qWDMgkoGLn2BFIuQnwGp7rFxOf+pnv4ktBQJGkHAuEIpJrrhhaXhp5QlSPW1i7iUriYpmUINBFINde1iUvV89tctgZ3RUeIPIi4NO7zKD2PR1wad7yT6F06KJOAgpFrTyDlIsRncBCXfKhxDwTSJ5BqrhtSXAoxoSoio6tdX3EphohjshjDKGCDK4FUc12TuJSKsFTYTr5wjdRhr5eex8cnLl2cqaNXL9Vf//pOvXtnC/ea2n/9TN2yvZzrnAhIB6WTcVwMgUAEUi5CAiGZNFtO6FiVFJIybUNAjkCquW4ocWkMYak64bI5r0kuGux6YrJox4mr4iKQaq6ri0spCUtVW6kbx3kepOfxUYlLF0c31MbeGw/y2+r0EnHJA5zVLdJBaWUUF0EgMIGUi5CQaBCXQtKlbQjIE0g11w0hLo0lLCEuycc5PUIg1VxXFZeK7W8///zzZDBj3gpX2FcVlor/jrg0zjMoPY+PR1w621FXbh97Ukdc8gRndZt0UFoZxUUQCEwg5SIkJBrEpZB0aRsC8gRSzXV9xaUxhSXEJfk4p0cIpJrrquJSOYqpCEtVMQxxaZxnUHoeH424dLZzRXlrSwpxKWS4SgdlSF9oGwK2BNapCLH1OZbrKEBiGQnsyIFAqrmuj7g0trCEuJTDk4WPsRFINdfVxaWUhKWPP/6YM5dGfhCk5/GRiEtnaufKbbVYt7SpNre31P7dj9XGxobFkHykPvrI4jIu8SIgHZReRnITBAYmkGoREuJg7oHRGptDXDIi4gIIDEYg9VznemZRDMIS4tJg4UtDELAmkGquq4pLqQlL1VxHbWcdqoNeKD2Pj1Jc2j69VM84nXvQwOrTmHRQ9rGVeyEwFIFUi5Cmt/lDTqaqXzgasl0KkKEil3Yg4EZgnXKdyfOhc1bZn0+7fC3ONFr8HQLDEkg111XFJVcxvYmgT76yGYm2dvkAgA29cNdIz+MjEZcu1NGNDTU9y5stbuHCy69l6aD0s5K7IDAsgVSLkLq4NHQRURYJ5T76od6iIS4NG7+0BgFbAuuS60z+Dp0L+whL1Xw3xGTR5PvQf2eyODRR2pMgkGquG1JcGiMPki8koru9D+l5fCTiklKLM5c21eH5a7XLNrdxI7HSu3RQRuM4hmRNINUipCouhSgiyiKhCI4hhSU+V5v144bzIxJYh1xnwhciFxZ99mmXlUumUePvEBiWQKq5bmhxqWivOAtpqH+mPIi4NBRpv3ak5/HRiEvq4kjd2NhTxeKlzcNz9Rp1yS+CAtwlHZQBXKBJCDgTSLUIqYtLQxcR1ZVLQxUnfK7WOTy5AQKDEViHXNcFwzTx8QXZt13EJV/y3AcBPwKp5rqhxKW+OauJuk2biEt+8TrUXdLz+HjEJU3w4uiG2pjujdMHep+q5w839EHdLGEaKrh825EOSl87uQ8CQxJItQgpxSXXbWvVFUlDcbTZ7lEXloq+OfRxqBGgHQiYCaSe67ryjM3Ex0xo9Yoh2kVc8iHPPRDwJ5BqrhtCXBoiZ9XJ27aJuOQfs0PcKT2Pj0Rc0mcu7TxRf9UE3x0fT1Yvuf3jnCY3Xm5XSwelm3VcDYEwBFItQqpfi3PZtjaGuFQVlkoxDHEpTDzTKgTaCKSe69rEJduJj2tkDNUu4pIrea6HQD8Cqea6vuLSUDmrSt+lTcSlfnHb927peXwk4tKZ2rlyWx1700Nc8kZncaN0UFqYxCUQCE4g1SKkunJp6G1rLmKVaYDqwlJhKwWIiRp/h8DwBFLPdU3iksvEx4XokO0iLrmQ51oI9CeQaq7rIy4NmbPKEXBtk9quf+z2aUF6Ho+41Ge0MrlXOigzwYqbkRNItQipfy2uL2bXIsKmvyZhqbiPAsSGHtdAYFgC65brQuSsgvjQ7SIuDRvHtAYBE4FUc52vuDR0zvLNg761XXUlvmlsbf+e47EL0vN4xCXbaAxy3Xv19sWJ+v4vP6pff511cPWquvn7L9TWvevqwwB9vn+xq778rujspnr0w1fqukUf0kFpYRKXQCA4gVSLkCHFpZCFSTGA9ZVQvgVI8GCgAwisMYF1ynUhcpbvhMoUMohLJkL8HQLDEkg11/mISyFyoW+bvrUd4tIw8S89j49EXBoGXlKtvH+rvv3ysfqx1Wgt/jzV4s+QCtP7F2r3y+/UVMdCXEoqXjBWnECqRchQ4pJvEdE1UG0rlsp7fAsQ8eCgQwisEYF1yXWhclYx1D///POKGN4nBKq50ObDB336CnEvuToEVdoMTSDVXOcqLoXKhb55MHS+KOveHFcl2TwziEs2lJK/5r16sfulmiwg6vp39b56enRvoBVM9T4Rl5IPIxwISiDVImQIcSlkYVIMWtvZTaELkKABQ+MQSJTAOuS6sXKWz5DXv5CJuORDkXsg4E4g1VznIi6FzIW+526Gru0Ql7qfBcQl91yR3B2LrWna9Ks31f2vt9S9D6dLlN6/faG+eVyuLtJ/vv9UHd3rv3zp7befq8dLy6QQl5ILHAwWJZBqEdJXXApZmHQJS8XfQhcgogFEZxBIhEDqua780qTvxKdpmKp5sPj70B9HqPaJuJTIg4KZyRNINdfZiksh67c++TV0bYe4hLiUfHLq50B1BVGbwKO3zH0+2zI3xOqlt9+qzwtlSbd1/3//Tn03EZkQl/qNI3evO4FUi5A+4lLIwsQkLCEurfsThX+xEkg919nkFhf2IfJg0X99W3CxxaT4h7jkMjpcCwF/AqnmOhtxKUTeGqpNxCX/mB3iTlYuDUEx5jYq5x51rUparG66qu4/PdIrm3ydKoWqaTv/20m5gglxyZco9+VBINUixFdcGqqIqEaH6YyleiSFLkDyiFy8hIAbgdRzXZ836nVSIfJgk7BUrITiQG+3OOVqCPQlkGquM4lLIfLWkG2Gru1YudT9ZCAu9c0csd9friJSBtHIUoTqdnexSurmox/UV/rTcIvtcYhLsYcK9o1LINUixEdcGrKIKEfNVVgq7gtdgIwbUfQOgTgJ5JTrukYgRB5sE5aq+Y6VS3E+F1i1fgRSzXVd4lKIvDV0m6FrO8QlxKX1y1YOHi1WJJnEncXWON9zl+Z93XykfiiUJf0PcclhsLg0awKpFiGu4tLQRUTXZMoUUKELEFP//B0CORLIJdfFJCwhLuX4pOHz2ARSzXVt4lLI+m3IFaGhazvEJcSlsXPLqP3bizuVc5cq4pC18fOVT8siltomWX0AACAASURBVH3/i56kl9NZ+8iFEAhIINUixEVcClmYFEPjWpyELkAChgtNQyBZAjnkutiEJcSlZB8XDE+YQKq5rklcClm/udZuppAIXdshLiEumWJwrf8+F3eMB3VXDv52FpcWwlS5Ha6E6isu/f3vf1/rccE5CKwLgd/85jcTV0xbLUIWJj7CUnWyRb5Zl2jEDwiEI2Cb62IUltZFXCJXh4tvWoZAlUA134Ws34YWlqpHJITKFyWbUO2nHokFn8vLSzE3rujO5HoTcyvejiTEpbKPpu10vuISYRJvTGFZGAKpvuGyWbkUsjDxFZaqky3XfFP6PGQkuNowZN+0BQFJAuuc62IVltZFXCJPSj6p9NWXQKq5rvC7rHMK8af40uSQIlCImrCwuSosFf89VL5g5VL3kyG9AwlxqW+mcrw/uLhUHhjesjIKcclxwLg8WwKpFiEmcSlEEeFzeHdTYPkunUZcyvYxxfEBCKxrrotZWEJcGiBwaQICjgRSzXVVcan4zykJS6UYhrjkGKwDXp6vuHRxoc7OX6mXL/+qcb5T795VqF67pq7p//rJ3bvq441b6tZHAxIXbspe3PE4c2l+zlL7l+js+1+AkQ5K4SGhOwg0Eki1COkSl2IWlqqTLd5u8VBCQI7AOua62IUlxCW5+KYnCJQEUs11VXEphLAUWrDyfXFoG7msXOomJT2PH3nlkhaUdh6og+M36o1tBE2u21Sb2/vq+bNbKjWdKeTX4hZtO8FUynCmk3RQOlrP5RAIQiDVIqRNXPr/2XtjHjuOY/279SEcOSIg8gKGcuGu4EAhZUBwQChwIGdLKCIVWIkcSokUiBsJZCYFDAQGhgCLoQKDesGAmWDAlwvonzDyh9j39C6b2zs7M11VXU9PV0/tDS7l013TU13znKrf6enuHSw5XIKEsRt1DxQ9MJrWWQBLDpeKYekN3APqHrCqdTlcKu2nSXWa1orz6fXmck2HS9RZwbRrXcdvB5dOT8J7N+8zodLU6Ufhwctn4Z4lwpReWwvLq4vO7/LNKqTIfn4Mn75bDjiHS2UfeQv3ANUDVpOQObhkASw5XKJGprdzD+h6YCStswKWHC7pxrBbcw9QPGBV67ThUkuw5LkdJTKxbXYCl56Gu299EB6p+PI4/HT2MNxWsdXASAaN5jbcTiO4BEUFCJUN2eFSg/nzS+zGA1aTkClcsgKWPAHZzaPlN9qZB0bROktgyeFSZw+BD2cXHrCqdZpwqTVY8txu+0drF3Dp9OS9cPP+5EW4o6Nw/NFH4c+3boVw82a4eWUuXoaXL+Ou8/8IP/zwKPwy7frgZXhmZvnSq/Dk3ifh+9/iDb4fPv/x03B9UVK239LCxtzSUPU9l6Se835784DVJCSHSwiwlCcKqHf/fc+lvT1tfr9bemAErbMGlhwubRnxfu29esCq1mnBpS3AksOl7Z+2HcCl03Dy3s2Qs6UjJhy6BqeOHoSXz+6Z2X/p6gqjw8qkzz8Ld979/Xn0vXr+JHz15ffhnD0d/tZWN0nC1eGSxGveZ48esJqEII+rjXGAAFZ+XO0enzC/5148YF3r1vYgQehVroPx31LInvYh0dpDpWU8ofdQaXkvfq39eMCq1mnApa3AksOl7Z+vHcCl6StxktfaNGxsOdnZyqS1YSysWsrhFHU/pnQZh0tbzrtf25IHrCYhCS7VFD1L84Qo1HKbL168OL+0r1yy9KT4WK17wLrWLcEZhF5pgaW84HK4ZP0J8vFb8YBVrauFS1uCJYdL2z8dDpdIc2AdLh1uMtt7af6WD6/MfXt4Ze5iQdOVP4dLpCDxRu6BKg9YTULylUu34mvGSn+IQm1qE/1ruB9XqxQMbmYoD1jXujk4g9ArTbDkcGmoR8hvxogHrGpdDVzaGizlWmckTGaHifrRs4VPdgCX/LW4y0B6FZ4/+SE8/tfP4bc378HdCO//8S/hozvvhhmudN7V4VKLR9GvsXcPWE1C5k6Lq51LRKHmx9XWzor3dw/oeGA0rUPolTZYcrikE7tuxT3A8YBVrZPCpR7AksMlToRi2u4ALoWw7w29MYGDtNo6KJH34rbdA1QPWE1CtOESolBbsukrl6jR6e3cA3oeGEnrEHqFAEsOl/Ti1y25B6gesKp1ErjUC1hqoXXI/evQeSk1dmvata7j3zos8zqrGbCs7/S1NpmVi16SPZtqrre/vq2Dcn8e9jvu0QNWkxBNuIQo1NZsor/E/bW4Hp80H9PWHhhF6xB6hQJLLQouZFyhtRo5dre9Xw9Y1TouXOoJLLXQOodL68906zp+I7h0cMLpSXjv5v3wS5XGHYUHL5+Fe29XGfHOBQ+0DkqfEPdADx6wmoRowSVEoVayiS5YHC718GT5GHrzwAhaV9IWqc/RRVocl2/oLZ0d7+ce4HnAqtZx4BJasySnYyLhDxpeofNSXgTLWreu47eDS+f+OQ1P7/41fPHoFzZkOjr+KXz38HZwriQLNE6v1kHJGZu3dQ+gPGA1CdGAS4hCjWIT/SXucAn1tLhdyx6wrnWx2IknTUqKnrV5Qxdp6doOlyw/PT52Sx6wqnVUuITWLKnGOlza9ilpXcdvDJcyZ58+DU9f/l/4xz/+ffgffw2//pp99s474Z3Df/7hD38Ot/50M9x+25FSyzBtHZQt782v5R5Y8oDVJKQWLlEgEDdqqDZTAsK131P7Td4078kBPhZzHrCuddHh0qJnabJyzYpttE7ezO1GIBb/HC6Ze2R8wEY9YFXrKHCpV7AUx+5wadsHpnUd3w9c2tbvfvUVD7QOSp8M90APHrCahNTAJSoE4swPx6bDJY5nva17QMcD1rUOCZa0oFKcqakWogsuneiYt4JeZYocu9verwesal0JLvUMlhwubf+8ta7jHS5tP+fdj6B1UHbvEB/gLjxgNQmRwiUOBKIGANcmuthC2vdiixoV3q43D+xN69b8z9Us6lzO2UXqEXVc0naud1LPeb8tPWBV69bgUu9gyeHSlhF/ce3WdXw/cOn0sP/Sy3/Ovhb3zuG1uMNLceHPf74Vbt72fZZah2nroGx9f34998CcB6wmIRK4hCioJDbRxRbSvhdbriNWPbAnresFLLUouJDx6HqH9K7bRnnAqtYtwSULYKmF1nlut/7EtK7jN4ZLp+H06dfhrx884m3ofXQcHvz9b+Hebd97CSXAud3WQdninvwa7oGSB6wmIVy4JIFAJd9JbSITBHSC48VWKSr88149sBet6wksofUIHWuud2gPu32EB6xq3RxcsgKWWmgdMnccQeta1/EbwqXTcPLezXD/F7l8+Ilxct9xerYOSs7YvK17AOUBq0kIBy5JIRCqSEMmCOgEZ4QEBPUsud2+PbAHrUNpVo1dtN4ho871Duldt43ygFWtm8IlS2ApHyvq8AKklo6gda3r+I3gUj1YeiM8xz+Fs4e3UTrkdg8eaB2U7nT3QA8esJqEUOFSb2AJDX/Q9kdIQHp47nwM7T0wutbVACDpbFD0FVkQScdN7ed6R/WUt+vJA1a1LodL8QCDdNKk5mEGFM3izmUOlmJfh0tcD+q0b13HbwOXnt4Nbx1ehbv6dxSOjg97Kz2avCJ39CD89PfDKRv/+Hf44dfDZzMrnY5/OgvOl3QCcM5K66DE3Ylbdg/QPWA1CaHAJWQSUZPsoIstpH0vtujPlrfsywMja12vYAkNu9ER5nqH9rDbR3jAqtblcCn5pSbXmvoWnRMmGOZwCRHVZZut6/hN4NLTu2+FK2zpAJBePrsX0g5KpyfvhZvZ+3JX4NHp03D3rx+ERzlk8tVL5ciqaNE6KCuG6l3dA2oesJqElOASOomoObobCX/QxZwXW2qPnhtq7IFRta5nsITWI3QIWdW79P2o6Z+zszNNc24L6AGrWjeFS5bAUswJPbcDBjXBdOs6fgO4dIBDbx3g0BtnHIUHL5+Fe/ne3Kcn4b2b9y83+Z7Ap1D6nOBob0L3QOugpI/MW7oHcB6wmoSswaWewVKLYguZ4FgttnBPkFu24oERta53sNRC75DxZ1XvHC4ho6J/21a1LodL1sBSC63z3G792Wtdx3cAl47DT2cPw9Vdk6YAatqm9Hn/AmdphK2D0pJvfKzjesBqErIEl3oHS56AjPss+Z317YHRtM4CWGqhd8ioswqXKD5J36G+IoniLVttrGpdDpe0Xi1rmRMi4Q9aS0fQutZ1fAdwibByKUzg0nTl0vRzW1rX/WhbB2X3DvEB7sIDVpOQObjUMomoCQ5PQGq8533dAzIPjKR1VsASuiCSRQK91wgF19LdOlyix4G1lla1Thsutc4JPbfb9klpXcdvAJdCuLbn0mHPpJeHHbkv3oybOUnuzWtxp+Hpydfhi/vXN/3O92zadgrHu3rroBzPg35HFj1gNQmZwqXWSYR0rv24WqnnvJ97oM4Do2idJbDkcKkuZpG9HS7pe7eX1xGtap0mXNoiJ3S4pP9McSy2ruM3gUsHujRzWtyym44evAzPzjdlmr4Od9Hn8nOOq70t1QOtg5I6Lm/nHkB6wGoSksOlLZIIyZz4cbUSr3kf94COB0bQOmtgyeGSTuwirDhc0veqw6V6n5YOa6FcYauc0OESZXZwbVrX8dvApbnVSUs+vbKZ99qqJtyk7N1y66Dcu7/9/vvwgPWCK276GI9/tbL5Yz7rWnsKTCMJmeCM/JpIH0+kjwLlAYnW9VAsUootRDEV50HDLlKPULGS7I6sdw6X0NGzbB/te4nWbeeNq1em6F1ryE7VQbTWIe2PoHWt6/iN4FIM/xlQNH0qjg57LT27utl3/krd0eF1uu/evE7Xy+M/3jhaB+V4HvQ7sugBq0lIXvRZAksJhsVY4cKl9OWvGWfSMfgmsJqz4LZaeECidRbgErXw4fpYyy6yIOLeE7f9CAXX0j2jAQfX13tqj/a9ROt68X8NXNLSrNwXHJtSrfPcTif6WtfxG8KlC4edHl6R++sXhz2UfskceHQUjj/6e/jbvbQP0+Vnpycn4Z+3/hT+dPvt13s06TjerSx7oHVQ+ly4B3rwgNUkJCUg1sDSrVu3gicgPUS+j2FvHkBqHbJYXCu2OIUPZ7417Ur1jjNeVFuHSyjP7tsuUi+iZ5Fah545KVzS1Kx0j1ybUq1zuKQTVa3r+M3hko7b3ArSA62DEnkvbts9QPWA1SREmoAs+YWbRFD8m++xlEMwaQJCuSa6zcjFFtp3bn9bDyC1DlksLmkdQrPiDGnbdb3bNu6Xro6M2T7vuJ9RoX2P1Dq0FyW5nbZmSXXQtQ4dHev2W9fxDpe2nW8TV28dlCac4oMc3gNWkxBJAtIDWIpj8ARk+MfKb7BDDyC1DlkszmkdopiSFlSlqXa9K3lom8+RMbvNHdm5Ktr3SK1De5mb2yG0UGrTtQ4dHQ6XDu/CnR52XEp/h9fb4kFwM3+nT0/C11/8EB5dfWcuHB3/PXz3t8Mrcwv9tp3C8a7ucGm8OfU7KnvAahLCTUB6AUsOl8ox6S3cAwgPILUOWSxOtU5a+Kz5NNqMf6jDEaJt7v5uiBjg2hx5pSYyZrl+3lt7tO+RWoeeK05uh9JCqQ46XEJHx+7h0tNw960PwqM3fjhs2n12ddNu0mbf4bAv04PvwsN7TpjQIetwCe1ht9+jB6wmIZwEpCew5HCpx6fAx7QHDyC1Dlks5lqHLKZiDCD2sEux5XCpr6cMGbN93Wl/o0H7Hql1aG9SczukFkp10OESOjocLhXgEuEUucyHRw9ehmcOmKBR63AJ6l433qkHrCYh1ASkN7DkcKnTB8GHNbwHkFqHLBaT7XTSpLTwmZvgvECLn8cDBzT+8v3mHC5peFTfBjJm9Uc7lkW075Fah54JSm7XI1jy3A4dGWX7rev4DfZcKqxcOpwe99YHl+uayi47Cg9ePgvOl8qekrZoHZTScXo/94CmB6wmIZQEpEew5AmIZvS6LfcA3QNIrUMWi8l2vFMUWNKCSnGM04MM4ism8c9XLtFjtUVLZMy2GL/la6B9j9Q6tN9LuV2vYMlzO3RklO23ruM7g0tzq5YOr829PLw2l95+Oz0J7928H37JfXn8Uzh7eLvsXW8h8kDroBQN0ju5B5Q9YDUJKSUgvYIlT0CUA9jNuQeIHkBqHbJYzFcuaUEgRIE2B5bieP1VEWKAzjTLwaLcyrY9z87Oth1Ah1dH6kW8XaTWod25ltshdEvTpmsdOjrW7beu4zuDS9NVTSEc/3QWrnGj6eqmowfh5bN7wXdfwgRv66DE3IVbdQ/wPGA1CZHAJc0kInl5+is9pfjzBIQXo97aPaDhAaTWIYtFidat+Quhg0tgyWG6PHJHAEvx7h0uXY8BpF6MCpcQuqVt03M7ud5p9Gxdx3cOl+Y2+45upmwKrjEdbiN6oHVQutfdAz14AFlwIe+PW3BpJxFrxVTpvj0BKXnIP3cP6HsAqXXIYpGrdT2BJYdL8jievg75+PFjubFJz7/85S/nJwPGv//85z8qdpPN+OpmHOv//M//nNu1Cpeswz3rfs9fo0Xmb5qvGntupyIlYiOt6/jO4NL0tTiHS+JIUuzYOigVh+6m3ANiDyALLvGgCB05BRcyMYlD5SYnnoAQJtibuAeUPYDUOgtwCaGDcYpKqzdd72SBnL8OiQJLWnBpCpaiXctwyTpYGgHqJbiE0C2Ezehz1zqZ1mn1al3HdwCXQjg6Og7vfPSH8Odbfwo3/++v4eb9yx2VZk+D89fitOKNZKd1UJIG5Y3cA2APIAsu5NCpcAmRRJSKqdJ9ewJS8pB/7h7Q9wBS63qHSwgdpIAlL7jkcZxiSmtlURxJDoG0Vi7NgaVR4NLDhw9JE/jo0aPzlWDxh6bj4+Nin7t37563WbOfbMZ2VLuxbbI9wsolhG4hbE610A8vKD4CkAat6/gu4NK6J48O+y59d9h3Ke6odBqennwdvrj/yDf0hoTfvNHWQdnw1vxS7oFFDyALLqTbKXAJkUTUgiUvtpBR4bbdA8seQGpdz3AJoYNUsOR6J38iteHS0mtrNfBqCSztCS5xwVIOgJbgkhQsjQSXIlBLwI6ylyXlSWuhhXEcDpcos6HfpnUdbwAuRSen1+Oub/h9WPcUHrx8Fu75bt760fjaYuughN2IG3YPMDyALLgYw2A3LcElRBKhAZa82GJPtXdwD6h4AKl1vcIlhA5ywJLrnTx0NeHS2mtrUri0Bpb2ApckYKkEl2rA0khwKd4Ld8uBtacNrYUJhjlckmtebc/WdfwGcOngotOn4enL/wv/+Me/w6+//hp++eXyNbhZBx7/FM7Oj4yb7sl0QEsPXoZnTpZq4261f+ughN6MG3cPED2ALLiIQxA1W4NLiCRCCyx5sSWabu/kHqj2AFLreoRLCB3kgiXXO3nYasGl0mtrErhUAkt7gEtSsLQGl2rB0khwCQGW0MDKtzyQ651Gz9Z1/DZwadZTp+H09GV4OQOdLgFSDpcOr8s9OLwu52BJI+4cLsG96Bew5gFkwYX0xRJcQhRUmmDJiy1kVLht98CyB5Ba1xtcQuigBCy53smfSA24RHltjQuXKGBpdLhUA5aW4JIGWBoJLmm9Wqadv6Unek5jHS7J9U6j547h0pL7DtApvH34v4u/05O74Z+3/hb+dNiDyd+E0wi5so3WQVkekbdwD+A9gCy4kKOfg0uIggqRmHgCgowMt+0emPcAUut6gksIHZSCJYdL8qexFi6VIFA6zY0Dl0o287sd4bS4uT2RasHSHFzSAksOl64+b4j8LdfC6eoqz+3keqfRs3Ud39HKJQ33uQ2EB1oHJeIe3KZ7gOsBZMHFHQun/RQuIQoqVGLiCQhnpr2te0DHA0it6wUuIXSwBiw5XJLHbg1cokAgLlyi2BwdLmmApSlc0gRLDpcuIxCVv61prOd2cr3T6Nm6jne4pDFrg9toHZSDu9Nvz4gHkAUX0gU5XEIVVClRQL37r7XsG+nnqe3kE6vHHLf0lV+rLw8gta4HuITSwdoizQsu2XMghUtUCMSBS1SbI8MlLbCUA6B8E+j47+PjY1mwZL3u3r17/l9Wv6NLh7VQHFSrWUvXKGmsax1ldnBtWtfxDpdwczmM5dZBOYzj/EZMewBZcCEdkxIQxHG1cdylJEJyb3nCE/s7XJJ40fu4B2QeQGrd1nAJoVe5DsZ/SyG7F1yyeOXCpQiA4l86vv3x48erF6bCJQlYihce6bU4TbAUfZMAUJogLbCUr4LaK1zaCizFuXStk2mdVq/WdbzDJa2ZG9hO66Ac2JV+a4Y8gCy4kG5IiXdN0bM0PkShltuMyb/DJWR0uG33wHUPILVuS7iE0CstsOQFl/xJ5MClHADFK5bAUg5/1vZckoKlkeCSNliawiUEWIrX2CNc2hIsudbJtU6rZ+s63uGS1swNbKd1UA7sSr81Qx5AFlxIN+Qrl27duqV2KUShNrXpv26pTZcbcg+QPYDUuq3gEkKvNMGSF1zk8LzWkAqXpACotHJJajfdyAgrl/KV0RqvrEXfaO+xlNvMX7PbG1zaGiy51sm1Tqtn6zre4ZLWzA1sp3VQDuxKvzVDHkAWXEg3aLyXPx0folDz42qRUeC23QN0DyC1bgu4hNArbbDkBRc9PqctKXBpCQAlsCO/+vWenFPlYu8R4FK8D87Kounrbhr+nzuxLrc7XVm1xz2XegBLrnUa0V5no3Ud73Cpbr520bt1UO7CqX6T3XsAWXAhb14bLiEKtSWbvnIJGRlu2z0w7wGk1rWGSwi9QoAlL7jkT2MJLq2tLHK4JPd77JmvjOasWGoNl+Ze2dsbXOoFLLnW1T1zGr1b1/EOlzRmbXAbrYNycHf67RnxALLgQrpAEy4hCjU/rhY5+27bPcD3AFLrWsIlhF6hwJIXXPw4TT3W4FLtK2tLo9K0O8LKpdKqIersol+FywHYnuBST2DJtY76NOData7jHS7h5nIYy62DchjH+Y2Y9gCy4EI6RgsuIQq1kk1fuYSMDLftHpj3AFLrWsGlkrZI5x5dpMVx+emYvNlZgkuaACgfkbZdh0sX3m0JluL19gKX0JolOR3Tczuexmm3bl3HdwKXTsPp05fh5bk3b4abt98Ob5c8e3oanv7z6/CPfx8a/vlv4eGhj/9hPNA6KDF34VbdAzwPIAsu3kh4rTXgEqJQo9j0BIQ3197aPaDhAaTWtYBL+ebCiEMMoo8lBdXS3OTFX2zjcIkXxXNwSRsApREh7ErhUrpvnrfWW3M3t05jqF251Bos7QUu9QiWou89t9N8avm2WtfxncClp+HuWx+ER+f+Og4/nT0Mt0u+Oz0J7928H36J7Y4ehJfP7pWBVMmmfz7rgdZB6dPgHujBA8iCC3l/tXCJAoG446fa9ASE61lv7x6o9wBS61rAJW34E+3lmhX/Wwta5XZfvHhxPnkOl3gxPIVLCAAUR4Syu3e4lO+HdF71HR/zAmCm9dweS9Nmo69c6hUsxXnw3K46xKsMtK7j7cKlIABSVVOz386tg3K/nvY778kDyIILeZ81cIkKgTjj59j0BITjWW/rHtDxAFLrWsAlzVVFU7CkBZXm7LreyeI3h0soAIS2G++cu2qI4i3k8xavX7tyiQKBKPeZt6HaHBku9QyWHC5xI1q/fes6fgO4lL8Clxz4f+GLD16vQgpH4cFPfw+3Vn37f+EfX/wQHv1yvm7p8Edc7aQ/X7uw2Dood+FUv8nuPYAsuJA3L4VLHAhEHT/XphdbVM96O/eAngeQWocsdqVat+Y5rmZRZ2HOrusd1XtX26V5z1+HfPz4sczYTK8WYCledm9wiQqBOBPJsTkqXOodLDlc4kQ0pm3rOn4DuBTC6cl74eb9BIY0HOlwScOLSzZaByXyXty2e4DqAWTBRR2DpJ2k4EIUVBKbXmxJZtz7WPVAD3uoRN8htc4SXJJoFiX2luy63lG8d71N/txEwGQJLCUgtje4xIFA1Kjg2hwRLlkASw6XqBGNa9e6jt8ELoUrr7QpOPP4p3D2sLhLk8KF9mmidVDu08t+1715AFlwIe+VC5cQBZXUphdbyMiYt90L4Gh/59tfsRffI7XOClySalYpitbsut6VvLeuWRbBUgRh0j2XKN5CPm/x+pLX4rgQiHKfEpujwSUrYMnhEiWisW1a1/EbwSXF1UtHh1VLzwgbgGPnbWjrrYNyaGf6zZnxALLgQjqBA5cQBVWNTS+2kJHhcKm9d+uviC4W4wiRWoccP0fr1maiRrNq7LreyZ6PfM8lmYXrvdCvwuUgbE9wSQKBSnMqtTkSXLIElvKx+uEFpejGfN66jt8MLsXVSyd3/xH+fe7HX8Ovj365OPntsOfS0fE74Z2Cf//whz8fTu+4GW7ffhszE271jQdaB6W73j3QgweQBRfy/qgFF6KgqrXpxRYyMupsIyFB3cjG7t3C70itQ46fqnU1AEgaXRQtdL2TeVcbLrUES/GO9wKXpBBoLSpqbI4Cl/JXKzUPM6BoFveJzcFS7OtwietBnfat6/gN4VLuMD/5TSd8MFZaByXmLtyqe4DnAWTBxRsJrzWl4EImETXJjhdbvLlu2RoJCVreh7VrtfA7UuuQ46doXa9gKY7L9U72NGrCpdZgaS9wqQYCLUVFrc1R4FLyT02uNfUxOid88eLF+SUdLsk0r7ZX6zq+E7h0eljF9PXrVUx/CH97eC/4eqTaUNLr3zoo9UbultwDcg8gCy75qMo9SwUXOomoObrbi63y/K61QOzhUzciXm/E6Um8EfTXGgln0t0itQ45/pLW9QyWHC7JnzUtuLQFWNoDXKqFQHORoWGzBi4hvlu533f5GCyBpZgTem4n1zuNnq3r+E7gkobr3AbKA62DEnUfbtc9wPEAsuDijIPbdq3g6hksebHFnemr7RHJb92I+L25yTb/CvZ6IOFM8ob12OH+Go7QwehLrl0vuGTPowZc21g5GgAAIABJREFU2gosjQ6XNCDQNCq0bI4Cl6yBJc/tZDqn2at1Hd83XDo9Dafn3n07vH1tKdPhs8OHL//5dfjihxD+7pt6a8bhFVutgxJ2I27YPcDwwGhwiVv4UFylbdOLLYrX59tQCq6agirtE/Kf//zn2gBq7KKLLblH++iJhkvWwVKcJQ5c0tasFCUSu653smeMonVrlmv1ask21e6oey5pQaDcv5o2a+ASJVJbaTVH79bGLdGskh+WbLrWlTyH/bx1Hd8ZXIqvx/013D9s7s37O5wYd+YnxvF8Rm/dOijpI/OW7gGcB0aCSy2TiJoZ8QRE7r1SwbVU+KRCR37l6z3nANSafWSxpXlfW9hqVbA8fPgQcnupoEPYT7apxRZCB6PTpHZd72QhV9K6nsFSHBtS77bSC00IlOZP26bDpcsnQ6pZUljlWifTOq1erev4juDSASy9dzPc53Klc887XNIKwDk7rYMSeS9u2z1A9cAocKl1EkH177SdH1cr9dxFv7WCa+0XdYdLdX5H996qWNS6r17gEkIHa8BS7OsFlyzKpHCJurKIOyquXYTmcsdc2z6HxdoQKI4NYdPh0sWsI7SwZNO1rvaJq+vfuo7vBi6dnrwXbsrIksOlupgr9m4dlMUBeQP3QAMPjACXSl/4EjcibabxUFciSMaP6pOSp632DVoquLiFD9U/mnaRv+RT76fXdg6XlmeGunIJoVkaRZoXXLKnTgKXNPUqH7XE7khwCQGBEDbjnDlc2gYsRd+71sm0TqtX6zq+E7gkX7V0/NPL8PC2ny2nFYBzdloHJfJe3LZ7gOoB63ApbvoYj3+1svljPi8Ol6hRetluruCSFD6UK2vbdbi07HWHS3VwqVew5AUXRWnm23DhkrZepVFJ7a7tXyf3ykVPpO3cfly5hIRAMW85Pj6udceb/mmsagY3NCTNjxBaSLXpcGnDgDlcunUd3wlcehruvvVBePTa90cPfgrf3bt92MY7Qaej8ODls3DvNUM6fXo3/PWDR+H8DbqjB+Hls3uHtv6H8kDroETdh9t1D3A8YB0uxXu1BJYSDIvjliZPnPnVbtvbyiVp4VPyi7bdZC9ed6tVX6V73vJzh0vL3i+tXKIWPtz51bLrBRfX8xftOXBJW6/SiGvsIgEQ0na892Q///FKGwLF62jbjD+0jfInyY+0NCv3Icema9220de6ju8QLl3dPym9Lnf04GV4luhSnKMDYHrrAJji37XPtp3D4a7eOiiHc6DfkEkPWIdL1sDSrVu3fOl0xZOSF1w1hc/aELTt5mDJOlyyfuoaYsPtOKdb7bnEKXw4j52mXS+4OJ6/bEuFS9p6pQGWckDDPfiA4q1WcCmOBbG6CAWW8h+vLGpdrqVcuKSpWSkGuTZd6yhPL65N6zq+e7j0BiId/xTOHt7OPJ+tdvLVS7iIPFhuHZTQm3HjXXsAUaBJV0NYh0vcBGQpMLhJBCXA8s27cwjmCQjFe/Nt0rOT/6L8+PFjucFJT+1CLbeXflWWPqtqNyk0hNAt4VDE3SwWXEsrlxCaFR2rbdf1ThauFLikrVdaYGkUuIQAS+k1fq1VS9PX9pCgO4c/aC3l5HbamiXVQdc6mdZp9Wpdx3cIl66+AndYovT6lbnpiXD5q3R+WpxWAM7ZaR2UyHtx2317AFGkSQtWh0v6xVSemMR/T1dXeQIifz7zZyf61QpYiuO0vudS8j2nqKDuV8ItiKh2U6Rx7XMjFGl/Di4hiilpQVXyletdyUPrIH1p5U/PYGkUuMTRutIsczWrZC9+PmcTqUU9wiWEFkptutZRohbXpnUd3wlcmmzofXSARd89DBf7dF9+dvn62+lhQdPN8PqtuEMbq3DpVXj+5Ifw+F8/h99+ex1UN26E9//4l/DRnXfD7yvj7NWr5+GHrx6Hn98YD+HGjffDH//yUbjzLt1666CsvG3vvgMPoPchiS7cO1ySJhFr4be0Yin18QRE/vDmK5csgaW82JKCYLnXdHpy4RKnmOIURBy7I8IllGZFX6EOR4i2OSsRdCK23sqWe8ytrVzqHSw5XLoaexLNKkXvkk2OlpauMfd5K/sUvUBpoVQHPbeTRJRen9Z1fCdw6YCQTt4LN++fb9F98Ze96vb07lsZSJpxtsXX4g7g55tPvgw/L8bO++Hzbz8NDAZ0xdLzb+6FL39OxGrmIjc+Dt+e3CEBrNZBqfc4uaVRPeBwaXlmk28oCciSFWRiEq+5tB+UJyDyJ5byqgjXunahtmRvTyuXuMUUtWDh2k2xQLXPjZ0W9vOVS1tplsQvOWSP/Wu0WnJ9jT49wiVtvUp+0raL3BcJaTv6I9nXWLkk1ay1+F2zWaN1qa/Gs5NscH1YOsAg2UVqoXQvT8/tNCOHb6t1Hd8NXLp8/e3CaVc26c42755zqb0NvV+FJ/c+Cd+vsJ/z+2QAoNwvr57cC58UjR96vP95+PHTd4tR2jooiwPyBrv3gMOl5RCohUvIxCSOei058QRE/mhrwyXtgmrN3l7gkqSYohREErsp0ij25VHZZkPvfJ+xeDCAxl+ug9Gett18jA6XeDM2p3XaepVGhLCLBEBI29EnWnCpRrOWoqVks0brrMAlZP4mBUtxvjy342mcduvWdXxHcOngytOTcPev98OjwwKm45/OQr5/9/LqJXuvxF2BP4fX1D7+7PCa2u8vXlN79fxJ+OrL78Obt+Q+/jac3KG/whbCYUXUh2lF1OEVu88/Cx8dlj8lC6+ef3Owf3gN7/xqN8LH354crr0exq2DUvuhcnvjecDhEgYuIROTEljyBKTuOdWES9oFVcneHuBSqfBZmv1SQSS1OxJcomgL5+lC6GC8/vS14LSRvcMlzuxcHDIT/9KeSyV94Vm/aB1txr/0GpDWq8b5CZmWT4vjrrrJ56BWs+bmk2KzpKWSOGnZp7RyCaFbWjYdLrWMlOvXal3H9wWXzv1xGk6fvgzh9u1wvuXSm7/DPksnX4cv7j8K6eW5o+MH4buH9ybttp3A8tXzVUuHV99+PLz6dq1TBoi4q5cO8OjDAzxaBUdv2sTFUWV41Tooyz70FhY8gNicu/V9W9wDRrpySSuJyOeotMfSdD49AZFHuBZc0i7UKPZGh0uUwmdp5tcKohq76XroggtpP9mu+UV96neEDsZrzGmh651M73Kto+gL9yo5ANI8HCG3G8e0R7ikoVnT+aTaRGoRN8Yk7dfgEkK3NG261klmXK9P6zq+Q7ik58wuLb16Eu59crEyaQ3sXK5uoq0u4t1rBq8Ir8a1DkrevXjrHj0wAliKft0LXNJMIlI8csFS7OcJiPxproVLiF/qqYXfyHCJWvhw4VKt3ZHgktbKH4QOLoEl17t6rctfh9ReWRRtxz+E3bRibW9wSUuz8sjh2BwVLiF0S9um53ZyvdPo2bqOd7ikMWscG5SVRdEeEUJxLn3Z9hIu+colmQe917oH8pOrjo+P1dyVEolksGZpdrKxdmTtHuCSdhKxVkyVAsETkJKHlj+vgUs5BNIqqKhgKV5vVLjEKXw4cEnDrsOlqx5H6GBJC13vZHqX/3iFWFmkaTPe4VQLpfsipX4yr8334gIu6Z5Lmpq1lrut+WZEuITQLYRN1zrNp5Zvy+ES32emelyuSFp6JS7dDg8AsZxABVyvjbYOSta9eOMuPZCSPw34M5dIpF/+au2XjqwdHS4hkgjJiqU0x56AyB9nKVziQCDq6Lg2R4RLOQiPxaoUsk8LIu0iDV1wIe2X9iChxitCB0tgKX7uekedoavt8h+vECuLtGzOgaX4v+0NLmlrVvShxCZSi2SRzOs11TuEbiFsutbx5hnRunUd7yuXELO4YvP5Nx+G8y2RAh0uUU91K97Kq1fh+Q9fHa7/ejtvwn5L0WbroCzehzfo3gPacGmaSGgkCZQja0eGS4gkogYseQJS91hL4BIXAlFGKLE5GlzSAkvR37nWSQqq0pxpaOnaNZD2NeASQgcpYMn1rhSZy59LtG7tahLNoox+ya4ULlGuiW7DXbmE0CypTaQWof2efxfE14ARuoWwOdVCrVeYW/g7XSP9CGCxHkj30LqOd7jUMkIP13oDl4obdWcbfxP2RVq7jSun0503POzjdDhF7s7hFDnKXwzK//73v5Sm3sY9cO6B3/3ud+f/n7uyqNVxr6XkJI3DYtwn3699iSOSiFqwNEqxtVXMpHmnvuaAKKikNlPBwvVdumdN2eWOYap3mmApLyjy/WWkq6CmfsrHytVqqs+RBV0tXELo4LSYWttsfISVS5LnhRo7S+24Wrd2Palmle5hze5e4FIpzyr5cO7zGptILZLcC7dPfoBBOsXw1q1bXDOz7VtoYbywZbi0hdapTO7rmqwlHHO4pDVzRDtbwKXnT+6Fx/96PcDffjvfTDz+3ThAq88+fTeUEFNr4kl0pTfr2APSlUst4BIlOUnjaCnGWtNZOi0OkURogKV4/yMUW1vFDOfXfERBVWMTsZeI1vPEsZMAUOxDeRWuhd4tjR+xf93ctZAFXQ1cQuhgvH+OFrrecZ6uy7YcrVu7Qo1m1djdA1yi5Fnc2a+1idQi7r1I2uffF5ZOyMy/Fy3Dpa1yO0msTPu0ruMdLmnMGsPGFnBpOrxXhz2Xvjq8m3cOmQiroloHJcOdsKaI084sCxPX0VK4lF+nNpGYGzPV5qhwCVFQcYqpUhx5sVXy0PLn1IILUVDV2hwFLqXZoYCl2HYruJTroNb+dUuRiSzopHAJoYNcsBTbu97J9I6qdTUASDay65t3z9kZHS5R8yyOjzVsIrWIcy/StvnKJe0VS3FMSGDlWieddZ1+ret4h0s680a2sumeS/ko32zqHfnSj+GwgGnxr3VQkp0JbOhwqc65tXBJI5GY3gHH5ohwCVFQaYIlL7Z0nrm11+JqIdDcCDVsWi62ok9yOEYFS5TZ5mgWxV5sg9i/bu3ayIJOApcQOhjvX6KFXnBRo/Zqu1q4pKFZNVpoWe9Key610CxZ1Fzdv05qY8t+Er1bG69Esyj3P6exrnUUz+HatK7jHS7h5nLWchenxZ2P7PI0utLqpdZB2XhKxJdLCc6eViRRnVUDl3pITkaDS4iCCpGYeAJCfcKutysVXIiCSsum5WIrh0vWwFIcOxL+oO1ziy2EDkrBUuzneifTu5LWrVnV0qzpNTh2LevdGlzqIXdbm3u01smimd6Lq3e9gCXXOvoco1q2ruMdLqFmcsnumxVDh021vz0Jd5Y2PHr1JNz75PvzV9dKK4tkt0DfMLx1UMrup30vh0vLPpfCpV6Sk5HgEqKgQoAlT0DqNGyt4OIUPtRRaNq0XGzlcElrU+yWOoguuJD2OcUWQgdrwJLrHVVp+CB9ybKmZuXX4Nq1rHdLcKmlZkkjB6lF0jFx+nH0riew5FrHmWVM29Z1fF9w6fQ0PH35z/CPf/z7mnf/8Ic/h1t/uh1uv41xfDOrGTS68fG34WSBLl2ucCpAqMnAEa/dtQ7KZnNReSGHS3pwKSYm8S+dgKF9GhJ3RcEocAlVUKVf3BHv6Mc48E0f+eK0BJe4hQ/lyto2LRdb2nCpdZGGLriQ9qnFFkoHayG7r1yiqI0OXNLWrDQqiV3LejcHl1prlixq8Ks0peOi9qPqXW9gyeESdYZx7VrX8R3ApQNQOvk6fHH/UfiF5NejcPzg7+Fv924Hm5wpWzEU3g+f//hpuL7dUfbK2o2Pw7cnd4onuiXXXUKpw2lwK/DqEkKtt4t2WwclKQw6aORwSQcu5YlJtLg1WIpjGAEu5UeXa23+GH2DKNTyIs3hkkzc5uCSpPApXR1h03KxpQmXtijSkPAn11KtVV15fFKKLYRe5ToY/y2F7A6XSmoz/zn3tTiEZsWRSe1a1rspXNpCsyRRk5+OidAiyZi4fSh6t2azFoYv2aZorGsdd7Z127eu47eFS6dPw92/fhAe0ajSVU8fHYefvntociVTDoAOaCd8/Pln4c67F+/HvXr+5HCS28XrcPFvDRDNh14GpmL/w2lwn330bvh9ev3u1eHzr74MP6cLLAKuS+utg1L3kcJZc7i07Fvqa3GIxCSOqtbuCHCppuipSSK4T1yemKSTq3zlEteLFz8CxL+0obe08Fm7MsJmvJ7lYisff03RUqtZc/NGsTkyXKIUPfwnTbZ599x1vOCSeP+61m2hWTVaaFnvcrhE0RfuDCNtprHU6DT3fjTb18ClLcFS9IFrnWYk8G21ruO3g0unJ+G9m/eJq5WWHHkUHrx8Fu6ZW8J0FQAthsnCqqUcTs3tx3QVXq0HIWU/p9ZByX9stunhcKkOLiGSCA2wFG2MAJekv6ZvBZbi6ipPQORalsOlmsJnbQSxsIhx9fjxY/lAJz3TWOP/vHbSndoFAYZKJyiVLonQQqrNUeFS72DJC67SU1HOL0p6gdLBWrsjwKV8ZXQPq82XoiXXwfTj1d7g0tZgybVOrnVaPVvX8RvBpdNw8t7NcH92xdJRODoK4Z133nnj019//TWEX36ZB1FHD8LLZ/fsvSKX7b00HzyHV+a+PbwyN7PhdwkuRXtlwHTjsFH4Z+HTuQtMBtQ6KLUeJrQdh0vl5G/pS5xa+HDnUMvuCHBJc/UPolDz42q50b3ePulRnvRrQ6A4Am2bKeHfK1zS0qw8Ojg2R4RLCL2K/tUu0hymyzSQ8lpcLQBaGpmG3RHgUvQPdy/LtdnmaBY1aqY20VpHHZe0nWTlkrZmpbFzNda1TjrrOv1a1/HbwKWnd8NbH1xs4Pvm7/Ca24O//y3cW9ux+/Aa3cnhNboplDr+6Sw8vK0zAW2tvArPn/wQHv/r5/Dbm/fgDtDnj38JH905vMq2MBgKXDrvengF7skPj8O/Du/AvXkL7sZr+/+bvSpXuOnWQdl2DuRXc7i07Lu11+IQSUQciaZdh0uXc8tNIihP1JJNT0Ao3ptvk565lPRrQ6BoV9tm2sA/AabSSgS5d7A9pSuXNDUr3SHXJrrgQtqfK7YQehV9iyjSXO9kz2UJLmkAoLmRadkdAS5ZA0txPpFaJItkXi8uXEJoVq6FnNXxrnW8udZu3bqO3wQuPb37VrjKlg77J50d9k8ieXNm1dPxT+HMJl0i3fHWjVoH5db3S72+wyU+XOIWPtS50LbrcOnC84hCbc2mJyDUiL/eLl+5hIJAWnanRZrlYivOhAQuaWtWHIfEJrrgQtqfFlsIvUKBpWjX9U6md2twSQsATUemadey3km0bm2WJZpVipolm0gtKo1J43MOXOoJLLnWacx+nY3WdfwGcOk6HDp68DI842ycNF35ZPXVuLpYada7dVA2u7HKCzlc4sElRBIhLahKUy+FS/nqkdI1qJ+fnZ1Rm563S2OofS0OUaiVbHqxxZrqK41Lv+ZLLGsWVOn6czYtF1vxvrgFF0ILpTbRBRfSfl5slbRFEv9IsJQXf7VaLb23mn5Jq7nfTzXXTH2XtA6hV/Ga2nYt6x1X69bmW6pZUptILdKI65INKlzqDSzF+/LcrjS72M9b1/EbwKXDCXFvHU6Ie+NHwabc1zYD56x8wk7giNZbB6W2DxEFv/YY1+xtkbzV3t/0tThEEhHHiLK7d7iEKNQoNj0BkT952nBJu6BaK9IsF1tcuITQrBqb6IILaT/ZzvcZiwcDaP2hi7Q0TodLvBmb0zqEXiHAUq4XFl8D1oJLNZq1FC0lm0gt4kWwrDUFLqE1i/MqXH6XntvJ5lyrV+s6vgO4JAFDU0AlsaE1ZePbaR2Umh61DpaiL6zDpdIXvnS+0XZRvkeveKtduUSBQNw5o9r0BITr2cv2mnAJUait2dwLXEJoVq1NdMGFtJ9sx6dAWvQsPXG5ZsU2WtAqt5v2GnO4xNO9qdYh9AoFlhwuYX4UpOggUot4ESxrXYJLvYKleLee28nmXKtX6zre4ZLWzA1sp3VQarqSWnDlx2FTj9qmFEQ1SU+ybxkuIY6rjfFBSSQkcZTspr4I3/cMl6gQiONbjk1PQDievdqWqnWlK9Ro1pLtkk2KlpbGveXnlF/zEZqlYRNdcCHt5yuXtOBPjCOOZnHibmrX9Y7jvcu2udaVtEV2Bf1X4dI48lxzjyuXNDRrOqdUm0gtksYZp98aXOoZLDlc4swypm3rOt7hEmYeh7LaOig1nUcpuCRgKY6xVBDVJj1SuIRYrcWFLPkYtE8Vib5Pp0wdHx+rhUueoKRflLn3TRlMr3AJUVBxbXqxRYmg+TYUrStZr9WsOfsUmyUtLY17689LcIla/HDuQ8smuuBC2i/9ks/xZ2rL1SzqNebsut5RvXe1XdK6/McrrcMG4pUomiUZeZ5rxv57g0tampX7nmMTqUWSeOD2WdK73sGSwyXuTOu3b13HO1zSn8PhLLYOSk0HlgouKVgqwSWN5GQEuKQNlhL00bQb53KaoEj3XKLEbo9wCVFQSWx6sUWJIAxc0tCs6cioNkeGS5zihzr7mjbRBRfSvjZckmgWZc6W7LreUbx3vc30xytLYCkBsb3BJU3NShHBtYnUIlkk83rN6Z0FsORwiTfPiNat63iHS4hZHMxm66DUdN8aXKoBS2twiVpQle5TCpdKdtPnSMiRbD98+JA6nNV2+etqaLAUB7InuIQoqKQ2vdiSPy4lkL5mWUuz8mtwbI4Kl7jFD2X2tW2iCy6kfU24JNWs0pyt2XW9K3lvHaRTtzCgXoWjWVSbsd3UrmW9K63SnPOLtmbFa0hsIrWIEw/StlO9swKWHC5JZ1yvX+s6vgO4pOE839Bbw4tLNloHpea9LBVctWBpCS5pJicOly4ioTVY2hNcQhRUNTa92JKrnxQuaWpWGj3XpuViK/8uyGG6pPgpzT7CprTgyjfTLo2b+jn3xwgtuFSjWWv3VrLrekeNjKvtpFq3djWuZlFHPmfXst5x4RJCs6Q2pVpHnWt0u1zvLIGlfKx+eAE6Subtt67jHS5tM8+mrto6KDWdU4JLNb98TRME7eTE4dI2YCmHS5qx2NpW6Uu8VPhIxltr04stidcv+kgKLm3NiuOQ2LRcbM3BJWnxszb7CJu51knBjjxir/eUjqGkdTUASHp/FC10vZN5V6J1vYClXC9G33MJoVk1NkeBS/mrlZqnZFI0i/vE5mAp9q3Rau61tdonnUbswao1xpKd1nW8w6XSjPjn50WL1YdqLgmRFD9zYZAXRFo28+vsHS5tsWIp+R/xq3xrKVn7EkcmETXJjhdb8ijhFlwIzZLaHAku1RQ/S7OPsBmvlWssF+zII1WvZ+3KJYQOxruj2nW9k8UCV+t6Akt7gUsIzaq1OQpcSvFck2tNnwmqZnGe2Nxm2i/V4RLHg3ptW9fxDpf05m5YS62DUtOR0yREWvyswSXEiSX5a3sosNfznktbgqU418gkBGk7H/vSlzg6iag5EtyLLbn6cQouTR1MI66xOQpcyr8LtE6yrC2oSsAqfb43uITQQQ5Yim1d72R6x9G63sDSHuASQrM0bKJzL1k003vlP3paAksxJ3Sto88zomXrOn4DuIRwm9tEeqB1UGreS56E1BQ/a3Apflbzet3U9vS4Wk1/tLYlKVi2BksjwyVEQaVp0xMQ+RNKLbi0dTCOuNbmKHApfRdYAUv56xUSrZZHq05P6colTc3K74Rr1/VOFgdUresRLI0OlzQg0HTetGyOApesgSUH6TKd0+zVuo53uKQ5e4Paah2Umm5MSQhidVEqiBBgKU/6Nf3R2ha3YOkBLI0Kl7iFDyVWtG16sUXx+nwbSsFVC4HmrqxhcxS4pHmSJUoLp4Wa5YJLApe0NSs9ExK7rncyvaNoXa9gaWS4pAWB8rnTtGlZ6/K8VOvVMolmlZ7YJZuudSXPYT9vXcc7XMLO5xDWWwelptNSEhJtciBQKnY0x1LavLH1cbXIgo57okj0M6qYym1Tiz9kEoK0vZSAtEwiap4ZT0Dk3isVXBoQaDo6LZtILZJ7lN5Tondr1lFaOFeoofWI7kV+Sy5cQuhgHLXUrusdf85jj5LW9QyWRoVLmhAozZ+2Tctapw2XpJq19myt2XStk2mdVq/WdXyfcOn0NJwePPry5ctw8+bNc9++/fbbWj52O0wPtA5K5vBWm+crlx4/fkw23RoubXFcLbKg4xZbqGJKApbyL3HuyitKgKETnGnB1TqJoPhgro0fVyv13EW/tYJLCwLlI9S0idSiOq/SenP1bs0qSguXCjW0HtE8KGvFgUsIHYyjrrHrBZds3qVwSVOzarTQst7NaZ02BJLmbaVosqx1eV5au3KpRrOWfFyy6VpXik7s563r+G7g0unTk/D1F/fDo19WHHx0HB78/W/h3m0HTdgwvGq9dVBq3ps0CVkaAyI5WbKJTkCQ9jnFFqqYqklQkEkI0vY0ASl94UueNaTNNJ7a5ElyX7V9tj6udknrWmqW1IdILZKOidOPo3c9gaVcLxAgneNDSVsqXEJoVi1Yiv294JLMumzlEkIH4+gldi3r3VTrrIAl61qnBZcQWkix6Von0zqtXq3r+O3h0ulJuPvXAlSaejdCpu8ehnvOmLTibtVO66DUvClNuCRJIkr3smYTnYAg7VOLrR7BUk0Skp/mUZp76ufcoi+NId9nrOYEt3yclCSCel+pXb5iyeES13uX7ee0rrVmSUeP1CLpmDj9qHrXG1iq0TqOf1BtKXAJoVkaYMnhkjwquHkdQgelYCn2s6x3udZZAkt5rsnNqeSRqtuTondrV0RoIdWmwyXdWOBaa13HbwuXnt4N733wKKwtVlp24FE4/ulZeHib62Jvz/VA66Dkjm+tPTcJWbKFSE5KNtEJCNI+pdjqFSzVFFw9waV4H1ZOFUljffHixfkj6CuX+Co41bqSvvCvIPuVvnSd/HTM0r50JVtbfU7Ru7WxobSQUvyhV1Ii56RUbFELH+4Ytex6wcX1/EV7Tl6H0ME4hhq7yNxL5lF6rzQ1wCINAAAgAElEQVT2/McrK6djprvcI1zS0qw8Ujg2XevozxiiZes6fju4dFix9N7N+0KwlFx/FB68fOYrmBCRmNlsHZSat8NJQpauW5NE1NiUJiCt94uau8dSsYUqpuJYKAVVKcZGKLisgaW4usoTkFJkLn+ea91WmsUdfQ6WYt89wiWUFlJ1cAStm4PRnMKHE7eadl3vOJ6/bEvN6xA6WAuWYn9pbifzlm6vPL+kHpBCGQFVryi28ja53fTj1d7gkqZmJd9ybbrWcSNXt33rOn4juHQaTt67Ge5PlywdHVYj/f278Lebbx828M4ce9jg++k/vw5f3J9Z5XT0ILx8di/4G3K6gZhbax2UmndCTUJqIBB3vNSER5qA9A6XUMWUFliKdkYtuLixGttzkwjKNfJX4XII5gkIxXvzbfLDC2ISzTkds3RVqmaV7OSf5zZT0r83uITSQk6hNqLWITQLoYWudxzF4MElhGZpgKVR4BICLEXfIOwmm5a1Ls9LOSu7EVooselaJ9M6rV6t6/ht4NLhdbi3Dq/DXfk7/im8PLzjtg6JDpDp7s1wveuZvx6nFYEzdloHpeat1MAlRHLCsSmFS5r+k9paWrmEKqY0wZLDpctZlyQRpZhZAkuxnycgJe8tf560LiXonNMx167K0Szq6Kc2LWtdXixyfhFHaSEHLI2odQjNQoAl1zuqWlxvV8rrEJqlBZZGgUscrVub6ZY6uDe4hNBCqU3P7eR6p9GzdR2/CVx6evetq4CItfpoZtXTAUyd+eZLGvE3a6N1UGreSCkJWboWIjnh2rRccK0dV5uKX6339LXB0ogFl+SZkiYRa9daA0tebElm6bJPvnLJEliyXmxJ4FLLgqoUVZYLrumeSyjNij5MqwG1D0eItjkrEUrz2erzLU/HXMvruHkW1V+adkfL7ag+nLZrrYOWtS7PSyl6gdJCqQ46XJI+JTr9WtfxG8Cl63Do+CfmyqPpyicWnNKZqD1ZaR2Umr6VwCXNJCLdi8TmSAkIKolAgCWHS21fhcufd09A5Oon0bq1q0k0qzT6JZuWtY4Ll1BayF2xlObKcsGVwyVkMRV9hdjDLs0BpVgsPVutP+8RLiE0K/pV265lvSvtp0mNwy100LLWceASUgulOui5HfXJwLRrXcdvAJeehrtvfRAuX4oTbMp9bTPw4/DT2cPgB8eNEZSad8EtuLSTiJrEZJQEBJlERP+mX1K0VkJZP7K2dIJS6flCJialIs0TkNLsLH/O1bpewFIOZ0bfcwmphVIdtFxwpbHnJ1dpryyKtuOftt38+XO4xNO9Oa1D5G41+dvaHY2S2/Fm7bL1VjpoWeuocAmZv0nBUhy753bSp0Wn3w7hkgQMTQGVxIbOhO3BSuug1PQpp+BCJCc1NkdIQFLSn6ACAgAhNoBMMai1r4BmTJds1cAlZGJSAkuegJRmdv1zjtb1BJb2Ape2KqhKUWW54Epjp2hLyQ/55wgdjPanrwWnjewdLnFmJ4Sp1tXkWUtXjjbjH+pwhGjbIkyvXbm0pQ5a1joKXELolpZNh0s8jdNu3bqO72DlkgQMOVzSDrw1e62DUvPeqAUXKjmpSUxGgEtpLhEAKP2irA2sciC2J7iklUTMFWnU4s8TELn6UbWuN7C0B7i0ZUFViijLBVe+ckl7ZVHNr/RzPp/bb871rhSd85/nWofM3dL3lvYedumu9gaXttZBy1pXgkvI/E1DC13rZFqn1at1Hb8BXJruuaTwWpzvuaQVf7N2Wgel5s1QCi5kclJzHPgocAkFlrSgUoy36X4llpMQycolZGJCBUuxnScgcvWjaF2PYGl0uLR1QVWKqL1p3Zo/EDoYr7d0kIHrXSk61+FS/jqkNgBKP14h7KYVa3uCSz3ooGWtW4NLCN3StulaJ9M6rV6t6/gN4FII106LY572Vttfa7L2Yqd1UGr6tVRw9QqWrBdcCYxZBEv5l/geVi5pJxFrxVTp2fYEpOSh5c9LWtcrWLKudfn4p3rRQ0FViijLBZcEpC/5A6GDJS10vStF5zpcSj9cIACQls04xmmeOcIPh5zcqBcdtKx1S3AJoVsIm651Mq3T6tW6jt8ELp2evBdu3v/lis/IJ8ZNT4o7WDl68DI8u/e21hy4nYkHWgel5gS0PrJWE1btLQFZm3fpSUilWFqyazkJ4RRciCRi6Vf60lzEzz0BoXhpveDi/hquqVlpZFyblrVuCS71UlCVImovWrfmB4QOlsCS610pMpc/T3ldzcrwqXWuZlFHP2fXst5x91zqSQcta90cXELoFsKmax1VLXDtWtfxm8Clw9qlyYlx0aFH4fjB38Pf7t0O85joNDw9+Wv4YAKlQpDs2YSbwBEttw5KTR8uwSVEIqFtc08JSE9gKf8S5/w6pxm3NbaocAmRRNSAJU9Aamb9+ia3FGvamhWvKbFpWevm4FJPBVUpDiwXXFSt6xEsud6VIrMMl7ggfcmiRLMoo1+ya1nvOHCpNx20rHVTuITM3zT2WMqfjzwv9MMLKMqh36Z1Hb8RXAphbvVScufR0XF4551L5/7666Pwy9WFTm8+9FVL+kE4tdg6KDXvqNWRtYjkZC8JSG9gaQ9wCZmYRP9JkxNfuSRXP+5rcQjNktq0rHVTuNRbQUXR19hmZJC+5AOEDsZrUSG7651M77hat3YVqWaVRr5m17LeUeFSjzo4ClzK9xqzdJBBfGYcLpWUA/N56zp+M7gU3Xdt7ySuT5l7NXHNe/sLD7QOSk2/tzqytuZUuKX73UMCQil8NPdtitejvGJnOQkp/ZqPKKioxVTp2fZiq+Sh5c85BReioKqxaVnrcriUnzSpqVsUzeJGTl787REuIXSQA5ZiW9c7btRe5qTxX7Url2o0a23kJbuW9Y4Cl3oES3G+LOd1+fjjv6U/4M3FLVoL8+9Fh0syzavt1bqO3xQuHdYvHQDT4VW3RwvLkla8eXQAS989XHqFrnYavH/ugdZBqen9VkfWar77H+8/JScaCZSmP6m2KAnImi1EMRWvR7VrOQlZg0uIJEILLHmxRX265ttR4VKp8JGMotam5WIr+iuNP/nOCljKk/49rVxC6GCce64WOlySqI3sFeDplWo1a2nkFLuW9a6U2/UKlnI4Y1Hr8vEjwBIaWLnWybROq1frOn5juHThttOnJ+HrL+4HEmM6vDL34O9/C/du+wbeWkFXstM6KEvj4Xyeb/yovbqIkkRwxpra5mAp/m+1v85JxlDbp5SArNmnAiDuGDl2R4RLiIKKW0yV5swTkJKHlj+nwCWEZmnYtFxsTeGSJbB0fHxs+tf80irNuacFoYMSsBT7uN7J9I6idWuWNTRrzj7VrmW9W8vtegZLI8ElrdU/2vlbeibmNNa1TqZ1Wr1a1/FdwKU3zjs9rGT65z/DP/797/Drr7+++Z/fOWzA9Ic//Dn86U+HlUrOlLRijWyndVCSB0ZomJKQ2FRzdRE1iSAM8UqT3G6EYXuDSxwAxPEt1+5ocAlRUCESE09AOFF9tW2p4EJolpZNy8VWDpesgSXrBRcXLiF0UAqWHC7htK5nsJTrxUg/HPYOlqxrXT5+DbiEyN9yLZyurvLcTq53Gj1b1/F9wSUND7oNdQ+0DkrNG0AeWYsGVpYLLsnKJS4AosaJxO5IcAlRUKESE09AqFF9vd0aXNKCQPlVNW1a1rq8WNR63UKiWaXIWbI5ktat+QChgzVgyeFSKWKXPy+B9KWemppVo4WW9W4ut7MAlhwuXUYsKn9b01jP7eR6p9GzdR3vcElj1ga30TooNd0pTUJKyQkaLOUFy0i/bi35FVFMxWtJ7Y5ScKEKqpQooN791/hlTlNHKLaST87OzijN1dssaR2ioNK2abnY0oZLUs1aC6g1m6NonTWw5HBJLoGSvE5bs9LoJXYt690ULlkBSw6XLiJ2C7DkWifXOq2eret4h0taMzewndZBqelKSRLSA1jaE1xCFFM1YMl6EpKKRcRxtXlyggJL8RoOl/gqOKd1ksKndGWETcvFliZcQmhhyebocAkF2DWKNP81v6Q2859z8zqEZsWRSe1a1rscLlkCS/lYtVaYyqJX3ov7GvD0ShqaNTd6isa61snnXaNn6zre4ZLGrA1uo3VQarqTm4T0Apb2ApdKhY80FmrtjlBwRd9pAiA0WPLjaqXRftFvqnXSwmdtFAib1rVOCy7VatbcvFFsjqB1SzCaUvRInjqtIs0LLon3eafFoTSrxu4IcCn/vray11yKtj3CJS3NWgJWpVzTtU6mdVq9WtfxDpe0Zm5gO62DUtOVGnApP72t5abgIyQga1/ilMJHEgsadkcouEpf9lzfIgq1qU1PQLizctk+17qawmdtBFGTNDUwXivXV4uvAGvAJQ3Nms4b1eYIWjcHlxB6lQN2DXjveifTO2peh9LBWrsj5HZp5qyApRyG7Q0ubQ2WYqy41sm0TqtX6zre4ZLWzA1sp3VQarqSmoQsXXMrsJQXLBYLrtKG3tTChxsLWnZHLbi4/kztEYWaH1crnY35fvnhBfGkSQQEild+/Pix2sBzfY1GLWpdLVzS0qx8Ujg2R9Q6hF5pgyUvuOQyQsnragFQKSes0ddR4JIlsHR8fBwsa12MR8lrcT2AJdc6udZp9Wxdxztc0pq5ge20DkpNV1KSkFISET+vSSSm9qlJzwgJyNwvRJzChxMLmnYtJyGSBGTNz4hCbcmm/7rFifirbZPWaetVtBc1CwWW8l+U9waXNDUrRQPX5mhah9ArBFjygqte65b0gppjcUegZXeE3M4aWMrhzF5WLvUCllzruEqj3751He9wSX8Oh7PYOig1HSiFS1uuWEr3P0ICMv0S5xY+1FjQtjtawUX147QdolDz42qls7HeL1+5hFhdhATslrUuzkpppebczGlrVryGxOZIWofQKxRY8oJLroNreZ0WAJqOTtOuZb2TaN3aTEs0qxQ5SzYta10OxygHnvQEllzrShGL/7x1He9wCT+n5q/QOig1HSaBSz2Apbxgsfhr/lwCgkgipAVVKcYsJyFaK5cQhVrJpq9cKkXm8ucSrStdTbOgSteas2m52JLAJYQWSm2OonUlbSnF+tLn6CItXpdSLErHj+qXtPrs7Ax1iUW7S1qH0Ks4CG27lvVOEy5JNUsKqyxrHQcuoTVLsp+n53bNZfLKBVvX8Q6Xtp1vE1dvHZSaTuEWXL2ApdHgEiqJiH5K+8vEd+q1/iwnIRpwCVGoUWx6AiKPYK7Wla6kXVCtFWmWiy0uXEJpoVQHR9C69GqlpOhZew7QRVq6tsOlkhpd/XxO6xB6hQBLo+V2vJm7bL2FDlrWOipcQmuWVGM9t5M+KTr9WtfxDpd05m1oK62DUtOZnIKrJ7A0UgKCTCKinzTf/Y/20njjvy2+m18LlygQiPuMUm16AsL17GV7jtaVroIo1NZs7gUuIbVQqoOWC6409vQ9cOvWrVJokz/PNSt20rKd241AMP45XCJPy3nDqdYh9CpeB2XXst5prFzaSgctax0FLvUKluLYPbfjaZx269Z1vMMl7Rkc0F7roNR0IbXg6g0sRR+MkIDkvyhrrSzK4Y+0oFqKsdz2HuESFQJxnlGOTU9AOJ692paqdaUrIAqqkk3LWpdr9RqM3qqgKs235YIrjV36a/qSbziaVfJv/vnUrusdx3uXbXOtK2mL7Ao4sJTnmqNsecDx8ZY6aFnrSnCpZ7DkcInzhGDatq7jHS5h5nEoq62DUtN5lIKrR7A0ClyK96EJgFqApfz0qj2tXEIUVFybXmzJ1Y+idSXriEKNYnN0uLRlQVWac8sFV+0qzTnfcDWr5N/0+Zxd1zuq9+ZBev7jVe+HGMQ7yHPN+N97g0tb66BlrVuDS72DJYdLMp3T7NW6jne4pDl7g9pqHZSabiwVXL2CpVHgkkWwFFdYWU5CJAUXoqCS2PRiS65+Ja0rWaZAoJKN6edUmyPDpa0LqtKc7U3r1vwh0aySf+PnS3Zd7yjeu94maV38RPMUyxwAIe2m1yH3BJd60EHLWrcElyyAJYdLMp3T7NW6jne4pDl7g9pqHZSabqQcWaudoFALqtJ9Wi64NN7Lz/3TasVSenXPchLChUuIgkpq04utkiosf14Dl7Q0Kx8dx6Zlrct/CJiudOyhoCpF1J60riew5AVXKTLLWocEQMiVUJb1TpLb9aKDlrVuDi5ZAUuudXKt0+rZuo53uKQ1cwPbaR2Umq4sHVnbK1jKC5Y9/bo1N/etwVL+JT76a3FSCIQq0hwuydVPCpc4EIg6Oq5Ny8XWElzqpaAqzZnlgosL0pd8gdDBeK2SXde7UnTOfy7VurWrcTWLOvI5u5b1jguXetJBy1o3hUuWwFI+Vj+8gKocuu1a1/EOl3Tnb0hrrYNS04lrR9b2DJYcLl1EwRZgaS9wqVT4SJ7DWptebEm8ftFHUnAhCiqJTcvF1hxc6qmgKkWU5YJLAy7ValYNsHK9K0VnG7gk0SzKyJfsWtY7DlzqTQcta12el+b7gmoeZoDQwhwsxXtwuERRDv02ret4h0v6czicxdZBqenApSNrewdLDpe2A0t7gEvIJKIm2fFiS65+XLiEKKikNi0XW1O41FtBtRZRObwffZXmnB8QOhivQ7XreifTO67WrV1Fqlmlka/Ztax3VLjUow6OApdS7NXkWtP4pWpWKe7zz3ObaZ8xh0scD+q1bV3HO1zSm7thLbUOSk1Hzh1ZawEs+XG1j0L6MtLcFDzOPSXpsZyElH7NRycRt27dEj/CXmyJXcdauYQoqGpsWi62criUn16V9m+Tz+hFT4peSa6Rg6XYf29wCaGDHLAU27reSSJXtkpz7ko1mlUDrCzrHQUuITRLw6blvC7GWxp/qmFqcq0lCISy6Von0zqtXq3reIdLWjM3sJ3WQanpygSXpstItTZrRCQnflzttmAp/xIfreBCFFSaNj0Bkasf9dd8pGZJN9i1XGzlcCkl/VbAUv69OJrWrT1JmppVU6S53sn0jqp1NQBINrIQKPpqWe9KcEkDAk19r2VzFLhkacVSglWudVJF0enXuo53uKQzb0NbaR2Ums7Mj6xNib8FsJQn/Xva0HurPZamMWc5CVlauYQoqLRtegIiVz9KwUUpfLgj0LBpudjK4ZLmKkuUFk4LtRG1zgJYimN0veOqzUV7itb1CpZyvRgtt9OCQPncadq0rHX5j55ar5Zp529xjEs2XetkWqfVq3Ud73BJa+YGttM6KDVdmcMl6a/qc+PRKKimdqc2LRdcpV+35nyKKqbitbgJiuUkZA4utUwiap5fT0Dk3isVXC00Szp6y1qXF4taq39QWjing6NpnRWw5HBJqhZ1cAmhg/FOOHYt691SbsfNsSizr23TstZpw6XWOaHndpSIx7VpXcc7XMLN5TCWWwelpuPy1+KsrFhK4xwxAVmaW1QxJQFL+Ze4VrGoGdMlW1O41DqJKI1v6XM/rlbquYt+a3CJU/hQR6Fp07LWacMllBYuFWqWC67S/nJ5LCN0MNqvsesFF1VtrrYrgfQlq5qalV+Da9ey3s3BJW0IJM3bStFkWes04VKNZpXyt6VX9lzrStGJ/bx1He9wCTufQ1hvHZSaTpMmIS2TEz+udvs9lqbzbTkJyQuuLZIIyfPrx9VKvEYruLiFD2Uk2jYtF1uacKk1WMoLlhFAurTwocT8XJtaffWCS+Z5SV6nrVlp5BK7lvVuCpesgCXrWqcFl2o1S6qDrnUyrdPq1bqOd7ikNXMD22kdlJqulCQhPYClvGAZ7b383L+oYipeoybpGQEu5SdXoU4A0XhWp2Ap2tTaU0BjfFQbKXk6OzujdlFtN6d1ksKnNCiETcvFlhZcQmlhSQdH0Lo1vUAUU3HONex6wVVSm/nPuXkdQrPiyKR2LetdDpdK2iKZXYTNPB+M/7YI0jXgkoZmTeeUatO1TvI06PVpXcc7XNKbu2EttQ5KTUdyk5BewNIe4BKqmKoFS/mXuMUkxOJxtdHn+Sb2Dpf4KjjVOmnhs3ZlpM14XYsgXQMuobSQUqiNDJeohQ/3adOy6wUX1/MX7Tl5HUKzasDSKLld/uOVldMxU7RZzOtq4ZKWZuVPLMema51M67R6ta7jHS5pzdzAdloHpaYrOUlIT2BplARk6UscVUxpgKVR4JKV42oTWIqrqzwBkatfrnWIggppM931HuESSgspYGkUrZuD0ZzCh/PUadp1veN4/rItNa9DaFYtWBolt0vf21bAUv7j1d7gkqZmpaeQa9O1TqZ1Wr1a1/EOl7RmbmA7rYNS05XUJKQ3sDRKAjL3JY4qprTA0sgFl+TZ4iYRlGvkr8LlEMwTEIr35tvkhxe8ePHifCWYlUMM4njj397gEkoLqWBpVK1DaFb0lbZd1zuZ3lHyul7B0ii5Xfx+0QZLaGBleZVmrtWcld3amiXVQdc6mdZp9Wpdxztc0pq5ge20DkpNV1KSkB7B0igJyBQuoYopTbA0asElea6QiUlKJPP9oDwBkczSRZ+kdcmvVsBSHKflPUhyreb8Io7SQg5YGlHrEJolLahKT7PrXclD85+X8rqewdKouZ1sJi/3xkSDJetaJ4FLCC2U2nStkz4hOv1a1/EOl3TmbWgrrYNS05mlJKRXsDRiAoIqprTBkvUkhHM899qzJk0iKDbnwFL83zwBkatfvnLJEliyrnUSuITSQi5YGk3rUJoV/ZRWA2ofjhBtc1YiyBVCt+eWBxis5XW9gyXrejc9La4mqlrr4J5WLqG0UKqDntvVPCn1fVvX8Q6X6ueswsKr8PzJD+Hxv34Ov/322syNG+H9P/4lfHTn3fD7Csux66vnT8IPj/8V/t/BeDIfkv3/PdgnXqB1UFbe9pXuEriESE4kNi3/mr90XG2CClrLqRFgabSCS/I8IROTJbDkcEkyU5d9JFq3dkWJZpXuYMmmZa3jwqXWBVVpTiwXXDlI30qzSv6d+3x6QqbDJZ4Xl7QOoVlxZNp2LeudFlzaQgcta12el5b0AqmF0r08HS7xNE67des63uGS9gxS7b16Hr755Mvw82L798Pn334a3iUCoKtmDtDqm6/Clz+/QUozVzlArM9PwqfvlgfcOijLI6K34BZc2klETWIySgKCTCKif9MvKVrAKh8v5zUXelRiW9auXEImJmtgyeFSXVxwta4XsJTDmdH3XEJqoVQHLRdcaez5yVXaK4ui7finbTd//krFYp0yYHr3tnIJkbvV5G9rXh8lt5NG1lY6aFnrqHAJmb9JwZLndtInRa9f6zre4ZLe3DEsvQpP7n0Svl9jP9HajY/Dtyd32CuYnn/z4QEsUYZzI3z87Um4UwBYrYOSMnJqG07BhUhOamyOkIDkJ3RY2gAyxdfe4BIyMSmBJU9AqKo2346jdT2Bpb3Apa0KqlJUWS640tgp2lLyQ/45Qgej/elBBmkje4dLnNm53F8uweiaPGvpytFm/EMdjhBtW4TptSuXttRBy1pHgUsI3dKy6SuXeBqn3bp1He9wSXsGCfZePbkXPklk6cb74ePPPjoAngvCE19l++rL79+8xnbj42/DSYn+5Nd89STc+yT1j6uTPgsfHZY/JX508arc9+HNoqb3Pw8/FpYvtQ5KggvJTagFFyo5qUlMRoBLaaIQYCn9oqy9Ysn6kbXSlUtaScRckUYt/jwBIUvbtYZUresNLO0BLm1ZUJUiynLBla9c0l5ZVPMr/ZzP507IdL0rRef857nWIXO39L2lvYdduqu9waWtddCy1pXgEjJ/09BC1zqZ1mn1al3HO1zSmjmynXzV0uHVtx8Pr75d63t4Ze7D16/MMVcvXYKrtVVJmf2wNIbLQbUOSrIrCQ0pBRcyOak5DnwUuIQCS1pQKYbRdCNcy0mIBC4hExMqWIrtPAEhiNpCE4rW9QiWRodLWxdUpYjam9at+QOhg/F6c2DJ9a4Umcuf54cX1PyAN3eFPB+Mn2uDpfzHqz3BpR500LLWrcElhG5p2/TcTq53Gj1b1/EOlzRmjWMjW1m0tiqJBomuX/jNK3EFKMWx3zooOe4stS0VXL2CJesFVwJjFsFS/iW+h9fitJOItWKq9Lx6AlLyULngkhQsW+ugZZCea/VUL3ooqEoRZbngkoD0JX8gdLCkha53peic/zzldfHTmh/wptYROhivMbVrWe8kr8X1ooOWtW4JLiF0C2HTtU6mdVq9WtfxDpe0Zo5q5/k34cPzDZEK+x0RIRT1stfaUcdx6Ng6KMX3NNOx9ZG1msnJ3hKQtXmXHLFNiaMlu5aTEE7BhUgiln6lp8yHJyAUL60XXFy4pKlZaWRcm5a1bgku9VJQlSJqL1q35geEDpbAUvzc9a4UnetaZxEs5XrB1WqZt3R7ceFSTzpoWevm4BJCtxA2Xet0n0GJtdZ1vMMlySxV9LlcMVR6He3y1TX2vkuE8V1u+l0ax5hwiVv8EFzqx9VmTuImID2BpfxLfOSVS4gkogYseQJCUZnlNqVVmnM9e9HB0eBSTwVVKaosF1wckL7kB4QOUsCS610pMnW1bu1qCB2M11uya1nvOLldbzpoWeumcAmhWwibUy30wwvkulfT0+FSjfcM9KVDnWxfJMKm26xbzzf9JthuHZSseyk0niu4EIkEwuZeEpDewNIe4BIiiagFS15s1SkfFy4hNEtq07LWxVnLC67eCiqKvsY2I4P0HsGS651c77ha1xNYyvVi5JVLPergKHAp7dulsdF2ejYQOeEULMX/drgk172anq3reF+5VDNbgr7UPZEO58aFJ/c+CeeHyhEAEH0ovM28o90YlP/973/pl+io5e9+97vz0aCPrNXeVHIvCQil8NHctylej/KKneUkpPRrPiKJ0ABLoxRbW2nlVOtaF1RSsGRd6/Lx55v1auoWRbO4X7t58Rf77g0uIXRwWkyVir8RXovbQu84WtdaByJ6VYUAACAASURBVOP1SlpoGaZTVi71CJbivFjO6/Lxx3+XtIXzfYDWwvx70TJc2kLrOPO41jZq5tnZmZa5oh2HS0UX6TbYFi4dwNK9wyl0EVgd/t7//Mfw6fWj6q7dcGviqenxVkfWar77nycn8d8j/7q1NNeIYipei2rXchKyBpcQSYQWWIrzM0Kx1fILPH9+qL/mlwofif7W2rRcbEV/pfEn31kBS3nSvye4hNDBOPdcLXS9k6jNxQ+etblRrWYtjZxi17LeleBSr2ApzpflvC4fPwIsRfsIu8mma51M67R6ta7jHS5pzRzRzmZw6dUBLH1yAEuvx8nZx6l1UBJdSWrW6shareNqp2CpNoEiOQnQqJSArF2SCoC4w+bYtZyELMElREHFLaZKc+YJSMlDy59TCi5K4cMdgYZNy8XWFC5ZAkvHx8emC67SKs25WEbooAQsxT6ud1y1uWhP0bo1yxqaNWefatey3q3ldj2DpRzOWATp+fi1Vv9o52/pmZjTWNc6mdZp9Wpdxztc0po5op0t9lx6dTgZ7qvDCXWvFywFDlhKX+Rb/RpPdOtiM8tH1sZX7fYGlzgAiBMbXLujwSVEQYVITDwB4UT11balgota+HBGoGXTcrGVwyVrYMl6wcWFSwgdlIIlh0scpeFpXc9gKdeLkVal9w6WrGudNlxC5G+5Fk5XQXluJ9c7jZ4OlzS82LGN1qfFXV4vOuXG4VW4zw6vwv2e5aHWQckaXKFxvnJJa3VRKqjipTVfh5sWapYLLsnKJS4AosaJxO5IcAlRUKESE09AqFF9vd0aXNKCQPlVNW1a1rq8WNT6RVyiWaXIWbI5ktat+QChgzVgyeFSKWKXPy+B9KWemppVo4WW9W4ut7MAlhwuXUYsKn9b01jP7eR6p9GzdR3vK5c0Zo1j47CK6MPDKqIIej7+9iTcWeI82Ylu1L2Rrg7jVXj+zSfh/FLnXOn98PlnnwYmVzrv2jooOe4stZUmIaXkJH6OBEt5wTLSr1tLfkUUU/FaUrujFFyogiolCoh39OO8aS37LumD5ufJJ1ut8lzSOkRBpW3TcrGVa7UGXJJq1losr9kcRevW7h+lg7VFmhdcMgWW5HXampVGLrFrWe+mcMkKWIrzZVnr8vHX5Ee1mrX0xJY01rVOpnVavVrX8Q6XtGaOaieDRmuvp12uOCpAqIXrXr5+F8HSx+HbkzuBt17p0nDroKS6ktJOkoT0AJb2BJcQxVQNWLKehKQECnFcbfRNKYmgPJfTNnnC43BJ4sH5fUgkhU/p6giblostTbiE0MKSTcsFF+W1OIRe5ToY/y2F7F5wldRm/nNuXofQrDgyqV3LepfDJUtgKR+rxo8Assit60XRu7UrbAWW4phc6+rmvrZ36zre4VLtjLH7vwpP7n0Svj/fAOmwmujHw2qiazYOm29/+HrzbQEYyl+Fu/H+5+GEciTcyn20Dkq2Swtjjx/Xrv5p9SpcfiujJCBr81kqfKSxUGt3hIKrpuhZ8juiUMttpn3Gan6Zk8ZMbb/eVi5JC581PyBsxutZ1rp8/DVFS61mzc0bxeYIWrekFwi9in7WKtK84JKpLgcuoTSrxq5lvUtjz0+atLLXXIq2Gp2WRaxOrxq4pKVZ0zuhaqxrnU4MSK20ruMdLklnqqLfdB+kjw/7IN15/b7aq+dPDptvfy/efDtkK6MOGyyFHyvBUrzN1kFZ4dprXTlJyNJ1twBL1gsuyp5LlMJHEgsadkcouKS/pm8Flm7duuW/bkkC/nWfXOtqCp+1IcTnWvN14HitXF9rfwSocF9VV4rerV1AQ7Om9qk2R9C6ObhELXq4E69ZpHnBxfX+RXtqXofSwVq7I8ClNHNWwFIOw/YGlzQ1K39iORrrWifTOq1eret4h0taM8eyk61MWuu3sGoph1PT/ZiuvA5HHFNpT6fWQUkcNqkZNQnpDSyNDpeohQ9pkrNGWnZHLbi4/kztOUkE9Rp+XC3VU7R2+eEFcQUYAgLFkWgdjBBt5WAp/vce4ZKWZuVRwrE5otYh9Cr6V7tI84KLpm3TVpS8rhYAlXLCGn0dBS5ZAkvHx8e73HNJW7OkOaFrnUzrtHq1ruMdLmnNHNdOvsJotu/hlblv5zfgXoZLRGg1uZ7DpfnJ22rFUhrNCAnI3C9EnMKH81hp2h2x4OL4Mm+LKNSWbHoCIp2ly1/zo4WawmduBFELUWAp/0V5b3BJU7PSvHFtjqZ1CL1CgKVo0/VOpncluNQzWIp3PEJuZw0sRb9b1rp8/NRtA3oBS651Mp3T7OVwSdOb3ds6nOj25Ifw+F8/h9/O92A6/N24Ed7/41/CR3feXdyAexEuFYHVvEMcLl33y9ZgaZQEZAqXuIUP9RHWtms5Cal5L3/qb0Sh5sfVUqOa1y5fuYRYXaQJrKbFn+ViK9dqzusW2poVxyGxOZLWIfQKBZa84OLpW956DS71DpZGze2ksynRrNK1lmxa1jouXOoJLLnWlSIW/7nDJbyP/QpMD7QOSubwVpuXfuGa69wDWBoxAUEkEdKCqhRjlpMQLbiEKNRKNv2X/FJkLn8u0brS1RCF2pzNvcElhBZKbY6idSVtKcX60ufoIi1el7oSQXoPiH5bHmCwpHUIvYq+07ZrWe9q95fLY1GqWWvxvGbTstZx4BJasyT7eXpuh1Bhus3Wdby/Fkefm922bB2Umo7mFly9gKXR4BIqiYh+SvvLxHfqtf4sJyEacAlRqFFsegIij2Cu1pWupF1QrRVploutXKspK5dQWijVwRG0Lr1aKSl61p4DdJGWru1wqaRGVz+f0zqEXiHA0mi5HW/mLltvoYOWtY4Kl9CaJdVYz+2kT4pOv9Z1vMMlnXkb2krroNR0Jqfg6gksjZSAIJOI6CfNd/+jvTTe+G9KsagZrxq2auESBQJxx0m16QkI17OX7TlaV7oKolBbs7kXuITUQqkOWi640tjT90A8cVLrL9esaFPLdm43AsH453CJN2tTrUPoFQosjZTb8WZtW7CUwxmLeV0+/iW96BUsxbF7bid9WnT6ta7jHS7pzNvQVloHpaYzqQVXb2BplAQk/0VZa2VRDn+kBdVSjOW29wiXqBCI84xybHoCwvHs1bZUrStdAVGolWzuAS71CJasF1wJLkl/TV96FjiaVXqe8s+ndl3vON67bJtrXUlbZFfQfxUujSPPNS0eYFD7WtyWOmgZpJfgUs9gyeGSVIX0+rWu4x0u6c3dsJZaB6WmIykFV49gaRS4FO9DEwC1AEv56VUWf+GSrlxCFFRcm15sydWPonUl64hCjWJzdLi0ZUFVmnPLBZdU69Z8wtWskn/T53N2Xe+o3psH6fmPV70fYhDvIM8143/vDS5trYOWtW4NLvUOlhwuyXROs1frOt7hkubsDWqrdVBqurFUcPUKlkaBSxbBUlxhZTkJkRRciIJKYtOLLbn6lbSuZJkCgUo2pp9TbY4Ml7YuqEpztjet6wUsecFViszlz5PWpR+vLIGl/MerPcGlHnTQstYtwSULYMm1Tq51Wj1b1/EOl7RmbmA7rYNS05WUI2u1ExRqQVW6T8sFV+3S6alvWq1YSq/uWU5CuHBJAoFKsSu16XCp5NlywSUpWLQ0Kx8dx6Zlrct/CJiudOyhoCpF1J60riew5AVXKTLLWhdBjTWwFMdrWe8kuV0vOmhZ6+bgkhWw5Fon1zqtnq3reIdLWjM3sJ3WQanpytKRtb2CpbxgkRSLmj6U2JIkIEvXaQ2W8i/x0V+Lk0IgVJHmcEnytF30ka5c4kAg6ui4Ni0XW0twqZeCqjRnlgsuLkhf8gVCB+O1SnZd70rROf+5VOvWrsbVLOrI5+xa1jtubteTDlrWuilcsgSW8rH64QVU5dBt17qOd7ikO39DWmsdlJpOXDuytmew5HDpIgq2AEt7gUulwkfyHNba9GJL4nU5XEIUVBKbloutObjUU0FViijLBZcGXKrVrBpg5XpXis42cEmiWZSRL9m1rHccuNSbDlrWujwvzV+t1DzMAKGFOViK9+BwiaIc+m1a1/EOl/TncDiLrYNS04FLR9b2DpYcLm0HlvYAl5BJRE2y48WWXP24v+YjCiqpTcvF1hQu9VZQrUVUDu9HX6U55weEDsbrUO263sn0jqt1a1eRalZp5Gt2LesdFS71qIOjwKUUezW51jR+qZpVivv889zmixcvzj9yuMTxoF7b1nW8wyW9uRvWUuug1HTk3JG1FsCSH1f7KKQvI81NwePcU5Iey0lI6dd8dBJx69Yt8SPsxZbYdazX4hAFVY1Ny8VWDpfy06vS/m3yGb3oSdEryTVysBT77w0uIXSQA5ZiW9c7SeTKXwGeXq1Gs9ZGXrJrWe8ocAmhWRo2Led1Md7S+FMNU5NrLUEglE3XOpnWafVqXcc7XNKauYHttA5KTVcmuDRdRqq1CWQpiZDcix9Xuy1Yyr/ERyu4EAWVpk1PQCSKcdGH+ms+UrOkG+xaLrZyuJSSfitgKf9eHE3r1p4kTc2qKdJc72R6R9W6GgAkG1kIFH21rHcluKQBgaa+17I5ClyytGIpwSrXOqmi6PRrXcc7XNKZt6GttA5KTWfmR9amxN8CWNr7cbXaRVq0x0lQLCchSyuXEAWVtk1PQOTqRym4KIUPdwQaNi0XWzlc0lxlidpvbqqDI2qdBbAUx+h6x1UbHkhfsq6hWXO2qXYt690aXOLkWNSZ17RpWeuiv0qr0qk+Te2087dod8mmax13dnTbt67jHS7pzt+Q1loHpaYTc7gk/VW9Jong3Ms0MRk1AVnyCaqY4oKl/Et8lF/zWyYRnJiftvUERO69ElyiFj6cEWjZtKx1OVzS0guUFs4VapYLLm6xhdDBtYKq9Cy53pU8NP95SevWrGpp1vQaHLuW9W4JLmlCoORbbZuWtU4bLiG0cM2ma51M67R6ta7jHS5pzdzAdloHpaYr89firKxYSuMcMQGxAJZGg0utkwjp8+vH1Uo9d9FvreDiFD7UUWjatKx12nCpJVgaTevWYhehgzVgKfb1gouqNlfbSeGSpmblI+Latax3c3BJGwJF3yJsOly6iFqEFpZsutbJtE6rV+s63uGS1swNbKd1UGq6UpqELI2Bm0RQ7sWPq91+j6XpPFlOQvJf80tf+JT4nLZB2kzX8hNF+DOzpHUtNYs/6oselostTbjUGiztBS4hNEujSPOCS6YYkrwOoYNx9BK7lvVuCpcQEAhh07rW5eOvyY8QWkix6Von0zqtXq3reIdLWjM3sJ3WQanpSkkS0gNYsl5wlTZ9TD5GFVPRfk2CMgJcyk+uQp0AovGs5iuWHC7JPTqndZLCpzQChE3LxZYWXEJpYUkHR9C6tWKLUviUYn7ucw27XnBJPE8/vCBZR2iWFCyNlNuVtEUyuwibeT4Y/631+rLk/mr6cF8Dnl5LQ7OkNl3rama+vm/rOt7hUv2cDW+hdVBqOlQLLiGSk5JNywUXBS6hiqlasBT7j1BwxfuwcqpIGuuLFy/OH/+aX+Y09YNjKyVPZ2dnnG5qbadaV9IXyYWRNuN4/vOf/0iGtXkfit6tDRKlhZRCbQStW9ILRDEV51HLrhdcskeXk9chNCuOusbuCLld/uOVldMxU7TtES5paVb+xHJsutbJtE6rV+s63uGS1swNbKd1UGq6kpOELF23JomosTlCArL0JY4qpqK/KQVVKcZGKLisgaW4usoTkFJkLn+ea91WmsUdfRpn6rdHuITSQqoOjqB1c3CJU/hw4lbTrusdx/OXbal5HUIHa8FS7D9CbhfvA3E6pqbNaT6YfrzaG1zS1Kz0FHJtutbJtE6rV+s63uGS1swNbKd1UGq6kpqE1EAg7nipCc8ICcjclziqmNICS9HOqAUXN1Zje24SQblG/ipcDsE8AaF4b75NfnhBTKItnY6Zkv69wSWUFlLB0qhah9AshBa63sn0jpLXUfMs7gg07I6Q22lCoFY6aDmvy7Was7IboYUSm651XKXRbd+6jne4pDt/Q1prHZSaTqQkIT2CpTimERKQKVxCJRGaYGnUgkvyXEmSiNJ1lsBS7OcJSMl7y58nrYstLIGleDqmZa3LtZrzizhKCzlgaUStQ2gWAiy53tVr3RKM1gBAc6PTsmtZ72pfAZ76taUO7g0uIbRQatNzO7neafRsXcc7XNKYtcFttA5KTXdK4ZJWEpHfC9fmaAkIKonQBksjFlySZ0qaRKxdaw0sebElmaXLPvnKpQhsNP64mkW55pxNy1ongUsoLeSCpdG0DqVZ0U9pNaD24QjRNmclAuUZa9Fmyz3m1vI6hGZFf2ratax3mnCptQ7uCS6htFCqgw6XWqjy8jVa1/EOl7adbxNXbx2Umk6RwCXNJCLdi8TmSAkIKolAgKXRCi7J84RMTOJ4lvaD8gREMlsXfSRat3Y1iWaVRr9k07LWceESSgslYGkkrdtKs0oxP/f59IRMh0s8Ly5pHUKztMFSrhcWXwPWgktb6OBe4BJSC6V7eXpux9M47dat63iHS9ozOKC91kGp6UJuwYVITqQ2LRdceQKCTCJirKRfUrRPLIm2Oa+5aMZtja2ej6tdA0vxM09A5DPP1bpewJL1YosDl5BaKNVBywVXGnt+cpX2yqJoO/5p282fP4dLPN2b0zppnlW6MsLuKLldyXdLn2+lg5a1Lv8hYE0vegRLnttJnxS9fq3reIdLenM3rKXWQanpSE7BhUgiamyOkICkpD9BBQQAQm0suUe4hExMSmDJE5A65eNoXU9gaS9waauCqhRVlguuNHaKtpT8kH+O0MFof/pacNrI3uESZ3aur9KsybOWrhxtxj/U4QjR9h5XLm2pg5a1jgKXELqlZdN/OORpnHbr1nW8wyXtGRzQXuug1HQhteBCJSc1ickIcCnNJQIApV+UtYFVDsT2tHJJK4mYK9KoxZ8nIHL1o2pdb2BpD3Bpy4KqFFGWC6585ZL2yiLp6x9L/p7bb871rhSd85/nWofM3dL3lvYedumu9gaXttZBy1pXgkvI/E1DC13rZFqn1at1He9wSWvmBrbTOig1XUkpuJDJSc2pTaPAJRRY0oJKMd6m+5VYTkIkr8UhExMqWIrtPAGRqx9F63oES6PDpa0LqlJE7U3r1vyB0MF4vaWDDFzvStG5Dpfy1yG1AVD68QphN61Y2xNc6kEHLWvdGlxC6Ja2Tdc6mdZp9Wpdxztc0pq5ge20DkpNV5YKrl7BkvWCK4Exi2Ap/xLfw8ol7SRirZgqPduegJQ8tPx5Set6BUvWtS4f/1QveiioShFlueCSgPQlfyB0sKSFrnel6FyHS+mHCwQA0rIZxzjNM0f44ZCTG/Wig5a1bgkuIXQLYdO1TqZ1Wr1a1/EOl7RmbmA7rYNS05Wtj6zVhFV7S0DW5l16ElIplpbsWk5COAUXIolY+pW+NBfxc09AKF5aL7i4v4ZralYaGdemZa1bgku9FFSliNqL1q35AaGDJbDkeleKzDJIr1kZPrXO1Szq6OfsWtY77mlxPemgZa2bg0sI3ULYdK2jqgWuXes63uESbi6Hsdw6KDUd1/LIWu3kZE8JSE9gKf8S5/w6pxm3NbaocAmRRNSAJU9Aamb9+ia3FGvamhWvKbFpWevm4FJPBVUpDiwXXFSt6xEsud6VIrMMl7ggfcmiRLMoo1+ya1nvOHCpNx20rHVTuITM3zT2WMqfjzwv9MMLKMqh36Z1He9wSX8Oh7PYOig1HdjqyFpEcrKXBKQ3sLQHuIRMTKL/pMmJr1ySqx/3tTiEZkltWta6KVzqraCi6GtsMzJIX/IBQgfjtaiQ3fVOpndcrVu7ilSzSiNfs2tZ76hwqUcdHAUu5XuNWTrIID4zDpdKyoH5vHUd73AJM49DWW0dlJrOmyYhiEQCYTMvWLR+ndP0a8kWNQGhFD6a+zbF61FesbOchJR+zUcUVNRiqhQ3XmyVPLT8OafgQmhWjU3LxVau1flJk5q6RdEsbuTkxd8e4RJCBzlgKbZ1veNG7UV7jtb1Bpb2kNv1CJai3y3ndfn447+lP+DNPQ9oLcy/Fx0uyTSvtlfrOt7hUu2M7aB/66DUdGmrI2s13/2P958KtfjvPcIlRDEVfUm1azkJWYNLiCRCCyx5sVWnfNSCqwYCLY2w1uYocCn5xwpYypP+Pa1cQuggFyy53sn1jqp1PYKl0eFSr2BpJLiEAEtoYOUgXa53Gj1b1/EOlzRmbXAbrYNS050pCUEfWYs4WST5YW9wiQqAuHHCsTsiXEIUVJpgyYstbkRfbU8puGoh0NwINWyOBJcsgaXj42PTv+aXVmnOxStCByVgyfVOrncUresVLI0Ml3oGSyPBJa3VP9r5W3rm5jTW4ZJc7zR6tq7jHS5pzNrgNloHpaY7UxKSqLwWBNIoqEqF2osXL86b7AkucQAQJ064dkeDS4iCCpGYeALCiWoeXEJolpbNUeCSNbBkveDiwiWEDkrBksMlnNb1DJZGhUu9gyXrWpePXwMuIfK3XAunq6s8t5PrnUbP1nW8wyWNWRvcRuug1HRnvnJJGyyhgZXlgkuy5xIXAFHjRGJ3JLiEKKhQiYknINSovt5u7dd8LQiUX1XTpmWty4tFrVfLJJpVipwlmyNp3ZoPEDpYA5YcLpUidvlz6colTc2q0ULLejeX21kASw6XLiMWlb+taazndnK90+jZuo53uKQxa4PbaB2Umu6UJiFLY8j3QtLcZ2ku6RktAVmbV0QxFa8ntTtKwYUqqFKigHr3X+OXOU0dodhKPjk7O6M0V2+zpHWIgkrbpmWt04ZLUs2S6usoWmcNLDlckkugJK/T1qw0eoldy3o3hUtWwJLDpYuI3QIsudbJtU6rZ+s63uGS1swNbKd1UGq6UpKE9ACW8oJl9NfiEMVUDViynoSkYhFxXG2enKDAUryGwyW+Cs5pnaTwKV0ZYdNysaUJlxBaWLI5OlxCAXaNIs1/zS+pzfzn3LwOoVlxZFK7lvUuh0uWwFI+Vq0VprLolffivgY8vZKGZs2NnqKxrnXyedfo2bqOd7ikMWuD22gdlJru5CYhvYClvcClUuEjjYVauyMUXNF3mgAIDZb8uFpptF/0m2qdtPBZGwXCpnWt04JLtZo1N28UmyNo3RKMphQ9kqdOq0jzgkvi/etat4Vm1WjhCHAp/762stdcipM9wiUtzVoCVqVc07VOpnVavVrX8Q6XtGZuYDutg1LTlRpwqeWrcPm9j5CArH2JUwofSSxo2B2h4Cp92XN9iyjUpjY9AeHOymX7XOtqCp+1EURN0nwdOF4r11eLqzQ14JKGZk3njWpzBK2bg0sIvcoBe/x3rca63sn0jprXoXSw1u4IuV2aOStgKYdhe4NLW4OlGCuudTKt0+rVuo53uKQ1cwPbaR2Umq6kJiFL19wKLOUFi8WCq7ShN7Xw4caClt1RCy6uP1N7RKHmx9VKZ2O+X354QTxpEgGB4pW1DkaYgqX43xa1rhYuaWlWHhUcmyNqHUKvtMGSF1xy/aPkdbUAqJQT1ujrKHDJElg6Pj4OlrUuxqPktbgewJJrnVzrtHq2ruMdLmnN3MB2WgelpispSUgpiYif1yQSU/vUpGeEBGTuFyJO4cOJBU27lpMQSQKy5mdEobZk03/d4kT81bZJ67T1KkEgFFjKf1HeG1zS1KwUDVybo2kdQq8QYMkLrnqtW9ILao7FHYGW3RFyO2tgKYcze1m51AtYcq3jKo1++9Z1vMMl/TkczmLroNR0oBQubbliKd3/CAnI9EucW/hQY0Hb7mgFF9WP03aIQs2Pq5XOxnq/fOUSYnURErBb1ro4K6WVmnMzp61Z8RoSmyNpHUKvUGDJCy65Dq7ldVoAaDo6TbuW9U6idWszLdGsUuQs2bSsdTkcoxx40hNYcq0rRSz+89Z1vMMl/Jyav0LroNR0mAQu9QCW8oLF4q/5cwkIIomQFlSlGLOchGitXEIUaiWbvnKpFJnLn0u0rnQ1zYIqXWvOpuViSwKXEFootTmK1pW0pRTrS5+ji7R4XUqxKB0/ql/S6rOzM9QlFu0uaR1Cr+IgtO1a1jtNuCTVLCmssqx1HLiE1izJXnOe2zWXySsXbF3HO1zadr5NXL11UGo6hVtw9QKWRoNLqCQi+intLxPfqdf6s5yEaMAlRKFGsekJiDyCuVpXupJ2QbVWpFkutrhwCaWFUh0cQevSq5WSomftOUAXaenaDpdKanT18zmtQ+gVAiyNltvxZu6y9RY6aFnrqHAJrVlSjfXcTvqk6PRrXcc7XNKZt6GttA5KTWdyCq6ewNJICQgyiYh+0nz3P9pL443/tvhufi1cokAg7jNKtekJCNezl+05Wle6CqJQW7O5F7iE1EKpDlouuNLY0/fArVu3SqFN/jzXrNhJy3ZuNwLB+OdwiTwt5w2nWofQq3gdlF3LeqexcmkrHbSsdRS41CtYimP33I6ncdqtW9fxDpe0Z3BAe62DUtOF1IKrN7AUfTBCApL/oqy1siiHP9KCainGctt7hEtUCMR5Rjk2PQHhePZqW6rWla6AKKhKNi1rXa7VazB6q4KqNN+WC640dumv6Uu+4WhWyb/551O7rncc7122zbWupC2yK+DAUp5rjrLlAcfHW+qgZa0rwaWewZLDJc4Tgmnbuo53uISZx6Gstg5KTedRCq4ewdIocCnehyYAagGW8tOr9rRyCVFQcW16sSVXP4rWlawjCjWKzdHh0pYFVWnOLRdctas053zD1aySf9Pnc3Zd76jemwfp+Y9XvR9iEO8gzzXjf+8NLm2tg5a1bg0u9Q6WHC7JdE6zV+s63uGS5uwNaqt1UGq6sVRw9QqWRoFLFsFSXGFlOQmRFFyIgkpi04stufqVtK5kmQKBSjamn1NtjgyXti6oSnO2N61b84dEs0r+jZ8v2XW9o3jvepukdfETzVMscwCEtJtebGw+rQAAIABJREFUh9wTXOpBBy1r3RJcsgCWHC7JdE6zV+s63uGS5uwNaqt1UGq6kXJkrXaCQi2oSvdpueDSeC8/90+rFUvp1T3LSQgXLiEKKqlNL7ZKqrD8eQ1c0tKsfHQcm5a1Lv8hYLrSsYeCqhRRe9K6nsCSF1ylyCxrHRIAIVdCWdY7SW7Xiw5a1ro5uGQFLLnWybVOq2frOt7hktbMDWyndVBqurJ0ZG2vYCkvWPb069bc3LcGS/mX+OivxUkhEKpIc7gkVz8pXOJAIOrouDYtF1tLcKmXgqo0Z5YLLi5IX/IFQgfjtUp2Xe9K0Tn/uVTr1q7G1SzqyOfsWtY7LlzqSQcta90ULlkCS/lY/fACqnLotmtdxztc0p2/Ia21DkpNJ64dWdszWHK4dBEFW4ClvcClUuEjeQ5rbXqxJfH6RR9JwYUoqCQ2LRdbc3Cpp4KqFFGWCy4NuFSrWTXAyvWuFJ1t4JJEsygjX7JrWe84cKk3HbSsdXlemu8LqnmYAUILc7AU78HhEkU59Nu0ruMdLunP4XAWWwelpgOXjqztHSw5XNoOLO0BLiGTiJpkx4stufpx4RKioJLatFxsTeFSbwXVWkTl8H70VZpzfkDoYLwO1a7rnUzvuFq3dhWpZpVGvmbXst5R4VKPOjgKXEqxV5NrTeOXqlmluM8/z22mfcYcLnE8qNe2dR3vcElv7oa11DooNR05d2StBbDkx9U+CunLSHNT8Dj3lKTHchJS+jUfnUTcunVL/Ah7sSV2HWvlEqKgqrFpudjK4VJ+elXav00+oxc9KXoluUYOlmL/vcElhA5ywFJs63oniVzZKs25K9VoVg2wsqx3FLiE0CwNm5bzuhhvafyphqnJtZYgEMqma51M67R6ta7jHS5pzdzAdloHpaYrE1yaLiPV2qwRkZz4cbXbgqX8S3y0ggtRUGna9ARErn7UX/ORmiXdYNdysZXDpZT0WwFL+ffiaFq39iRpalZNkeZ6J9M7qtbVACDZyEKg6KtlvSvBJQ0INPW9ls1R4JKlFUsJVrnWSRVFp1/rOt7hks68DW2ldVBqOjM/sjYl/hbAUp7072lD7632WJrGnOUkZGnlEqKg0rbpCYhc/SgFF6Xw4Y5Aw6blYiuHS5qrLFFaOC3URtQ6C2ApjtH1jqs2F+0pWtcrWMr1YrTcTgsC5XOnadOy1uU/emq9Wqadv8UxLtl0rZNpnVav1nW8wyWtmRvYTuug1HRlDpekv6rPjUejoJrandq0XHCVft2a8ymqmIrX4iYolpOQObjUMomoeX49AZF7r1RwtdAs6egta11eLGqt/kFp4ZwOjqZ1VsCSwyWpWtTBJYQOxjvh2LWsd0u5HTfHosy+tk3LWqcNl1rnhJ7bUSIe16Z1He9wCTeXw1huHZSajstfi7OyYimNc8QEZGluUcWUBCzlX+JaxaJmTJdsTeFS6ySiNL6lz/24WqnnLvqtwSVO4UMdhaZNy1qnDZdQWrhUqFkuuEr7y+WxjNDBaL/GrhdcVLW52q4E0pesampWfg2uXct6NweXtCGQNG8rRZNlrdOESzWaVcrfll7Zc60rRSf289Z1vMMl7HwOYb11UGo6TZqEtExO/Lja7fdYms635SQkL7i2SCIkz68fVyvxGq3g4hY+lJFo27RcbGnCpdZgKS9YRgDp0sKHEvNzbWr11QsumecleZ22ZqWRS+xa1rspXLIClqxrnRZcqtUsqQ661sm0TqtX6zre4ZLWzA1sp3VQarpSkoT0AJbygmW09/Jz/6KKqXiNmqRnBLiUn1yFOgFE41mdgqVoU2tPAY3xUW2k5Ons7IzaRbXdnNZJCp/SoBA2LRdbWnAJpYUlHRxB69b0AlFMxTnXsOsFV0lt5j/n5nUIzYojk9q1rHc5XCppi2R2ETbzfDD+2yJI14BLGpo1nVOqTdc6ydOg16d1He9wSW/uhrXUOig1HclNQnoBS3uAS6hiqhYs5V/iFpMQi8fVRp/nm9g7XOKr4FTrpIXP2pWRNuN1LYJ0DbiE0kJKoTYyXKIWPtynTcuuF1xcz1+05+R1CM2qAUuj5Hb5j1dWTsdM0WYxr6uFS1qalT+xHJuudTKt0+rVuo53uKQ1cwPbaR2Umq7kJCE9gaVREpClL3FUMaUBlkaBS1aOq01gKa6u8gRErn651iEKKqTNdNd7hEsoLaSApVG0bg5GcwofzlOnadf1juP5y7bUvA6hWbVgaZTcLn1vWwFL+Y9Xe4NLmpqVnkKuTdc6mdZp9Wpdxztc0pq5ge20DkpNV1KTkN7A0igJyNyXOKqY0gJLIxdckmeLm0RQrpG/CpdDME9AKN6bb5MfXvDixYvzlWBWDjGI441/e4NLKC2kgqVRtQ6hWdFX2nZd72R6R8nregVLo+R28ftFGyyhgZXlVZq5VnNWdmtrllQHXetkWqfVq3Ud73BJa+YGttM6KDVdSUlCegRLoyQgU7iEKqY0wdKoBZfkuUImJimRzPeD8gREMksXfZLWJb9aAUtxnJb3IMm1mvOLOEoLOWBpRK1DaJa0oCo9za53JQ/Nf17K63oGS6PmdrKZvNwbEw2WrGudBC4htFBq07VO+oTo9Gtdxztc0pm3oa20DkpNZ5aSkF7B0ogJCKqY0gZL1pMQzvHca8+aNImg2JwDS/F/8wRErn75yiVLYMm61kngEkoLuWBpNK1DaVb0U1oNqH04QrTNWYkgVwjdnlseYLCW1/UOlqzr3fS0uJqoaq2De1q5hNJCqQ56blfzpNT3bV3HO1yqn7MKC6/C8yc/hMf/+jn89ttrMzduhPf/+Jfw0Z13w+8rLM92ffUk3Pvk+/Db+5+HHz99l2y9dVCSB0ZoKIFLiOREYtPyr/lLx9UmqKC1nBoBlkYruAiPybUmyMRkCSw5XJLM1GUfidatXVGiWaU7WLJpWeu4cKl1QVWaE8sFVw7St9Kskn/nPp+ekOlwiefFJa1DaFYcmbZdy3qnBZe20EHLWpfnpSW9QGqhdC9Ph0s8jdNu3bqOd7ikPYNUe6+eh28++TL8vNj+/fD5t5+Gd9UI06vw5N4n4fsIsRwuLXpdO4moSUxGSUCQSUT0b/olRQtY5ePlvOZCffTR7WpXLiETkzWw5HCpLjI04VJrHbSsdRy4hNRCqQ5aLrjS2POTq7RXFkXb8U/bbv60l4rFOmXA9O5t5RJCs2rytzWvW9Y7Dbi0lQ5a1joqXELmb1Kw5LkdRoM5Vh0ucbxltm0Getbu4cbH4duTOwormCbXc7g063VEclJjc4QEJD+hw9IGkClA9gaXkIlJCSx5AlL3haYFl2o0a+kOSjYtax0VLm1VUJWiynLBlcZO0ZaSH/LPEToY7U8PMkgb2Ttc4szO5f5y6QCAkr7wrF+0jjbjH+pwhGjb4gEGtXBpSx20rHUUuITQLS2bvnJJokJ6fRwu6fmyW0uvntwLn5wvITr83Xg/fPzZR+HO7y+WKL16/iR89eXh1bXXo7/x8bfh5E7F8qW4QuqrwwqpZDDadbh0LTZQyUlNYmK54EpjT45GgKX0i7L2iiXrR9ZKVy5pJRFzRVr83yi/enkCIv/a0oBLW+mgZa2LM1YquLYsqEoRZbngylcuaa8souhVybclLXS943jwsm2udUjNSt9b2nvYpTvZG1zaWgcta10JLiHzNw0tdK2TaZ1WL4dLWp7s1k6+iujw6tuPh1ffro31AIQ+fP3KnHj10uv9nL4/7Oc0te9w6YpHkMlJzXHglguuHC6hwJIWVIrBMN0I13ISIoFLyMSECpZiO09A5F9ctXBpSx20rHUluLR1QVWKqL1p3Zo/EDoYrzddsZRAmOtdKTrnP88PL6j5AW/Oeq6D8XNtsJT/eLUnuNSDDlrWujW4hNAtbZuudTKt0+rlcEnLk73aSZtqH8a3tirpcnXTjfDxtyeHlU2cG5q+dhdtfBbCV77n0tSLWxZUpRm1XHClsVsES/mX+B5ei9NOItaKqVLMewJS8tDy5zVwaWsdtKx1a3Cph4KqFFGWCy4JSF/yB0IHS1roeleKznW4FD+t+QGvRT4YrzHVV8t6V1qlOTdjveigZa1bgksI3ULYdK2TaZ1WL4dLWp7s1c7zb8KHX8ZtvAvQiAih5m/zEi7dOKxS+uxwMtzvg2/o3SKR0CzS9paArD2ykiO2KRKwZNdyEsIpuBBJxNKv9JT58ASE4qX1gov7a7imZqWRcW1a1roluNRLQVWKqL1o3ZofEDpYAkvxc9e7UnSua51FsJTrBVerZd7S7cWFSz3poGWtm4NLCN1C2HSt030GJdYcLkm8ZqjP5YqkpVfi0s1cvhrH33cpvhL3/4Xwv3ey0+YcLuVhwi1+KCGmbdNywcVNQHoCS/mX+MgrlxBJRA1Y8gSEojLLbSQrl7Q1K45OYtOy1s3BpZ4KqlJUWS64OCB9yQ8IHaSAJde7UmTqat3a1SSaRRn9kl3LesfJ7XrTQctaN4VLCN1C2JxqoR9eQFEO/TYOl/R92pXF5998GM4XLgU6XOJuwD1/ww6Xkl8QiQTC5l4SkN7A0h7gEiKJqAVLXmzVfVVx4RJCs6Q2LWvdFC71VlBR9DW2GRmk9wiWXO/kesfVup7AUq4XI69c6lEHR4FLad8ujY2207OByAmnYCn+t8Mlue7V9HS4VOM9A33fwKXiRt1yGISAS//9738NePf6EH/3u9+d/4/oI2u1N5XcSwJCKXw0922K16O8Ymc5CSn9mo9IIjTA0ijF1lZaOdW61gWVFCxZ17p8/PlmvZq6RdEs7hd0XvztES4hdHBaTJWKvxFei9tC7zha11oH4/VKWmgZplNWLvUIluK8WM7r8vHHf5e0hfN9gNbC/HvRMlzaQus487jWNmrm2dmZlrminbcOF2t3teJwxm9gFS5ZDZNWR9ZqvvufJyc5GLP0dFASkF7BkvUkZA0uIZIILbA0ClzaSiupv+aXCh+JztTatFxs5XAp+c4KWMqT/j2tXELoIBcsud5JlOaiD1XregRLuV6MuHKpV7BkPa/Lx48AS2hgNQJI3yq3kyvlZU9fuaThxY5tOFxqOzmtjqzVOq52Cpb2CJcQv9JHP3LsWv6FawkuIQoqTbDkxVadNlIKrloINDdCDZsjwSVLYOn4+Nj0r/mlVZpz8YrQQQlYcr2T6x1F63oFSyPDpZ7B0khwSWv1j3b+lp65OY11uCTXO42eDpc0vNixDd9zqe3kpCQkUXktCKRRUJUKtfiq3d7gEgcAcSKJa3c0uIQoqBCJiScgnKi+2rZUcCE0S8vmKHDJGliyXnBx4RJCB6VgyeESTut6BkujwqXewZJ1rcvHrwGXEPlbroXT1VWe28n1TqOnwyUNL3Zso81pcXMOkO/h1DooNacvX7mkDZbQwMpywSV5LY4LgKhxIrE7ElxCFFSoxMQTEGpUX2+3Bpe0IFB+VU2blrUuLxa1Xi2TaFYpcpZsjqR1az5A6GANWHK4VIrY5c9LIH2pp6Zm1WihZb2by+0sgCWHS5cRi8rf1jTWczu53mn0bF3H+55LGrPGsfH8m/Dh+XFxN8LH356EO79f6PzqSbj3yffht8PH73/+Y/j0Xc5FHC4lD0iTkFJyggZLecEy4nv5U/8iiql4DandUQouVEGVEgXUu/8av8zVKia3f/LJVu/lL2kdoqDStmm52NKGS1LNWovXNZujaJ01sORwiauwl+0leZ22ZqXRSOxa1rspXLIClhwuXUTsFmDJtU6udVo9HS5pebJXOxk0uvHxt+FkgS5drnAqQCjyfe575ZIGoElJRAuwtCe4hCimasCS9SQkFYuI42rz5AQFluI1HC6Rhf1Nw7mCS1L4lK6MsGm52NKESwgtLNkcHS6hALtGkea/5pfUZv5zLlxCaFYcmdSuZb3L4ZIlsJSPVWuFqSx65b24rwFPr6ShWXOjp2isa5183jV6OlzS8GLXNjLIE94Pn//4abi+KOl5+ObDL0Nc3xRufBy+PbkTlhY40W/V4RLdV9dbtgZLe4FLpcJHOme1dkcouBIEvXXrltSN1/pRkgjuxXKbaZ8xh0tcL14/QUla+KxdGWHTutZpwaVazZqbN4rNEbRuSS8QehX9rFWkecHF17nYgwOXUJpVY3cEuJSfNGllr7kUbXuES1qatQSsSj82utbJtE6rl8MlLU92bOdyVdI5PQoff/5ZuPPuBT569fxJ+OrLi9fhzj9dWd3Eu0WHSzx/XbbeAixZL7goey5RCh/JnGnYHaHgKn3Zc32LKNSmNj0B4c7KZfu84KopfNZGEJ/rGFda+9fFa+X6qrHCVO5BeU+K3q1Z19CsqX2qzRG0bg4uIfQq+lizSHO9kz1zVLiE0sFauyPApTRzVsBSDsP2Bpc0NSt/Yjka61on0zqtXg6XtDzZtZ1sZdLaOBdWLeVwir4fk8MlSUhsBZZGh0vUwoc7Z1p2Ry24uP5M7TlJBPUaflwt1VO0dvnhBXEFGAICxZGgwFK0vUe4pKVZeZRwbI6odQi90gZL0Z4XXDRtm7aiwKVaALQ0Mg27o8AlS2Dp+Pg4WNa6GI+S1+J6AEuudTKd0+zlcEnTmz3byvZemh/m4ZW5bw+vzM28D+dwiT6xlCSklETEzzULNWpyMkICMvcLEafwoc+0fPPuuWtYTkIkCcianxGF2pJNL7Y4EX+1bdI6bb2K9qJmocBS/ovy3uASQgu5NkfTOoReIcCSF1z1WrekF9QcizsCLbsj5HbWwFIOZ/aycqkXsORax1Ua/fYOl/R92rHFV+H5kx/C43/9HH578x7cjfD+H/8SPrrz7uI+Sw6X6FMqhUtbrlhKdzdCAjL9EucWPtSZ1rY7WsFF9eO0HaJQ8+NqpbOx3i9fuYRYXYQE7Ja1Ls6K5LU4bc2K45DYHEnrEHqFAktecMl1cC2v0wJA09Fp2rWsdxKtW5tpiWaVImfJpmWty+EYZU/KnsCSa10pYvGfO1zC+9ivwPRA66BkDm+1uQQu9QCW8oLF4q/5cwkIIomQFlSlGLOchGitXEIUaiWbvnKpFJnLn0u0rnQ1zYIqXWvOpuViSwKXEFootTmK1pW0pRTrS5+ji7R4XUqxKB0/ql/S6rOzM9QlFu0uaR1Cr+IgtO1a1jtNuCTVLCmssqx1HLiE1izJfp6e2zWXySsXbF3Hv3X4Ymj/zbCtj/3qTA+0Dkrm8FThUi9gaTS4hEoiop/S/jLxnXqtP8tJiAZcQhRqFJuegMgjWBsuaRdUa0Wa5WKLC5dQWijVwRG0Lr1aKSl61p44dJGWru1wiad7c1qH0CsEWBott+PN3GXrLXTQstZR4RJas6Qa67md9EnR6de6jne4pDNvQ1tpHZSazuQUXD2BpZESEGQSEf2k+e5/tJfGG/9t8d38WrhEgUDcZ5Rq0xMQrmcv23O0rnQVRKG2ZnMvcAmphVIdtFxwpbGn74Fbt26VQpv8ea5ZsZOW7dxuBILxz+ESeVrOG061DqFX8Toou5b1TmPl0lY6aFnrKHCpV7AUx+65HU/jtFu3ruMdLmnP4ID2WgelpgupBVdvYCn6YIQEJP9FWWtlUQ5/pAXVUozltvcIl6gQiPOMcmx6AsLx7NW2VK0rXQFRUJVsWta6XKvXYPRWBVVpvi0XXGns0l/Tl3zD0aySf/PPp3Zd7zjeu2yba11JW2RXwIGlPNccZcsDjo+31EHLWleCSz2DJYdLnCcE07Z1He9wCTOPQ1ltHZSazqMUXD2CpVHgUrwPTQDUAizlp1ftaeUSoqDi2vRiS65+FK0rWUcUahSbo8OlLQuq0pxbLrj+//bun1eS4t4ff/tx3GglQ3RzdNdyQGhbsm6ANnCAM5CjxYGdmBASCGAjZDIcEKwIriwZQgcWlgjIHP2M5OS7j2N/07v0njpzeqarqz/Vp6v7tRH2zFRXv6rnc6re03+WnqU5ZjO3Zk35Dq+Ptave5eqNB+npj1dbf4hBvwfpXLP/30cLl+67DrZc666FS1sPloRLZXUu8lNrr+OFS5Gjt9O21j4oIxmnFlxbDZb2Ei61GCz1Z1i1PAkpWXDVWFCVtGmxVV79pmrdVMs5IdBUG+ev57a553DpvhdUU2N2tFp3zaOkZk359q9fale9y9G7+56h1vWvRD7FMg2AarY7XA55pHBpC3Ww5Vp3KVxqIVgSLpXVuchPrb2OFy5Fjt5O21r7oIxkzHlkbfQEJXdBNbWfLS+4Iq7LT33WOmNpuHSv5UnI3HCpxoKqtE2LramqcPn1JeFSVM1KezenzZZrXfpDwPmZjltYUE0dUUeqdVsKliy4po7M6VpXMwCqeSZUy/WuZG63lTrYcq0bC5daCZbUuvJaF/XJtdfxwqWokdtxO2sflJGUU4+s3WqwlC5YjvTr1tjYrx0spX/E935ZXGkIVGuRJlwqr36l4dKcECi3d3PbbHmxdSlc2sqCamrMWl5wzQ3SL1nUqIP9tqbaVe+mjs7x10tr3bWtza1ZuT0fa7flejc3XNpSHWy51p2HSy0FS2lfPbwgt3LEvm/tdbxwKXb8dtna2gdlJOK1R9ZuOVgSLr08Cu4jWDpKuDS18Cn5Hi5t02KrRP3lZ0oWXDUWVCVttrzYGguXtrSgmjqiWl5wRYRLS2vWksBKvZs6OtcJl0pqVk7PL7Xbcr2bEy5trQ62XOvSeWl6X9DIhxnUqIVpsNTvg3App3LEv2ftdbxwKX4Md9fi2gdlJOClR9ZuPVgSLt1fsHSEcKnmJGLJZMdiq7z6zQ2XaiyoSttsebF1Hi5tbUF17YhKw/u9n6U55lCjDvbbyW1XvSurd3Nr3bWtlNasqZ5fa7flepcbLm2xDu4lXBqOvSVzrfPjN7dmTR336etpm8N9xoRLcwTj3rv2Ol64FDd2u21p7YMyEnLskbUtBEseV/t5N/wxirwpeD/2OZOelichU7/m155EvP7668VfYYutYrpZZy7VWFAtabPlxVYaLqVPrxru31Y+oi8/mVOvSraRBkv9548WLtWog3OCpf696l3JkVt2lubYlpbUrCWBVcv1LidcqlGzItpseV7XH29D/4c1zJK51qUQqFabal1ZrYv61NrreOFS1MjtuJ21D8pIyiFcOj+NNOpmjTUmJx5Xe7/BUvpHfG8LrhoLqsg2TUDKq1/ur/k1a1bpDXZbXmyl4dIw6W8lWEr/Lu6t1l37JkXWrCWLNPWurN7l1rolAVBZz7oup762XO+mwqWIEOjcPqrNvYRLLZ2xNIRVal1pRYn53NrreOFSzLjtupW1D8pIzPSRtcPEv4VgKZ30H+mG3vd1j6XzY67lScilM5dqLKii2zQBKa9+OQuunIXP3B5EtNnyYisNlyLPsqxVC88XanusdS0ES30f1bu51ebl+3Nq3VaDpbRe7G1uFxUCpWMX2WbLtS790TPq0rLo+Vvfx0ttqnVltS7qU2uv44VLUSO343bWPigjKdNwqfRX9bH+RCyozts9b7PlBdfUr1tjprUWU/225k5QWp6EjIVLa04ilnx/TUDK9aYWXGvUrNLet1zr0sVi1Nk/tWrhWB3cW61rJVgSLpVWi2XhUo062O/JnHZbrneX5nZz51g5ox/dZsu1LjpcWntOaG6Xc8TXe8/a63jhUr2x3E3Lax+UkXDpZXGtnLE09HOPE5BLY1trMVUSLKV/xKMWi5HH9FRb5+HS2pOIqf5det3jakvlXn7uWrg0Z+GT24vINluuddHhUq1aeGmh1vKCa+r+cumxXKMO9u0vadeCK7fa3H7fVJB+qdXImpVuY267Lde7sXApOgQqnbdNHU0t17rIcGlJzZqav126ZE+tmzo6676+9jpeuFR3PHfR+toHZSRa6SRkzcmJx9Xe/z2Wzse75UlIuuC6j0lEyffX42pL1PIWXHMXPjk9iW6z5cVWZLi0drCULlj2EKSXLnxyjvmx9yytrxZcZfIl87romjX0vKTdluvdebjUSrDUeq2LCpeW1qzSOqjWldW6qE+tvY4XLkWN3I7bWfugjKQsmYRsIVhKFyx7uy4/9a21mOq3sWTSs4dwKX1yVa0ngER8V8+Dpb7NqHsKRPQvt41h8vT8+fPcj4S+b6zWlSx8pjpVo82WF1tR4VKtWjhVB/dQ667VixqLqX7MI9q14JqqNuOvz53X1ahZfc9K22253qXh0lRtKRndGm2m88H+v1sM0iPCpYiadT6muW2qdSXfhrjPrL2OFy7Fjd1uW1r7oIyEnDsJ2UqwdIRwqdZiammwlP4Rb3ES0uLjanvz9Cb2wqX5VfC81pUufK5tuWab/XZbDNIjwqVatTBnobbncCl34TP32xbVrgXXXPmX758zr6tRs5YES3uZ26U/XrXydMzhaGtxXrc0XIqqWek3dk6bal1ZrYv61NrreOFS1MjtuJ21D8pIyjmTkC0FS3uZgFz6I15rMRURLO0lXGrlcbVDsNSfXWUCUl790lpXY0FVs81hr48YLtWqhTnB0l5q3VgYPWfhM+dbF9muejdH/ua9ufO6GjVrabC0l7nd8He7lWAp/fHqaOFSZM0avoVz21Trympd1KfWXscLl6JGbsftrH1QRlLmTkK2FiztZQIy9ke81mIqKlja84Kr5Ls1dxKRs430Urg0BDMBydEbf0/68ILvv//+xZlgrTzEoO9v/+9o4VKtWpgbLO211tWoWb1VdLvqXVm9y5nXbTVY2svcrv/7Eh0s1Q6sWj5LM63Vc87sjq5ZpXVQrSurdVGfWnsdL1yKGrkdt7P2QRlJmTMJ2WKwtJcJyHm4VGsxFRks7XXBVfK9qjkxGSaS6f2gTEBKRunlZ4ZaN7i2Eiz1/Wz5HiRprZ7zi3itWjgnWNpjratRs0oXVFPfZvVuSmj89al53ZaDpb3O7cpG8ubemLWDpdZrXUm4VKMWlrap1pV+Q2I+t/Y6XrgUM267bmXtgzISc2oSstVgaY8TkFqLqehgqfWYm18TAAAgAElEQVRJyJzHc1/7rpVOInLaHAuW+v/PBKS8+qVnLrUULLVe60rCpVq1cG6wtLdaV6tm9U7D2YDRD0fo255zJkJ5hYj95H0+wODavG7rwVLr9e78aXFLjqq16+CRzlyqVQtL66C53ZJvyvLPrr2OFy4tH7Pdt7D2QRkJWhIu1ZiclLTZ8q/5lx5XO4QKUadT1wiW9rbgKvk+1ZyYXAqWhEslI3XzmZJad22LJTVrag8utdlyrZsbLq29oJoak5YXXGmQfl81a8p37PXzJ2QKl+YpXqp1NWpW37Podluud1Hh0n3UwZZrXTovnaoXNWth6b08hUvzalz0u9dexwuXokdwh+2tfVBGEs5dcEVPIpZMTPYyAak5ieh9h19SogKrtL9zLnOJPG6XtLX0zKWaE5NrwZJwacmoz3uC0tSW1q6DLde6OeFSzVpYWgdbXnANfU+fXBV9ZlHfdv8vut30Ozi1WJz6vt7H61s7c6lGzVoyf7s2Ji3Xu4hw6b7qYMu1Ljdcqjl/Kw2WzO3uo0Lf3uba63jh0v2P+eZ7sPZBGQkyJ1yqMTlZ0uYeJiDpEzpaugHkcAweLVyqOTGZCpZMQJZVvjm17tqWltSsS+1OtdlyrcsNl+5rQTV1VLW84Br6nlNbphzS12vUwb798wcZDDeyFy7NGZ27QfpUfZnX+st39232/2o9HKFvu8UHGCwNl+6zDrZc63LCpRp1K6pNZy6VVKG4z6y9jhcuxY3dblta+6CMhMxdcNWanCyZmLS84Br6PoxljWBp+EU5+oyl1h9ZW3rmUtQkYmyRlrv4MwEpr365tW5rwVIazrS42MoJl+5zQTV1RLW84ErPXIo+s2jJr/Rj5mNPyFTvpo7O8dfTWldz7jb83Yq+h92wVy3WuyXh0n3XwZZr3VS4VHP+FlEL1bqyWhf1qbXX8cKlqJHbcTtrH5SRlDkLrpqTkyWPA99LuFQrWIoKlfrj7fxGuC1PQkrCpZoTk9xgqX+fCUh59cupdVsMlvYeLt33gmrqiDparbvmUaMO9tsbC5bUu6kj8/Lr6cMLlvyAN7aFdD7Yvx4dLKU/Xh0pXNpCHWy51l0Ll2rUreg2ze3K613EJ9dexwuXIkZt522sfVBGck4tuLYaLLW+4BqCsRaDpfSP+BEui4ueRFxbTE19t01ApoSmF1wlC5b7roMtB+lprT6vF1tYUE0dUS0vuEqC9EseNergVC1U76aOzvHXh3ld/+qSH/DOW69RB/ttnLfbcr0rOXNpK3Ww5Vp3KVyqUbdqtKnWldW6qE+tvY4XLkWN3I7bWfugjKRc+5G1kZOTo01Aro17ySO2c46jS+22PAmZs+CqMYm49Ct9zniYgOQoXV9wzQ2XImvW0LO5bbZc6y6FS1tZUE0dUUepddccatTBqWCpf129mzo6r9e6FoOltF7MrdVlWrGfmhsubakOtlzrxsKlGnWrRptqXex3sKS1tdfxwqWSUTrYZ9Y+KCN513xk7dwF1dR+trzgmjsB2VKwlP4R3/OZSzUmEUuCJROQqYpw/fWpszTHPh1ds/ptlLTZcq0bC5e2tKCaOqpaXnDNCdIvOdSogznBkno3dWRefr2k1l3bWknNyun9pXZbrndz5nZbq4Mt17rzcKlG3arR5nkt9PCCnMoR/5611/HCpfgx3F2Lax+UkYBjk5AaE4kabR5lArK1YOkI4VKNScTSYMlia1nlm7vgqlGzSttsudadh0tbW1Dl1Nf+PXsO0rcYLKl35fVubq3bUrCU1os9n7m0xTq4l3BpuG9XxI22h+9GjTnhebDU/2/hUnndW/LJtdfxwqUlo3WQz659UEaynk9CShc/9zE5aXnBNefXrUu2a18Kl/aj5UnI1K/5NSYREcGSxdayyjdnwbW1OthyrUsXi+nNerd+v7l08XfEcKlGHTxfTE0t/lwWV1bz5tS6+5i7TdXXlutdztxui8FS6z8apv3v/3uqtsz5ZtWuhenfReHSnJGJe+/a63jhUtzY7baltQ/KSMi1Hlkbee1/v//D5KT/7z3/urXFYKn1Sci1cKnGJCIqWBIuLat8uQuuqYVPSS+WttnyYisNlwa7VoKldNJ/pDOXatTBucGSeldSaV5+JrfWbTFYSuvFHud2Ww2WWp/Xpf2vESzVDqwE6eX1LuKTa6/jhUsRo7bzNtY+KCM513pkbdTjas+DpSOGS/d5xtJw7O3xzKUaC6rIYMlia1nly1lwLQ2BxnoY0eaewqWWgqV33nmn22Otu/ZNqlEHS4Il9a683uXUuq0GS3sOl7YcLO0pXIo6+yd6/jZ858ZqrHCpvN5FfHLtdbxwKWLUdt7G2gdlJGfLj6z9/vvvX1Ds8detS2O8hWCp9UnI2JlLNRZUNSYmJiDl1W9qwRURAp33LqrNvYRLrQVLe6x1rQRLwqV6tW7LwdJew6WtB0ut17q0/xHhUo35Wxqyn59dZW5XXu8iPrn2Ol64FDFqO29j7YMykjM9cynq7KL0krXIy+HOF2otL7hyrss/H+etBEutT0LOw6VWgiWLrWWV71q4FBUCpT2MbLPlWpcuFqMuLatRCy+1eZQzl2rUwXQx1f/33MtVLLjKat5UkH6p1ciataQWtlzvxuZ2LQRLrc/rIsOltYMlc7uyOhf5qbXX8cKlyNHbaVtrH5SRjKWTkKnJyTCRjA6s0rBqbxOQa+NaYzHVb6+03b0suGotqIZF0dzF1LVjIJ3wRPwyF1lHctoaTJ4/f57z9vD3XKp1NRZU0W22XOuiw6XSmlVaX/dS63JqS2S9WhosWXCVl8CSeV10zRp6X9Juy/XuPFxqJVgSLr08Yu8jWFLrymtd1CfXXscLl6JGbsftrH1QRlKWTEK2ECylC5a9XxZXYzG1JFhqfRIyLBZrPK42nZxELtTSCU+/DeHS/Co4VutKFj5TW67RZsuLrchwqUYtnGpz7+FSrYA9YpHmzKWpajP++tx5XY2a1festN2W610aLrUULKV9jTrDtOzoLf/U1JOAp1qOqFlj28ipsWrd1OjUfX3tdbxwqe547qL1tQ/KSLS5k5CtBEtHCZemFj6lx8LSdvew4OrtIgOg2sGSx9WWHu0vP3de60oXPtd6UaPN1mtdVLi0tGaNjVtOm3uodZfC6JxFT8m3LmqRZsFVoj/vaXG1ataSdvcQLqV/r1u519xwtB0xXIqqWeff2Nwaq9aV1bqoT629jhcuRY3cjttZ+6CMpIwIl9a6x9L5fu9hAnLtj3jOwqfkWIhodw8LrtaCpddff70zASk54u+GS0sWPtd60NekyPvM9dtK62uLZ2lGhEsRNet83HLb3EOtGwuXchc9c79xkYs09W6u/niQfqmVWnVwabt7mNsN5q0ES2kYdrRwKbJmpd+1OTVWrSurdVGfWnsdL1yKGrkdt7P2QRlJuTRcuq9gqfVf86du6J278Jl7LES1u9cF11zP4f1zJhG52/C42lypvPelDy/onzRZIwTqexJ1n7nzYKn/30cMl6JqVnqUzGlzj7WuRr3qfaMXaRZcebXt/F0587qlAVDNwGov4VJLwdI777zTtVzr+uOx5LK46JpVOidU68pqXdSn1l7HC5eiRm7H7ax9UEZS5kxCpiYR/euRC7XcSc8eJiBjvxDNWfjMORYi2215ElIyAbnmXGOhdqlNE5A5R/zt9w61LrpeDSFQrWAp/UX5aOFSZM0ajoa5be6t1tWoVzWCpb5N9a6s3k3N63LnWHO3HtXuHuZ2rQVLaThzlDOXthIsqXVzK038+9dexwuX4sdwdy2ufVBGAk5NQrYaLPX92sME5PyP+NyFT+6xEN3u3hZcuY7n76uxULvWpsVW6Ujd3IckMggfgqXoM6HOF2kt17q0Vs9ZtETXrL4fJW3uqdbVqFe1giULruW1biyMjgqAznsX2W7L9W7qrPS5o1pSs6a2canNlmtdGo7lPPBkS8GSWjd1xNZ/fe11vHCp/pg2v4W1D8pIsJJw6T4vhUv3fW8TkBqTiNIF1dQx1vIkJOrMpRoLtak2hUtTR+bl10tq3dTWIhdUw7bG2my51pWESzVqYWmbe6l1U7Vl6li/9HrtRVq/3ZzFYmn/a31uqNXPnz+vtYmL7V6qdTXqVd+J6HZbrneR4VJpzbp2wF1rs+VaNydcql2zSu7naW63epm8tcG11/HCpfsd7ya2vvZBGYkyd8G1lWApXbC0eKnI+QSk1iSidxrOquivqY/61/IkJCJcqrFQy2nTBKT8CJ5b66a2FL2gurZIa3mxNTdcqlULS+vgHmrdcGllyaLn2veg9iJt2LZwaaoa3X59rNbVqFc1gqW9ze3mjdzNu++jDrZc63LDpdo1q7TGmtuVflNiPrf2Ol64FDNuu25l7YMyEnPOgmtLwdKeJiA1JxG9U+S1/317Q3/7/55zmUvkcbukraXhUk4INLd/uW2agMyVvXn/nFo3tZUaC7VrbR4lXKpZC0vrYMsLrqHvw9+B/omTUf/SmtW3GdV22m4fCPb/hEvzRu281tWoV7WCpT3N7eaN2v0GS2k40+K8Lu3/pXqx1WCp77u5Xem3JeZza6/jhUsx47brVtY+KCMxcxdcWwuW9jIBSX9RjjqzKA1/ShdUl46xtO0jhku5IdCc7+icNk1A5sjefm9urZvaQo2F2lSbRwiXthgstb7gGsKl0l/TL30X5tSsqe9T+vp5u+rdHL2b96a1bqq2lG0h/lK4oR/pXHMPZ6XP9b3POthykD4VLm05WBIuzf2WxL9/7XW8cCl+DHfX4toHZSRgzoJri8HSXsKlfj8iA6A1gqX06VUt/sJVeuZSjQXV3DYttsqrX06tm2q9xkItp829h0v3uaCaGvOWF1ylte6aydyaNeU7vD7WrnqXqzcepKc/Xn355ZdljY18KqdmlWwsnWv2nz9auHTfdbDlWnctXNp6sCRcKqkWsZ9Zex0vXIodv122tvZBGYk4teDaarC0l3CpxWCpP8Oq5UlIyYKrxoKqpE2LrfLqN1XrplqusaDKbXPP4dJ9L6imxv1otW4rwZIF19SRefn1odYNP161FCylP14dKVzaQh1sudZdCpdaCJbUuvJaF/XJtdfxwqWokdtxO2sflJGU1xZcWw6W9hIuRZ35s9YZS8Oley1PQuaGSyUh0NR3tLRN4dKU7PSCq2TBkhsCzendnDb3Gi5tYUE1NWZHqnVbCpYsuKaOzOla1wc1rQVLfX9brnclT4vbSh1sudaNhUutBEtqXXmti/rk2ut44VLUyO24nbUPykjKqUfWRv/yNWdBNbWfR5uAXPJYO1hK/4hHhWNTYx35+pxwqTQEqrVIEy6VHwmlZy5F1qyh93PbbLnWpT8EpPViKwuqqSOq5QXXnFpXq2YtaVe9mzo6x18vrXXXtja3ZuX2fKzdluvd3HBpS3Ww5Vp3Hi61FCylffXwgtzKEfu+tdfxwqXY8dtla2sflJGI1x5Zu+VgKV2wlJyJEGlY0tbcCciWgqWjhEtbC5Z6d4utkm/by8+ULLhqLKhK2mx5sTUWLm1pQTV1RLW84IoIl2rUwd48p131buroXCdcKqlZOT2/1G7L9W7O3G5rdbDlWpfOS9NLKyMfZpBTs3KO+/Q9abDU///CpbmCMe9fex0vXIoZt123svZBGYl56ZG1kcFSP4Ho//WPFY48TfsoE5CtBUtHCJdqTiKWTHYstsqr39xwqcaCqrTNlmvdebi0tQXVtSMqPSt072dpjjnUqIO5wVL/PvWurN7NrXXXtlJas6Z6fq3dlutdbri0xTq4l3BpOPaWzLXOj9++Fg7/Xn/99anDO+v1tL726yPhUhZblTetvY4XLlUZxn01uvZBGak39sja6GBpCJX6dqOu//e42s9fhHXDWA33Qoo4NnImPS1PQqZ+za+xoIpq02Kr/Aifs+CqsaBa0mbLi600XEqfXhVVs3LqVclRkwZL/eePFi5F1ayxRdowJ5hapKl3JUdu2VmaY1taUrOWBFYt17uccKlGzYpos+V5XX+8Df0f5sVT9SX32zUES1Ht9ds9r69qXe5o1Hnf2ut44VKdcdxVq2sflJF4w4Lr/DTSiBCo9sRkcDjaZXH3cY+l82Ou5UnItXCpxoIqsk0TkPLqlxsu1ahbS9tsebGVhkvRYXjEgmrsiErbHUL8I4VLkTUr9Z3brnpXVu9ya92SAKisZ12XUwtbrndT4VKNmhXVZsvzujRcqnHGUs1gqe+7WldaUWI+t/Y6XrgUM267bmXtgzISM31k7TDxbyFYOvrjaqMXaX17cyYoLU9CLoVLcxc+Od/D6DZNQHLUx9+Ts+DKWfjM7UFEmy0vttJwqa/brZyxNPR1j7Xu2jEcXbOGbZW0q97NrTYv359T67YaLKX1Ym8/HM6ZY+WOfGSbLde6NFyKum/RGmcsDeOs1uUe8XXet/Y6XrhUZxx31eraB2UkXhouRd0PKWIxNbaP5+22vOCa+nVrbP+3cMbS0K+WJyFj4VLJwmfqe1ijTROQKfXLr08tuGrUrag2W6516WIx6uyfyAVVesSMtbu3WtdKsNT3U70rq3dTtW7LwdJew6UaNSu6zZZrXXS4tGawpNaV1bnIT629jhcuRY7eTtta+6CMZEwvi2vljKWhny0vuOaGS1sKltI/4lGLxchjeqqt83CpRghUs81+/6J+mZuyinx9WCg+f/48stnstq4tuKJCoLQzkW22XOuiw6XoBdUwZpfabXnBNXV/ufR4rVGz+vaXtCtcyi5vt95YGi5F1qwltbDlejc2t6tRs2q02XKtiwyX1g6WhEtldS7yU2uv44VLkaO307bWPigjGUsnIWN9WHtisrcJyKVx3VqwtKdwacnC59J41Wxz2KZwaX4VvFTratSt6DZbrnWR4VKNBVXfv2vttrzgyg2XatWs3jb35t1j32jh0vw613+iZF4XXbOGnpe023K9Ow+XatSsGm22Pq+LCpfuI1gSLpXVuchPrb2OFy5Fjt5O21r7oIxkLJmEbCFYShcse7suP/WtFSz17aYT/7n3QdnDgit9clXUzRprLdKGmwoLl8qr31itK1n4TPWgRpstL7aiwqVaC6qpdvdQ666F0TVrVl9j+3+l9VW4NFVtxl+fO6+rUbP6NtM5xpwz41uud2m4NFVbSka3Rpt9P9K5ZotnpEeES/cVLAmXSr4JsZ9Zex0vXIodv122tvZBGYk4dxKylWDpCOFSzWBp+DW5d5wbLKV/xFuchNR8XO2SX+nHvlvDwq9/Lb2JvTOX5lfB81pXa0E1HANzFlPX9mboZ/+eFoP0iHCp9oLq2o3G9xwu1Q6WSkOl4fsgXJpf5/pPzJnX1a6DfX/m1sI9hEvpj1clc6yxka9dB4dttjivWxou3WewJFwqq3ORn1p7HS9cihy9nba19kEZyThnErKlYGnv4dIawdKSCc8eFlzRj6utHSz1CzWLrfLql9a62guquYupS3uVBktHDZdqL6imnmC3h1o3FkZvPViy4IqpdTnBddTDXPptRdTWPYRLww9CS+ZZ6ditUQeHM6SPFi7dd7Ck1pXXuqhPrr2OFy5FjdyO21n7oIykXBIuRUwilgRWe5iAjP0R33qwlP5C1OIkJPc+JLnfs5qLtGGCOpwBIFzKHZW770sfXlDr7KJai7Rh0n+0M5dqLKjmXhK8x3CpZs2KDO3Vu7J6lzOvqzF/i2pzD3O7qdB6zsjWqIP99s/bbbnWpfPSOWd2byFYEi7N+TbUee/a63jhUp1x3FWrax+UkXg5k5AlAdDcvs6ZnOxhAnIezrQQLAmXbo7qmou082DJBGRuNbn9/qHWDa7RZxfVCpb6frZc63rvuU/HHFv4LBv9l59OF1P9/845q6DlBddYkF6zZkUGS+pd+RE/Na+bM8/K7UVkmy3Xu5Jad814rWCp9XldSbi0lWBJrcutMvXet/Y6XrhUbyx30/LaB2Uk3NQkZKvBUrpgafHX/GuPqx0WvzkLn5xjocbkZG8LrhzH8/fUXKQNx8D5PUv8kl8yUi8/k5651FKw1HqtS/ufe6ZjjZpV2uaeal3NmhUdLKX3m5tzJkJ5hYj95FCrnz9/HttwRmvX5nWRIdDQleg2hUsvZUtr1tQhcqndlmvd3HBpS8GScGnqiK3/+trreOFS/TFtfgtrH5SRYHPDpehJxJLJyZ4mIK2csTSMV8uTkIjL4mou0i4FSyYgyyrf3Fo3tbUatfBSmy3XurnhUo0F1ZI291LratasmsFSf/wIl6aq0e3XL9W6NWvWvB7ffnfL9S7qzKUlNeua/bV2W651c8KlrQVL5nZLqkXMZ9dexwuXYsatsJVn3XdfPe2+/Mffu//858cmHjzo3vz5b7pHb73R/Vdhqzcfi2l/7YNy8W4nDcxZcNWYmPRdKW13LxOQ1oKl1h9ZuzRcqr1I678Tl56y5Myl8uo3p9ZNbaW0Zl1r91qbLde6OeFSjQXV0jZbXnANfU+fXLX0CW7DMVyjDvZtp2csDdsSLk1VpOlwae2aNa/HwqVUYGnNumQ/1W7LtS43XNpisCRcWlItYj679jpeuBQzbvNbefZd98nvPuz+fvGTb3Z/+uz33RulCVNg+2sflPMxL38id8FVY2KyJFhKFywtXxaXPl6+pRtADkdU7mUukcfs0raWhEs1FlRz2hQulY9+bq2b2kKNWjjV5hHCpamFz9S4jL0e0WbLC66h771N5NlFc2rWnHFLg6X0b6NwaY7izSXAw9xoqr7Ma/3lu2u0mbbb/3fLc7vSuVFEzSqthS3XupxwaavBknCppALFfmbtdbxwKXb8Mlt71n31+HfdX4azlS596sHb3WdP3io4gym2/bUPykzErLflLLhqTyJKb4Tb8oJr6PswSC0FS+mkv3QClXVwVnpTabhUY0E1t03hUvlBkVPrplqvUQtz2my51vWmU5eK1FhQRbXZ8oIrPXOppTOWhiBMvZuqSOOvp7Uup77M3UqNNs+DpSOGS1E163w8c9ttudZNhUtbDpaES3MrUPz7117HC5fix3CyxWdfPe5+NyRLD97s3v7jo+6t/3p5itKz777qPvrwL92rq+Te/qx78ta805ei21/7oJwEnPGGqQVX7UlEabCULlha/nWr34/WgqX+RuMtT0JKwqW5IVDOV7CkTYutHNnpBVdJKzVqYW6bew6Xchc+c8Ysss2j1bprziU1K2fczs9YGoIw9S5H7+570ocXfP/99y/mGFt+iEEaLKU/XrU8t5v7w1tkzUqPiDnttlzrroVLWw+WhEtldS7yU2uv44VLkaOX1VZ6VtHp0re/ni59u/O50yVzv/7xkrnZZy/Ft7/2QZnFmPmmtZ8qcj6JWDLhaXnBNfR968FSPzFJ/w1PsGt5EjI3XKqxoCpt02Irs7CNvG0qSL/Wcm4INKd3c9psudalPwScL7jmLHxybaPbPFKtu89gqf9b2P9Lz7BS73KP+tvvG2pd//+2Fiz1c8KW693UWZpjIxpds4ZtzG235Vp3KVxqIVgSLpXVuchPrb2OFy5Fjl5OW8++6h7/7uWZSQ+unJV0c/bRg+7tz56czmzKafz0ngrtr31QZu5p1tvWfKpIZLCULliO9OvWpUGdO4nIOTj2+lSROeFSaQhUa5FmsZVz5I6/pzRcmhMC5fZubpstL7YuhUtr16zcsTl/X8sLrjm1rlbNWtKueld21KZnLi35AS/d+tyaldvzsXZbrndzw6UadbC3L2m35Vo3Fi61EiwJl3KrRb33rb2OFy7VG8vxlr/7pPv1h/1tvCdCo8yQ6M5GKrS/9kEZOSRjC641JxFL9uVIE5BrTiWTiCn3qTZbnoTkLri2FiyZgEwdtddfLwmXatTCkjZbrnVj4dJUfSkZ6RptpguWuZe5lOxD9Gdya92SAKi0zzn1VbhUpltS665tqaRm5fT8Urst17s54VKtmlXabsvzuvNwqZVgaehnf/lq/8/DC3IqR/x71l7HC5fix/BqizdnJF26JG74+M2lcdfOcDrfWI321z4oI4fkfBKy9iRiyb4cZQKytWDpCAuunIXP3GM3ok2LrbnqN++fu+CqUQtL22y51p2HS6ULn7XrYL+9oa/9fx8xXIqoWWPjltuueldW7+bWui0FS2m92PNZ6TXqYFqzSm65sJdwaewS27Jv0s2ncmvWnO2kbQqX5sjFv3ftdbxwKX4Mr7b43Se/7l6cuNTlh0vdm3/q/vr7u3dmGttQjfbXPigjhyS9Nj+yXW0RIEBgTOD58+f3AqPW3Qu7jRI4tMB91Du17tCHnJ0ncC8C91HronZ07XW8cClq5DLbeRX+TN6oO7kxd0m4FNi+P+SZg+ttBAgQIECAAAECBAgQIEBgIwJrhmPCpZUHvcVwaWUimyNAgAABAgQIECBAgAABAgQaEhAurTxYwqWVwW2OAAECBAgQIECAAAECBAgQqCogXKrKe7fxGvdESrdSu/2VuWyOAAECBAgQIECAAAECBAgQ2LiAcGnlAarxNLd0F2q3vzKXzREgQIAAAQIECBAgQIAAAQIbFxAurT1A333S/frF4+IedG9/9qR7678udODZV93j3/2l+8/p5Tf/9Ncu82FxXVe7/bW9bI8AAQIECBAgQIAAAQIECBDYtIBwae3hSUKjB29/1j25kC7dnIE0EUKd9792+2t72R4BAgQIECBAgAABAgQIECCwaQHh0urD86z76vHvur/0pyR1b3Z/+uvvuzfu9OG77pNff9j15zd1D97uPnvyVnfpBKe73a/d/upgNkiAAAECBAgQIECAAAECBAhsWEC4dA+Dc3NW0ov0qHv7T3/s3nrjZXz07Luvuo8+fHk53Mts6fLZTZe6Xrv9eyCzSQIECBAgQIAAAQIECBAgQGCjAsKlexmY5Myka9u/cNZSGh6N349pWfv3QmKjBO5Z4Nmz77qnH33Z/f0/Q7R7CncfvNn9/FNZmdoAABxMSURBVDePXoW/99xFmydAgMAygVf3ZbzeTMkPW8s65tMECBBYLnDz1OwZbb35p+6v2Te3ndGutxI4oIBw6b4GPbk30ngXTpfMfXa6ZG7kerjpcOnU4oL274vEdgncl8B3nzzuPvz7Tah0px+zL0+9rz2xXQIECFwWuH1m8+X3CZccRQQItCggXGpx1PR5TwLCpXsdzWfdd1897b78x9+7VydLPHjQvfnz33SP3nrj4n2WssKlF/tV1v69ktg4gZUFchdbp8c2+mVr5bGxOQIEYgVyF17CpVh3rREgsI5Abo271Rvzu3UGx1YOISBcOsQw20kCBMYF0ktIT8Hu6f5nj06nCw4nDD47XULy0Yen8PfFh2c+uRE5AQIENiWQPPDDYmpTI6MzBAisKbDkwUlr9tO2CLQnIFxqb8z0mACBKIFX9x+5Ehwl9yjxa34UvHYIEFhf4GZBNX6/xvV7ZIsECBBYW+Dm7CY/Gq5tb3v7FxAu7X+M7SEBAosEkl+4/Nq/SNKHCRC4R4GcMP0eu2fTBAgQqC7gB8PqxDZwbAHh0rHH394TIDApcBMuOXNpEssbCBDYqMDN/eVODwz56+mBIRvtp24RIECgjoDL4eq4apXAjYBwydFAgACBawJ+7Xd8ECCwA4FXl4K8ePrl/3T/75OPui9PT8kcnpP54M23u988emv0KbU72H27QIDAwQVcDnfwA8DuryIgXFqF2UYIEGhO4NnpaYtPP+o+PC2++n/OWmpuBHWYAIFXAsnNvE9PpX1wekTtECqdI6l1DhsCBHYn8Oyr7vHv/vKy7rnFwe6G1w5tR0C4tJ2x0BMCBDYgcHPpyNCZ0w0fT0+Re+v0FDn/CBAg0KZA+mTM6T0QME0beQcBAu0IOGupnbHS07YFhEttj5/eEyAQLPDdV4+7L//xY6PJr/sPTr90/fH3b3QipmBwzREgUF8g/dX+wZvd27951P3PKTB/Vc+efdd99fTL7i8/nql5+mnffZnqj4otECCwioAHs6zCbCMETgLCJYcBAQIErgg8O91z6aMP/+5UakcJAQK7F7j5db+/cuSv3SlP948AAQJNC6RnpKtrTQ+lzjcgIFxqYJB0kQCBexZIHl1rYnLPY2HzBAhUFPALf0VcTRMgsLpAer+5/mEGbzkDffUxsMEjCQiXjjTa9pUAgUIBC65COB8jQKApgWQh5qa3TY2czhIgMCKQXBLsXnKOEAL1BYRL9Y1tgQCB5gUsuJofQjtAgECGgFqXgeQtBAg0InBzSdzp4SyfPenecuPMRkZON1sVEC61OnL6TYDAYoGb+4tM3bzWmUuLsTVAgMC9CWTXOr/y39sY2TABAvECr2rfA5fExetqkcBdAeGSo4IAgcMKpDd5vHa6dHqTW6dVH/ZwseMEmhXIq3XJWUudX/mbHWwdJ0DgRwE/DDoUCKwtIFxaW9z2CBDYkEAy8Tj16sHpHiN/fPRG91/DadOnx3N/8tGH3aunc3s894bGTlcIEMgXuF7rnp1q3dO01vmVP5/WOwkQ2KaAMzG3OS56tWsB4dKuh9fOESAwJZD+oj/1Xk+KmxLyOgECWxXIr3XOWtrqGOoXAQIzBDzpdwaWtxKIERAuxThqhQCBhgWmF10Pujf/9Mfu92+4E2TDw6zrBA4vkFPr3PT28IcJAAK7EHAz710Mo51oTEC41NiA6S4BApUETpeFfPX0y+4fp2vg/jNs4sEpVPr5b7pH/5NcKldp85olQIDAKgLXat1bp1q3SidshAABAnUFbsKlqYe21O2H1gkcSUC4dKTRtq8ECBAgQIAAAQIECBAgQIAAgWAB4VIwqOYIECBAgAABAgQIECBAgAABAkcSEC4dabTtKwECBAgQIECAAAECBAgQIEAgWEC4FAyqOQIECBAgQIAAAQIECBAgQIDAkQSES0cabftKgAABAgQIECBAgAABAgQIEAgWEC4Fg2qOAAECBAgQIECAAAECBAgQIHAkAeHSkUbbvhIgQIAAAQIECBAgQIAAAQIEggWES8GgmiNAgAABAgQIECBAgAABAgQIHElAuHSk0bavBAgQIECAAAECBAgQIECAAIFgAeFSMKjmCBAgQIAAAQIECBAgQIAAAQJHEhAuHWm07SsBAgQIECBAgAABAgQIECBAIFhAuBQMqjkCBAgQIECAAAECBAgQIECAwJEEhEtHGm37SoAAAQIECBAgQIAAAQIECBAIFhAuBYNqjgABAgQIECBAgAABAgQIECBwJAHh0pFG274SIECAAAECBAgQIECAAAECBIIFhEvBoJojQIAAAQIECBAgQIAAAQIECBxJQLh0pNG2rwQIECBAgAABAgQIECBAgACBYAHhUjCo5ggQIECAAAECBAgQIECAAAECRxIQLh1ptO0rAQIECBAgQIAAAQIECBAgQCBYQLgUDKo5AgQIECBAgAABAgQIECBAgMCRBIRLRxpt+0qAAAECBAgQIECAAAECBAgQCBYQLgWDao4AAQIECBAgQIAAAQIECBAgcCQB4dKRRtu+EiBAgAABAgQIECBAgAABAgSCBYRLwaCaI0CAAAECBAgQIECAAAECBAgcSUC4dKTRtq8ECBAgQIAAAQIECBAgQIAAgWAB4VIwqOYIECBAgAABAgQIECBAgAABAkcSEC4dabTtKwECBAgQIECAAAECBAgQIEAgWEC4FAyqOQIECBAgQIAAAQIECBAgQIDAkQSES0cabftKgAABAgQIECBAgAABAgQIEAgWEC4Fg2qOAAECBAgQIECAAAECBAgQIHAkAeHSkUbbvhIgQIAAAQIECBAgQIAAAQIEggWES8GgmiNAgAABAgQIECBAgAABAgQIHElAuHSk0bavBAgQIECAAAECBAgQIECAAIFgAeFSMKjmCBAgQIAAAQIECBAgQIAAAQJHEhAuHWm07SsBAgQIECBAgAABAgQIECBAIFhAuBQMqjkCBAgQIECAAAECBAgQIECAwJEEhEtHGm37SoAAAQIECBAgQIAAAQIECBAIFhAuBYNqjgABAgQIECBAgAABAgQIECBwJAHh0pFG274SIECAAAECBAgQIECAAAECBIIFhEvBoJojQIAAAQIECBAgQIAAAQIECBxJQLh0pNG2rwQIECBAgAABAgQIECBAgACBYAHhUjCo5ggQIECAAAECBAgQIECAAAECRxIQLh1ptO0rAQIECBDYmcAPT37WvfbeP8v36uGn3b+/fdz9tPume/cnv+w+f9XSO93Xz//c/aK85TY++c273U9++XKvH3767+7bxz+d2e99u6XH1ztfP+/+vPsDYubwezsBAgQIEPhRQLjkUCBAgAABAgSaFRAuLRm6NBgqDdP2HS51t0LHUqMlY+SzBAgQIECgDQHhUhvjpJcECBAgQIDAiIBwqfyw+Obdn3Q/nrTUde983T0vOi1n7+HSKV4KcSofJ58kQIAAAQItCAiXWhglfSRAgAABAgRGBeLCpYMB//Ck+9lr73XDBYXll3ztP1w6pUuvLh08XTzYffrvb7vZVw8e7PCyuwQIECBwPAHh0vHG3B4TIECAAIH9C5yFJ6cbCv14b6X973rOHt4O5ZZc7nWAcOn8flzFZ3nljIz3ECBAgACBNgWES22Om14TIECAAAEC1wRmh0sTIcmts1f6q8j6mzv/0P3wzcfdbz/4vPvncArQw4fdO4++6P6cnNryw+mzd97z/uk9v5i4efYP33RPPv6ge/r5P1+dYdSd2n/43+93X/zhF91P5957+5XX2b5OhCU/nPrx8W8/6D5/tZOn83fe+bR7/w+Pu1/8NDdc+qH75snH3QdP/3Wyun0D9ocP3+kevf+H7lcnj5td+qF78rPXupt7tV87YyjjvYPlv06W6eZfeD467cuvTvtyGfTWpXHdkjDO15YAAQIECOxTQLi0z3G1VwQIECBA4NgCtcOlT7/uuqenp8tdelDdi8DmtbOA5GxIroQ6Pzw5BVLvnUKri6N4CrE+vR1iZQ/4aFA2/ulv3v3Z6b5Ml3px6sPXj7rul+9df8re+Vhc6ujZ2WXnlzxevHTvvP0z19xLJx+ePvftpftOzTDLHgdvJECAAAECOxIQLu1oMO0KAQIECBAg8KNA5XApynk0MDkLMq5tq+ReSbfPwrl8RlBuKHO7f+dn9Zyf2TQhlwZDE6HR0NLVEGqGZd/ew0//3X07dkOlzL5EHRfaIUCAAAECrQkIl1obMf0lQIAAAQIEpgVWCZdOwczXX3SP+8vb+suufvvL5DKuoYsT77lz9tJ5GJN8/tTki0vsTo94uzmXaO4lWpmXsY2dbXQ6s+jrL/pL4fp9O13m9u5vR85qut2fOwHVnTZeu3li3ct0J7k31vnlbmP7ev09d4K0YbxeDE9/qd5pH26uvTv9f5c8c/oyfVh6BwECBAgQ2KuAcGmvI2u/CBAgQIDAkQVWCJfunDU0cpbM5HtKLgU7287Fs23Gxj/TZSwU+ve3j5N7Ir1s/HZ40/8/d8OZ/p5Nf/v4/073jvpX9+j8SWt3Qqzr4dQdz6tnFJ0FQqM3dX/5nqenfj96/39P93063cvqwvcm94yvI3/t7DsBAgQIHFdAuHTcsbfnBAgQIEBgvwKZIcoNwLwbeo+e4TIRlLzY1tV+5Z4dM++G3LcG+TwAu3Dfp/PQ6OLld3cCteAzqWbeT+l2P889e4n+XlXvd//7q9eu3sB77IuRbbLfb5U9I0CAAAECFwWESw4OAgQIECBAYH8CtcOlsbNgcrZ59T0z7080jNroGTkXhjTrrKeMp6+9aj7zMruz7rw4m+lvp7OZniZP2nvxnvNw6lrgNh3GTd436sXT/d7v/vCr6afvnbc164yx/X3D7BEBAgQIELglIFxyQBAgQIAAAQL7E8gJem7t9cwzl8bO+MnZZo1w6eJ9gu4Oa15AMicwynvvy0vjPjhdGvfPK0/AGwuXTv/fpSe1Zd1ke+zspfHD/eE7n3Zf/PnupX/Du/Ps9vdVskcECBAgQCBHQLiUo+Q9BAgQIECAQFsCOUGPcOnC09HyAqOXfFPvPYU7pxt/v3cKldJ/Dx+e7nH06HSPo8dd9/FPftl9/urFscvqxi8DvPqUuFtb62/c/XH3wXvpjdAvHc6XL+sTLrVVAvSWAAECBNYVEC6t621rBAgQIECAwBoCuwiX5t6/aBo2LyCJuyzu7va+7r54nN40eyqc+jHCevcnyVPlepc/dP/f6UbcNw96y7T64RQ0/e3j7v+e/qv7/J+3A69B79L9pfLspsfAOwgQIECAwB4FhEt7HFX7RIAAAQIEji7QZLg0J9QpHOCsey7dfQpc2Q29M4KjnJug97t6fmncp592/3rvvZtL7C7cmHxS6XS53ru/PZ05leRMl+6llH+m1ORWvYEAAQIECOxOQLi0uyG1QwQIECBAgMD1p7KN+Wzhnkv9w+R+1r12czrOhcvWFoxv5tPi7twIe/Sm4WP3M0rPIJoOl+7ecPvSGUjXb3Z+Mfx6cabS305nKj09XXr3qPv3tyP3VIoO3BYMj48SIECAAIFWBYRLrY6cfhMgQIAAAQKXBZo8c+m0O3fO5OlOAVNyKdkpLHny8ekeRv86PVft0aPuf3/1q+4XP/1p/pGQ7TIS5pwCpq+/eHzaXt/Pb7onpzN+khzsxz5cC5dObzmdYfTvP/eXxf1w2tWPu9/euQ/S5cvbvrl1aVyyy5eeljdmedr+Fy+2/+O//syl19J7PvVdfN6d3nL2b4WzyvJH0TsJECBAgMDmBIRLmxsSHSJAgAABAgQWC2SHKMOWtnHmUt+bu2fzXNe4dBnX+KfOQ5Ir9yo6P8spa1But3cxELrY1sPu039/2z0ey8su9Ofa/s/e/qWg6hSGPUnv8XTxfVlI3kSAAAECBHYnIFza3ZDaIQIECBAgQKDVy+KGkcsNmOYFSy9bvx24XAlzMoKuh6czgd7vfnl2s+0/dzcn/ly/nK07PTXu60dd98vTGUzDv4uXuJ0HPC8+cL3/L/f3Z6f+jd+8+9Y35VpgdB5Wlt7jyVeTAAECBAjsVEC4tNOBtVsECBAgQODQAg2fufRq3PpLzz7+oHt6CkbSaOThw4fdfz96v/vDr06Xd824Iu5Vu+c3xx69DCw5en7sx3tJQPPwFAo9ev8P3ePTNXK3w6qxM6FO9z1697fdB+l+nPbhnfe/6P5w+vxPZ4xV3r2gRo78fh/+9n/d06efd7cfEvewe/jwv1/ty8XvzFyzQ3/57DwBAgQIHFFAuHTEUbfPBAgQIECAwIEFzs4maugsnOo3PL9wVNze7pVLCQ98VNl1AgQIEDi2gHDp2ONv7wkQIECAAIEDCtwKS5q5f9D5JXbTl8TFDO3t+y2VXIoY0w+tECBAgACB7QoIl7Y7NnpGgAABAgQIEKgjcOtStLVCmiW70l9a91pyb6dTW2uFYs1ZLXH2WQIECBAgUCYgXCpz8ykCBAgQIECAQNMCt+6VtNFL46497e3yjb9jh+XWWV4bdYrdY60RIECAAIH5AsKl+WY+QYAAAQIECBDYgUB6mdk27yN0MVxaLeTZvtEODkS7QIAAAQI7EBAu7WAQ7QIBAgQIECBAoEQgPStnrTOB5vTzhyfvdq+99/nNR358ytyfT0+ZW+Vf8pQ491paRdxGCBAgQKBRAeFSowOn2wQIECBAgAABAgQIECBAgACBLQgIl7YwCvpAgAABAgQIECBAgAABAgQIEGhUQLjU6MDpNgECBAgQIECAAAECBAgQIEBgCwLCpS2Mgj4QIECAAAECBAgQIECAAAECBBoVEC41OnC6TYAAAQIECBAgQIAAAQIECBDYgoBwaQujoA8ECBAgQIAAAQIECBAgQIAAgUYFhEuNDpxuEyBAgAABAgQIECBAgAABAgS2ICBc2sIo6AMBAgQIECBAgAABAgQIECBAoFEB4VKjA6fbBAgQIECAAAECBAgQIECAAIEtCAiXtjAK+kCAAAECBAgQIECAAAECBAgQaFRAuNTowOk2AQIECBAgQIAAAQIECBAgQGALAsKlLYyCPhAgQIAAAQIECBAgQIAAAQIEGhUQLjU6cLpNgAABAgQIECBAgAABAgQIENiCgHBpC6OgDwQIECBAgAABAgQIECBAgACBRgWES40OnG4TIECAAAECBAgQIECAAAECBLYgIFzawijoAwECBAgQIECAAAECBAgQIECgUQHhUqMDp9sECBAgQIAAAQIECBAgQIAAgS0ICJe2MAr6QIAAAQIECBAgQIAAAQIECBBoVEC41OjA6TYBAgQIECBAgAABAgQIECBAYAsCwqUtjII+ECBAgAABAgQIECBAgAABAgQaFRAuNTpwuk2AAAECBAgQIECAAAECBAgQ2IKAcGkLo6APBAgQIECAAAECBAgQIECAAIFGBYRLjQ6cbhMgQIAAAQIECBAgQIAAAQIEtiAgXNrCKOgDAQIECBAgQIAAAQIECBAgQKBRAeFSowOn2wQIECBAgAABAgQIECBAgACBLQgIl7YwCvpAgAABAgQIECBAgAABAgQIEGhUQLjU6MDpNgECBAgQIECAAAECBAgQIEBgCwLCpS2Mgj4QIECAAAECBAgQIECAAAECBBoVEC41OnC6TYAAAQIECBAgQIAAAQIECBDYgoBwaQujoA8ECBAgQIAAAQIECBAgQIAAgUYFhEuNDpxuEyBAgAABAgQIECBAgAABAgS2ICBc2sIo6AMBAgQIECBAgAABAgQIECBAoFEB4VKjA6fbBAgQIECAAAECBAgQIECAAIEtCAiXtjAK+kCAAAECBAgQIECAAAECBAgQaFRAuNTowOk2AQIECBAgQIAAAQIECBAgQGALAsKlLYyCPhAgQIAAAQIECBAgQIAAAQIEGhUQLjU6cLpNgAABAgQIECBAgAABAgQIENiCgHBpC6OgDwQIECBAgAABAgQIECBAgACBRgWES40OnG4TIECAAAECBAgQIECAAAECBLYgIFzawijoAwECBAgQIECAAAECBAgQIECgUQHhUqMDp9sECBAgQIAAAQIECBAgQIAAgS0ICJe2MAr6QIAAAQIECBAgQIAAAQIECBBoVEC41OjA6TYBAgQIECBAgAABAgQIECBAYAsCwqUtjII+ECBAgAABAgQIECBAgAABAgQaFRAuNTpwuk2AAAECBAgQIECAAAECBAgQ2IKAcGkLo6APBAgQIECAAAECBAgQIECAAIFGBYRLjQ6cbhMgQIAAAQIECBAgQIAAAQIEtiAgXNrCKOgDAQIECBAgQIAAAQIECBAgQKBRAeFSowOn2wQIECBAgAABAgQIECBAgACBLQgIl7YwCvpAgAABAgQIECBAgAABAgQIEGhUQLjU6MDpNgECBAgQIECAAAECBAgQIEBgCwLCpS2Mgj4QIECAAAECBAgQIECAAAECBBoVEC41OnC6TYAAAQIECBAgQIAAAQIECBDYgoBwaQujoA8ECBAgQIAAAQIECBAgQIAAgUYFhEuNDpxuEyBAgAABAgQIECBAgAABAgS2ICBc2sIo6AMBAgQIECBAgAABAgQIECBAoFEB4VKjA6fbBAgQIECAAAECBAgQIECAAIEtCAiXtjAK+kCAAAECBAgQIECAAAECBAgQaFRAuNTowOk2AQIECBAgQIAAAQIECBAgQGALAsKlLYyCPhAgQIAAAQIECBAgQIAAAQIEGhUQLjU6cLpNgAABAgQIECBAgAABAgQIENiCgHBpC6OgDwQIECBAgAABAgQIECBAgACBRgWES40OnG4TIECAAAECBAgQIECAAAECBLYgIFzawijoAwECBAgQIECAAAECBAgQIECgUQHhUqMDp9sECBAgQIAAAQIECBAgQIAAgS0ICJe2MAr6QIAAAQIECBAgQIAAAQIECBBoVEC41OjA6TYBAgQIECBAgAABAgQIECBAYAsCwqUtjII+ECBAgAABAgQIECBAgAABAgQaFRAuNTpwuk2AAAECBAgQIECAAAECBAgQ2IKAcGkLo6APBAgQIECAAAECBAgQIECAAIFGBYRLjQ6cbhMgQIAAAQIECBAgQIAAAQIEtiAgXNrCKOgDAQIECBAgQIAAAQIECBAgQKBRAeFSowOn2wQIECBAgAABAgQIECBAgACBLQgIl7YwCvpAgAABAgQIECBAgAABAgQIEGhUQLjU6MDpNgECBAgQIECAAAECBAgQIEBgCwLCpS2Mgj4QIECAAAECBAgQIECAAAECBBoVEC41OnC6TYAAAQIECBAgQIAAAQIECBDYgoBwaQujoA8ECBAgQIAAAQIECBAgQIAAgUYFhEuNDpxuEyBAgAABAgQIECBAgAABAgS2ICBc2sIo6AMBAgQIECBAgAABAgQIECBAoFEB4VKjA6fbBAgQIECAAAECBAgQIECAAIEtCAiXtjAK+kCAAAECBAgQIECAAAECBAgQaFRAuNTowOk2AQIECBAgQIAAAQIECBAgQGALAsKlLYyCPhAgQIAAAQIECBAgQIAAAQIEGhUQLjU6cLpNgAABAgQIECBAgAABAgQIENiCgHBpC6OgDwQIECBAgAABAgQIECBAgACBRgWES40OnG4TIECAAAECBAgQIECAAAECBLYgIFzawijoAwECBAgQIECAAAECBAgQIECgUQHhUqMDp9sECBAgQIAAAQIECBAgQIAAgS0I/P9Bl1dvZ4nG8AAAAABJRU5ErkJggg==;" vertex="1" parent="1">
          <mxGeometry x="827" width="1175" height="920" as="geometry" />
        </mxCell>
        <mxCell id="YQgL9-uihPEgKgkD_BW4-3" value="" style="shape=image;verticalLabelPosition=bottom;labelBackgroundColor=default;verticalAlign=top;aspect=fixed;imageAspect=0;image=data:image/png,iVBORw0KGgoAAAANSUhEUgAAAA4AAAAHCAYAAAA4R3wZAAAAfklEQVQYV2P8DwQMZABGFI3b0xkYNwQw/J/piWoUFnGIRpCE1yyGtLQ0hitaWgw6BQUMVybcZjiq1o1bHNnG7emMDF6z0hi2/Z/JgGwnNnGEU0G2tmgxTNApYChg2IZwLg5xuEaQqRsC/jPMVJ3IYK16jaEGaisucdTAISF0AbMeWwoWA4eaAAAAAElFTkSuQmCC;clipPath=inset(0% 50% 0% 0%);" vertex="1" parent="1">
          <mxGeometry x="1151" y="300" width="7" height="7" as="geometry" />
        </mxCell>
        <mxCell id="YQgL9-uihPEgKgkD_BW4-5" value="" style="shape=image;verticalLabelPosition=bottom;labelBackgroundColor=default;verticalAlign=top;aspect=fixed;imageAspect=0;image=data:image/png,iVBORw0KGgoAAAANSUhEUgAAAA4AAAAHCAYAAAA4R3wZAAAAfklEQVQYV2P8DwQMZABGFI3b0xkYNwQw/J/piWoUFnGIRpCE1yyGtLQ0hitaWgw6BQUMVybcZjiq1o1bHNnG7emMDF6z0hi2/Z/JgGwnNnGEU0G2tmgxTNApYChg2IZwLg5xuEaQqRsC/jPMVJ3IYK16jaEGaisucdTAISF0AbMeWwoWA4eaAAAAAElFTkSuQmCC;clipPath=inset(0% 50% 0% 0%);" vertex="1" parent="1">
          <mxGeometry x="1243" y="301" width="7" height="6" as="geometry" />
        </mxCell>
        <mxCell id="YQgL9-uihPEgKgkD_BW4-6" value="" style="shape=image;verticalLabelPosition=bottom;labelBackgroundColor=default;verticalAlign=top;aspect=fixed;imageAspect=0;image=data:image/png,iVBORw0KGgoAAAANSUhEUgAAAA4AAAAHCAYAAAA4R3wZAAAAfklEQVQYV2P8DwQMZABGFI3b0xkYNwQw/J/piWoUFnGIRpCE1yyGtLQ0hitaWgw6BQUMVybcZjiq1o1bHNnG7emMDF6z0hi2/Z/JgGwnNnGEU0G2tmgxTNApYChg2IZwLg5xuEaQqRsC/jPMVJ3IYK16jaEGaisucdTAISF0AbMeWwoWA4eaAAAAAElFTkSuQmCC;clipPath=inset(0% 50% 0% 0%);" vertex="1" parent="1">
          <mxGeometry x="1685" y="288" width="7" height="7" as="geometry" />
        </mxCell>
        <mxCell id="YQgL9-uihPEgKgkD_BW4-7" value="" style="shape=image;verticalLabelPosition=bottom;labelBackgroundColor=default;verticalAlign=top;aspect=fixed;imageAspect=0;image=data:image/png,iVBORw0KGgoAAAANSUhEUgAAAA4AAAAHCAYAAAA4R3wZAAAAfklEQVQYV2P8DwQMZABGFI3b0xkYNwQw/J/piWoUFnGIRpCE1yyGtLQ0hitaWgw6BQUMVybcZjiq1o1bHNnG7emMDF6z0hi2/Z/JgGwnNnGEU0G2tmgxTNApYChg2IZwLg5xuEaQqRsC/jPMVJ3IYK16jaEGaisucdTAISF0AbMeWwoWA4eaAAAAAElFTkSuQmCC;clipPath=inset(0% 50% 0% 0%);" vertex="1" parent="1">
          <mxGeometry x="1874" y="288" width="7" height="7" as="geometry" />
        </mxCell>
        <mxCell id="YQgL9-uihPEgKgkD_BW4-8" value="" style="rounded=0;whiteSpace=wrap;html=1;fillColor=default;strokeColor=none;" vertex="1" parent="1">
          <mxGeometry x="1190" y="266" width="24.5" height="10" as="geometry" />
        </mxCell>
        <mxCell id="YQgL9-uihPEgKgkD_BW4-10" value="" style="rounded=0;whiteSpace=wrap;html=1;strokeColor=none;" vertex="1" parent="1">
          <mxGeometry x="1187.25" y="298" width="32.75" height="15" as="geometry" />
        </mxCell>
      </root>
    </mxGraphModel>
  </diagram>
</mxfile>
